<?xml version="1.0" encoding="utf-8"?>
<!-- Generator: Adobe Illustrator 14.0.0, SVG Export Plug-In . SVG Version: 6.00 Build 43363)  -->
<!DOCTYPE svg PUBLIC "-//W3C//DTD SVG 1.1//EN" "http://www.w3.org/Graphics/SVG/1.1/DTD/svg11.dtd">
<svg version="1.1" id="Capa_1" xmlns="http://www.w3.org/2000/svg" xmlns:xlink="http://www.w3.org/1999/xlink" x="0px" y="0px"
	 width="333.347px" height="300px" viewBox="0 0 333.347 300" enable-background="new 0 0 333.347 300" xml:space="preserve">
<g>
	<g>
		<g>
			<path fill="#0070A8" d="M234.05,284.406H40.572c-9.947,0-18.043-8.104-18.043-18.062V39.531c0-11.574,9.421-20.993,21.002-20.993
				H234.05c1.37,0,2.479,1.11,2.479,2.479v56.975c0,0.639-0.25,1.254-0.692,1.715l-58.225,60.682l-2.116,35.112l33.154-5.205
				l23.613-24.61c0.7-0.726,1.787-0.953,2.709-0.585c0.938,0.381,1.557,1.289,1.557,2.3v134.523
				C236.529,283.297,235.42,284.406,234.05,284.406z M43.531,23.497c-8.848,0-16.044,7.192-16.044,16.034v226.813
				c0,7.225,5.871,13.103,13.085,13.103H231.57V153.564l-19.922,20.768c-0.373,0.391-0.867,0.648-1.404,0.733l-37.021,5.811
				c-0.733,0.104-1.494-0.112-2.052-0.614c-0.555-0.507-0.852-1.235-0.804-1.984l2.354-39.096c0.033-0.587,0.274-1.142,0.684-1.566
				l58.165-60.622V23.497H43.531z"/>
		</g>
		<g>
			<path fill="#0070A8" d="M65.041,283.594c-1.37,0-2.479-1.109-2.479-2.479V21.577c0-1.371,1.109-2.479,2.479-2.479
				c1.371,0,2.479,1.109,2.479,2.479v259.538C67.52,282.485,66.411,283.594,65.041,283.594z"/>
		</g>
		<g>
			<path fill="#0070A8" d="M45.013,74.992c-6.064,0-10.997-4.947-10.997-11.031c0-6.063,4.933-10.996,10.997-10.996
				c6.063,0,10.996,4.932,10.996,10.996C56.009,70.045,51.077,74.992,45.013,74.992z M45.013,57.924
				c-3.332,0-6.037,2.706-6.037,6.037c0,3.351,2.706,6.072,6.037,6.072s6.039-2.721,6.039-6.072
				C51.052,60.63,48.345,57.924,45.013,57.924z"/>
		</g>
		<g>
			<path fill="#0070A8" d="M45.013,118.717c-6.064,0-10.997-4.936-10.997-11c0-6.061,4.933-10.992,10.997-10.992
				c6.063,0,10.996,4.932,10.996,10.992C56.009,113.781,51.077,118.717,45.013,118.717z M45.013,101.683
				c-3.332,0-6.037,2.706-6.037,6.034c0,3.332,2.706,6.042,6.037,6.042s6.039-2.71,6.039-6.042
				C51.052,104.389,48.345,101.683,45.013,101.683z"/>
		</g>
		<g>
			<path fill="#0070A8" d="M45.013,162.469c-6.064,0-10.997-4.93-10.997-10.99c0-6.067,4.933-11.003,10.997-11.003
				c6.063,0,10.996,4.936,10.996,11.003C56.009,157.54,51.077,162.469,45.013,162.469z M45.013,145.435
				c-3.332,0-6.037,2.709-6.037,6.044c0,3.325,2.706,6.031,6.037,6.031s6.039-2.707,6.039-6.031
				C51.052,148.145,48.345,145.435,45.013,145.435z"/>
		</g>
		<g>
			<path fill="#0070A8" d="M45.013,206.183c-6.064,0-10.997-4.933-10.997-10.993c0-6.06,4.933-10.988,10.997-10.988
				c6.063,0,10.996,4.928,10.996,10.988C56.009,201.25,51.077,206.183,45.013,206.183z M45.013,189.159
				c-3.332,0-6.037,2.706-6.037,6.03c0,3.329,2.706,6.036,6.037,6.036c3.387,0,6.039-2.65,6.039-6.036
				C51.052,191.865,48.345,189.159,45.013,189.159z"/>
		</g>
		<g>
			<path fill="#0070A8" d="M45.013,249.946c-6.064,0-10.997-4.933-10.997-10.993c0-6.064,4.933-11,10.997-11
				c6.063,0,10.996,4.937,10.996,11C56.009,245.013,51.077,249.946,45.013,249.946z M45.013,232.912
				c-3.332,0-6.037,2.709-6.037,6.041c0,3.328,2.706,6.035,6.037,6.035s6.039-2.707,6.039-6.035
				C51.052,235.621,48.345,232.912,45.013,232.912z"/>
		</g>
		<g>
			<path fill="#0070A8" d="M159.185,126.966H99.874c-1.371,0-2.479-1.109-2.479-2.478c0-1.371,1.109-2.479,2.479-2.479h59.312
				c1.37,0,2.479,1.109,2.479,2.479C161.665,125.857,160.555,126.966,159.185,126.966z"/>
		</g>
		<g>
			<path fill="#0070A8" d="M172.713,180.907H99.874c-1.371,0-2.479-1.109-2.479-2.479c0-1.37,1.109-2.479,2.479-2.479h72.839
				c1.37,0,2.479,1.109,2.479,2.479C175.192,179.797,174.083,180.907,172.713,180.907z"/>
		</g>
		<g>
			<path fill="#0070A8" d="M206.436,234.803H99.874c-1.371,0-2.479-1.109-2.479-2.48c0-1.37,1.109-2.479,2.479-2.479h106.563
				c1.37,0,2.479,1.109,2.479,2.479C208.915,233.693,207.806,234.803,206.436,234.803z"/>
		</g>
		<g>
			<path fill="#0070A8" d="M206.436,73.859H99.874c-1.371,0-2.479-1.109-2.479-2.48s1.109-2.479,2.479-2.479h106.563
				c1.37,0,2.479,1.109,2.479,2.479S207.806,73.859,206.436,73.859z"/>
		</g>
		<g>
			<path fill="#0070A8" d="M172.839,180.907c-0.61,0-1.206-0.227-1.668-0.644c-0.555-0.507-0.852-1.235-0.804-1.984l2.354-39.096
				c0.033-0.587,0.274-1.142,0.684-1.566L281.554,24.894c2.918-3.045,6.864-4.725,11.104-4.725c4.006,0,7.788,1.523,10.658,4.286
				l16.056,15.399c6.104,5.871,6.309,15.628,0.449,21.752L211.647,174.333c-0.376,0.391-0.867,0.648-1.404,0.733l-37.021,5.811
				C173.096,180.896,172.966,180.907,172.839,180.907z M177.612,140.39l-2.116,35.112l33.154-5.205L316.244,58.177
				c3.968-4.15,3.835-10.77-0.305-14.749L299.88,28.023c-4.006-3.853-10.903-3.71-14.752,0.301L177.612,140.39z"/>
		</g>
		<g>
			<path fill="#0070A8" d="M308.796,71.992c-0.619,0-1.237-0.231-1.716-0.694L272.377,38.03c-0.989-0.946-1.023-2.516-0.078-3.503
				c0.954-0.994,2.52-1.016,3.503-0.078l34.708,33.276c0.988,0.945,1.021,2.517,0.071,3.503
				C310.095,71.734,309.447,71.992,308.796,71.992z"/>
		</g>
		<g>
			<path fill="#0070A8" d="M209.861,175.096c-0.619,0-1.236-0.231-1.716-0.692l-34.668-33.284c-0.986-0.945-1.02-2.517-0.071-3.503
				c0.952-0.986,2.52-1.016,3.503-0.07l34.668,33.283c0.986,0.946,1.02,2.517,0.07,3.503
				C211.16,174.839,210.513,175.096,209.861,175.096z"/>
		</g>
		<g>
			<path fill="#0070A8" d="M192.536,158.434c-0.619,0-1.236-0.231-1.716-0.693c-0.987-0.945-1.02-2.517-0.071-3.502l98.916-103.06
				c0.946-0.987,2.516-1.016,3.502-0.071c0.987,0.946,1.021,2.517,0.072,3.503l-98.917,103.06
				C193.838,158.176,193.188,158.434,192.536,158.434z"/>
		</g>
	</g>
</g>
</svg>
