<?xml version="1.0" encoding="utf-8"?>
<!-- Generator: Adobe Illustrator 22.0.1, SVG Export Plug-In . SVG Version: 6.00 Build 0)  -->
<svg version="1.1" id="Layer_1" xmlns="http://www.w3.org/2000/svg" xmlns:xlink="http://www.w3.org/1999/xlink" x="0px" y="0px"
	 viewBox="0 0 267.5 64" style="enable-background:new 0 0 267.5 64;" xml:space="preserve">
<style type="text/css">
	.st0{fill:#FFFFFF;}
</style>
<g>
	<g>
		<g>
			<path class="st0" d="M99.9,0c9,0,16.6,3.1,22.7,9.3C128.9,15.5,132,23,132,32c0,9-3,16.5-9.1,22.5c-6.5,6.4-14.1,9.5-22.9,9.5
				c-8.6,0-16.2-3.1-22.5-9.4C71.1,48.3,68,40.8,68,32c0-8.8,3.1-16.3,9.4-22.7C83.6,3.1,91.1,0,99.9,0z M100.1,5.8
				c-7.3,0-13.4,2.6-18.5,7.7C76.4,18.8,73.8,25,73.8,32c0,7.1,2.6,13.2,7.8,18.4c5.2,5.2,11.4,7.8,18.5,7.8
				c7.1,0,13.3-2.6,18.6-7.8c5-4.8,7.5-11,7.5-18.3c0-7.3-2.6-13.5-7.7-18.6C113.5,8.3,107.3,5.8,100.1,5.8z M108.6,24.1v13.1H105
				v15.5H95V37.1h-3.7V24.1c0-0.6,0.2-1.1,0.6-1.5c0.4-0.4,0.9-0.6,1.5-0.6h13.1c0.5,0,1,0.2,1.4,0.6
				C108.4,23,108.6,23.5,108.6,24.1z M95.5,15.8c0-3,1.5-4.5,4.5-4.5s4.5,1.5,4.5,4.5c0,3-1.5,4.5-4.5,4.5S95.5,18.8,95.5,15.8z"/>
		</g>
	</g>
	<g>
		<path class="st0" d="M31.9,0c9,0,16.6,3.1,22.9,9.4c3,3,5.3,6.4,6.9,10.3c1.6,3.9,2.3,8,2.3,12.3c0,4.4-0.8,8.5-2.3,12.3
			c-1.5,3.8-3.8,7.2-6.8,10.1c-3.1,3.1-6.7,5.4-10.6,7.1c-4,1.6-8.1,2.5-12.3,2.5s-8.3-0.8-12.1-2.4c-3.9-1.6-7.3-4-10.4-7
			S4,48,2.4,44.2S0,36.3,0,32c0-4.2,0.8-8.3,2.4-12.2s4-7.4,7.1-10.5C15.6,3.1,23.1,0,31.9,0z M32.1,5.8c-7.3,0-13.5,2.6-18.5,7.7
			C11.1,16,9.2,18.8,7.8,22c-1.4,3.2-2,6.5-2,10c0,3.4,0.7,6.7,2,9.9c1.4,3.2,3.3,6,5.8,8.5c2.5,2.5,5.4,4.4,8.5,5.7
			c3.2,1.3,6.5,2,9.9,2c3.4,0,6.8-0.7,10-2c3.2-1.3,6.1-3.3,8.7-5.8c5-4.9,7.5-11,7.5-18.3c0-3.5-0.6-6.9-1.9-10.1
			c-1.3-3.2-3.2-6-5.7-8.5C45.5,8.3,39.3,5.8,32.1,5.8z M31.7,26.7l-4.3,2.2c-0.5-1-1-1.6-1.7-2c-0.7-0.4-1.3-0.6-1.9-0.6
			c-2.9,0-4.3,1.9-4.3,5.7c0,1.7,0.4,3.1,1.1,4.1c0.7,1,1.8,1.5,3.2,1.5c1.9,0,3.2-0.9,3.9-2.7l3.9,2c-0.8,1.6-2,2.8-3.5,3.7
			c-1.5,0.9-3.1,1.3-4.9,1.3c-2.9,0-5.2-0.9-6.9-2.6c-1.8-1.8-2.6-4.2-2.6-7.3c0-3,0.9-5.5,2.7-7.3c1.8-1.8,4-2.7,6.7-2.7
			C27.1,22.1,29.9,23.6,31.7,26.7z M50.1,26.7l-4.2,2.2c-0.5-1-1-1.6-1.7-2c-0.7-0.4-1.3-0.6-1.9-0.6c-2.9,0-4.3,1.9-4.3,5.7
			c0,1.7,0.4,3.1,1.1,4.1c0.7,1,1.8,1.5,3.2,1.5c1.9,0,3.2-0.9,3.9-2.7l4,2c-0.9,1.6-2.1,2.8-3.5,3.7c-1.5,0.9-3.1,1.3-4.9,1.3
			c-2.9,0-5.2-0.9-6.9-2.6c-1.7-1.8-2.6-4.2-2.6-7.3c0-3,0.9-5.5,2.7-7.3c1.8-1.8,4-2.7,6.7-2.7C45.6,22.1,48.4,23.6,50.1,26.7z"/>
	</g>
	<g>
		<g>
			<path class="st0" d="M167.9,0c9,0,16.6,3.1,22.7,9.3C196.9,15.4,200,23,200,32c0,9-3,16.5-9.1,22.5c-6.5,6.4-14.1,9.5-22.9,9.5
				c-8.7,0-16.2-3.2-22.5-9.5c-6.3-6.3-9.4-13.8-9.4-22.5c0-8.8,3.1-16.3,9.4-22.7C151.6,3.1,159.1,0,167.9,0z M143.2,23.4
				c-1,2.6-1.4,5.5-1.4,8.6c0,7.1,2.6,13.2,7.8,18.4c5.2,5.1,11.4,7.7,18.5,7.7c7.2,0,13.4-2.6,18.6-7.8c1.9-1.8,3.3-3.7,4.4-5.6
				L179,39.3c-0.4,2-1.4,3.7-3.1,4.9c-1.6,1.3-3.5,2-5.7,2.2v4.9h-3.7v-4.9c-3.5,0-6.8-1.3-9.7-3.8l4.4-4.5c2.1,1.9,4.5,2.9,7.1,2.9
				c1.1,0,2-0.2,2.8-0.7c0.8-0.5,1.2-1.3,1.2-2.5c0-0.8-0.3-1.4-0.9-1.9l-3.1-1.3l-3.8-1.7l-5.1-2.2L143.2,23.4z M168.1,5.7
				c-7.3,0-13.4,2.6-18.5,7.7c-1.3,1.3-2.4,2.7-3.5,4.3l12.2,5.5c0.5-1.7,1.5-3,3-4c1.5-1,3.2-1.6,5.2-1.7v-4.9h3.7v4.9
				c2.9,0.2,5.6,1.1,8,3l-4.2,4.3c-1.8-1.3-3.6-1.9-5.5-1.9c-1,0-1.9,0.2-2.7,0.6c-0.8,0.4-1.2,1-1.2,1.9c0,0.3,0.1,0.5,0.3,0.8
				l4.1,1.8l2.8,1.3l5.1,2.3l16.4,7.3c0.5-2.2,0.8-4.5,0.8-6.9c0-7.4-2.6-13.5-7.7-18.6C181.5,8.3,175.3,5.7,168.1,5.7z"/>
		</g>
	</g>
	<g>
		<g>
			<path class="st0" d="M235.4,0c9,0,16.5,3.1,22.7,9.3c6.2,6.2,9.3,13.7,9.3,22.7c0,9-3,16.5-9.1,22.5c-6.4,6.3-14.1,9.5-22.9,9.5
				c-8.6,0-16.2-3.1-22.5-9.4c-6.3-6.3-9.4-13.8-9.4-22.6c0-8.7,3.1-16.3,9.4-22.7C219.1,3.1,226.6,0,235.4,0z M235.6,5.8
				c-7.3,0-13.4,2.6-18.5,7.7c-5.2,5.3-7.8,11.5-7.8,18.5c0,7.1,2.6,13.3,7.8,18.4c5.2,5.2,11.4,7.8,18.5,7.8
				c7.1,0,13.3-2.6,18.6-7.8c5-4.9,7.5-11,7.5-18.3c0-7.3-2.6-13.5-7.7-18.5C249,8.3,242.8,5.8,235.6,5.8z M247.6,24.5v5.5h-23.3
				v-5.5H247.6z M247.6,34.7v5.5h-23.3v-5.5C224.4,34.7,247.6,34.7,247.6,34.7z"/>
		</g>
	</g>
</g>
</svg>
