<svg id="Layer_1" data-name="Layer 1" xmlns="http://www.w3.org/2000/svg" viewBox="0 0 238.82 227.74"><defs><style>.cls-1,.cls-2{fill:#fff;}.cls-2{fill-rule:evenodd;}.cls-3{fill:none;}</style></defs><title>logomed</title><path class="cls-1" d="M30.54,65.39c-2.27.45-3.26,3.44-5,7.75a1,1,0,0,0-.06.33.94.94,0,0,0,.63.89,1.12,1.12,0,0,0,.31,0,1,1,0,0,0,.89-.61,34.32,34.32,0,0,1,2.18-5,7.1,7.1,0,0,1,.87-1.25,7.51,7.51,0,0,1,.17,1.78v.18a38.57,38.57,0,0,1-.44,5.16.61.61,0,0,0,0,.14,1,1,0,0,0,.8.93H31a.94.94,0,0,0,.93-.81,38.56,38.56,0,0,0,.46-5.43c-.09-1.83,0-3.34-1.5-4l-.1.23h0l.05-.25A1.22,1.22,0,0,0,30.54,65.39ZM17.43,71.93a.89.89,0,0,0,.39.09,1,1,0,0,0,.86-.54l-.23-.11.23.1a30.14,30.14,0,0,1,2.91-5.26,12.33,12.33,0,0,1,1.14-1.41,2.7,2.7,0,0,1,.38-.35l0,0a.64.64,0,0,1,.05.15,5.63,5.63,0,0,1,.17,1.56,33.88,33.88,0,0,1-.83,6.31.63.63,0,0,0,0,.19,1,1,0,0,0,.75.92l.2,0h0a.93.93,0,0,0,.92-.75l.06-.3h0a34.75,34.75,0,0,0,.81-6.39c-.06-1.54-.1-2.92-1.45-3.55a1.6,1.6,0,0,0-.53-.09c-2.36.35-4,3.52-6.29,8.17a1,1,0,0,0-.09.4A1,1,0,0,0,17.43,71.93ZM213,65.46c-.26-.41-.48-.75-.63-1s-.13-.21-.16-.28l0,0h0l0-.06a.93.93,0,0,0-.8-.45.92.92,0,0,0-.94.94.94.94,0,0,0,.13.48l.47.78v0c.53.86,1.45,2.3,2.49,3.77,1.71,2.24,3.16,4.59,5.13,4.86h0a1.54,1.54,0,0,0,.79-.21,2.61,2.61,0,0,0,.91-2.26A28.44,28.44,0,0,0,219,65.45c-.31-1.08-.62-2.05-.85-2.76l-.28-.83c0-.1-.06-.18-.08-.23s0-.05,0-.06h0a1,1,0,0,0-.9-.66.87.87,0,0,0-.31.05.93.93,0,0,0-.57,1.21v0l0,.06h0c.24.66,2.36,7,2.35,9.66a.23.23,0,0,0,0,.11s0,0,0,.07a3,3,0,0,1,0,.35A19.94,19.94,0,0,1,215,68.5l-.2.14.2-.15C214.2,67.39,213.48,66.29,213,65.46Zm-161.32,16a.94.94,0,0,0,.93-.8,14.82,14.82,0,0,1,.72-3l.06-.16a15.58,15.58,0,0,1,.55,4,.93.93,0,0,0,.94.92h0a1,1,0,0,0,.9-.93v0c-.31-3-.17-5.4-2-6.2,0-.06-.08,0-.08-.06a.73.73,0,0,0-.25,0h-.07c-2,.51-2.05,2.63-2.63,5.27a1,1,0,0,0,0,.16.93.93,0,0,0,.81.92ZM37,68.27c-2.2.52-2.76,3.21-4,7a.84.84,0,0,0,0,.27.94.94,0,0,0,.7.9.69.69,0,0,0,.25,0,.94.94,0,0,0,.9-.68,29.08,29.08,0,0,1,1.56-4.44q.27-.54.48-.87a12.38,12.38,0,0,1,.26,2.74v.22c0,.93,0,2-.13,3.13a.17.17,0,0,0,0,.08.94.94,0,0,0,.87.93h.09a.94.94,0,0,0,.93-.86c.09-1.2.13-2.3.13-3.28-.15-2.5.09-4.39-1.71-5.15l-.09.23h0l.07-.24A.81.81,0,0,0,37,68.27ZM50.36,83.88h0v0h0l.21,0h-.25c0,.58,0,1.13,0,1.66a24.32,24.32,0,0,0,.42,4.86c.32,1.16.5,2.36,1.89,2.64h.09c1.5-.25,1.73-1.5,2.17-2.76A27,27,0,0,0,55.72,85V85a1,1,0,0,0-.88-.95h-.05a.94.94,0,0,0-.95.88,25.63,25.63,0,0,1-.75,4.94,8.27,8.27,0,0,1-.33.94A18.59,18.59,0,0,1,52.19,86v-.38c0-.51,0-1,0-1.55v0a.07.07,0,0,0,0-.05.93.93,0,0,0-.87-.94h-.08A.93.93,0,0,0,50.36,83.88ZM39.68,77.42a.94.94,0,0,0,.73.92.78.78,0,0,0,.22,0,1,1,0,0,0,.91-.72A22.72,22.72,0,0,1,42.7,74c.06-.13.11-.25.17-.36a12.8,12.8,0,0,1,.25,2.61c0,.14,0,.28,0,.43,0,.52,0,1.08,0,1.67v0a.93.93,0,0,0,.9.93h0a1,1,0,0,0,1-.9l0-.26h0c0-.52,0-1,0-1.49-.19-2.67.13-4.64-1.73-5.43h0a1,1,0,0,0-.19,0H43c-2,.52-2.29,2.83-3.26,6l.24.07-.24-.06A.83.83,0,0,0,39.68,77.42Zm166.53-9.51c-.18-.3-.32-.55-.41-.72l-.12-.2,0-.06h0a.94.94,0,0,0-.82-.47.92.92,0,0,0-.45.12.89.89,0,0,0-.48.82.73.73,0,0,0,.1.42h0l0,0c.12.23,1.17,2.14,2.44,4.12,1.46,2,2.47,4.18,4.29,4.51h0a.79.79,0,0,0,.24,0,1.79,1.79,0,0,0,1.16-2c0-2.94-2.07-9.35-2.06-9.36a.94.94,0,0,0-.91-.7.77.77,0,0,0-.29,0,.93.93,0,0,0-.65.89,1.17,1.17,0,0,0,.05.3l0,.09a54,54,0,0,1,1.94,8.31,28.92,28.92,0,0,1-2.69-3.84C207,69.35,206.56,68.52,206.21,67.91ZM45.38,79a.94.94,0,0,0,.77.93h.16a1,1,0,0,0,.93-.76,20,20,0,0,1,.89-3.36l0-.08a17.45,17.45,0,0,1,.33,3.5c0,.14,0,.29,0,.45v.18a.95.95,0,0,0,1.89,0V79.7a22.55,22.55,0,0,0-.32-4.15c-.25-1-.35-2-1.62-2.35h-.22c-2,.55-2.07,2.73-2.81,5.62l.24.07-.25,0A.91.91,0,0,0,45.38,79ZM215.71,98.22h0a2,2,0,0,0,.3,0c1.6-.7,1.5-2.22,1.59-4.06a60.61,60.61,0,0,0-2-13.22c-.39-1.56-.82-3-1.25-4.43a.94.94,0,0,0-.9-.67.72.72,0,0,0-.28,0,1,1,0,0,0-.65.85h-.06l.1.32c.42,1.38.83,2.81,1.21,4.34a58.59,58.59,0,0,1,2,12.75,8.61,8.61,0,0,1-.17,2s0,0,0,0c-1.24-1.27-3.7-7.06-5.34-13.89-.37-1.47-.67-2.89-.94-4.26a1,1,0,0,0-.91-.76.69.69,0,0,0-.2,0,.92.92,0,0,0-.75.91.79.79,0,0,0,0,.2c.27,1.38.58,2.82,1,4.33a69.53,69.53,0,0,0,3.46,10.67l.23-.1-.23.1C213.17,96,213.89,97.91,215.71,98.22Zm-9.54-1.84h.27l0,0c1.81-.77,1.6-2.65,1.75-5.18a57.76,57.76,0,0,0-.93-9.4c-.19-1.07-.39-2.09-.6-3.07a1,1,0,0,0-.92-.74l-.22,0a.93.93,0,0,0-.73.91,1,1,0,0,0,0,.22c.21.94.4,1.93.59,3a56.42,56.42,0,0,1,.89,9.06,14.31,14.31,0,0,1-.22,2.84c0,.06,0,.13-.05.19-.92-1.32-2.55-6.11-3.45-11.61-.15-.88-.28-1.73-.39-2.56a.94.94,0,0,0-.93-.81.44.44,0,0,0-.15,0,.91.91,0,0,0-.79.91,1,1,0,0,0,0,.16c.11.83.25,1.7.4,2.6A59.17,59.17,0,0,0,203,92.07l.24-.09-.23.1C204,94.35,204.43,96.05,206.17,96.38Zm-7.61-1.84.3,0V94.5c1.84-.81,1.55-2.78,1.73-5.42a48.94,48.94,0,0,0-.5-6.6c-.08-.63-.17-1.24-.28-1.82a.93.93,0,0,0-.92-.78h-.17a1,1,0,0,0-.78.92,1.41,1.41,0,0,0,0,.18c.1.56.19,1.15.28,1.74a50.51,50.51,0,0,1,.47,6.33,16.37,16.37,0,0,1-.23,3s0,.05,0,.07A33.68,33.68,0,0,1,196.17,83c-.06-.42-.1-.82-.14-1.25a1,1,0,0,0-.93-.83H195a.93.93,0,0,0-.82.92.66.66,0,0,0,0,.13c0,.39.08.82.15,1.27a44.06,44.06,0,0,0,1.61,7.57l.24-.07-.23.08C196.66,92.72,196.94,94.2,198.56,94.54Zm-9.08-13.06,0,.07.24,0,.2,0h.26v0c1-.34.93-1.15,1-1.46a13.9,13.9,0,0,0,.11-1.9c0-2.19-.26-5-.26-5a1,1,0,0,0-.19-.5l.21.22c.09.26.69,2,1.4,3.69.95,1.82,1.25,3.77,3.06,4.25l.31.08v-.18c1.61-.84,1.1-2.26,1.28-3.72,0-2.76-.38-6.29-.37-6.3a1,1,0,0,0-.94-.87h-.12a.94.94,0,0,0-.83.94.68.68,0,0,0,0,.12s.37,3.48.37,6.07c0,.37,0,.73,0,1a24.61,24.61,0,0,1-1.15-2.5c-.68-1.69-1.22-3.28-1.22-3.29a1,1,0,0,0-.89-.64.85.85,0,0,0-.31.06.93.93,0,0,0-.63.86h-.32a.88.88,0,0,0-.58-.21H190a.93.93,0,0,0-.83.93.68.68,0,0,0,0,.12s.25,2.7.25,4.77v.1c-.19-.4-.37-.83-.52-1.24-.27-.68-.52-1.34-.69-1.84-.09-.24-.16-.45-.21-.59l-.05-.16v0h0v0h0a.94.94,0,0,0-.9-.64.82.82,0,0,0-.3,0,.91.91,0,0,0-.63.86H186a.94.94,0,0,0-.76-.39h-.09a.93.93,0,0,0-.85.92.32.32,0,0,0,0,.08c0,.18.08,1.34.08,2.65a14.73,14.73,0,0,1-.1,2.06,12.68,12.68,0,0,1-.71-1.53c-.25-.6-.46-1.18-.62-1.61-.07-.21-.13-.39-.18-.51s0-.11,0-.15,0,0,0,0h0a1,1,0,0,0-.9-.64.86.86,0,0,0-.3,0,1,1,0,0,0-.64.89,1.11,1.11,0,0,0,.05.3h0c.09.35.48,1.43,1,2.68.7,1.27.92,2.79,2.55,3.18l.05-.24v.25a1.28,1.28,0,0,0,.63-.18c1.23-1.18,1-2.87,1.1-4.48,0-1.28-.07-2.43-.09-2.72.17.48.58,1.64,1.05,2.79C188,79.42,188.14,80.87,189.48,81.48Zm2.59,12.35h.13l0,0c2.1-.84,1.75-3.22,2-6.47,0-1.25-.05-2.63-.17-4.07,0-.33-.07-.64-.11-.93a1,1,0,0,0-.93-.84h-.12a1,1,0,0,0-.74.55l-.16-.13.08.62c0,.31.07.6.1.89.12,1.38.17,2.71.17,3.89a21.37,21.37,0,0,1-.28,3.78,1.42,1.42,0,0,0,0,.2,29.49,29.49,0,0,1-1.5-7.73.62.62,0,0,1,0-.23,1,1,0,0,0-1-.88h-.09a.94.94,0,0,0-.84.94.19.19,0,0,0,0,.1s0,.11,0,.26a38.56,38.56,0,0,0,1.11,6.68l.24-.07-.24.08C190.32,92.1,190.48,93.49,192.07,93.83ZM44.89,82.35h0c0,.3-.08.6-.1.93-.13,1.44-.2,2.81-.2,4.06.23,3.25-.13,5.64,1.92,6.48h.18c1.64-.34,1.8-1.74,2.37-3.36a39.75,39.75,0,0,0,1.13-6.71c0-.12,0-.2,0-.29v0a.94.94,0,0,0-.86-.94h-.09a.93.93,0,0,0-.92.86,1.63,1.63,0,0,1,0,.23A37.24,37.24,0,0,1,47.25,90a11.37,11.37,0,0,1-.45,1.36,17.56,17.56,0,0,1-.33-3.51c0-.15,0-.3,0-.45,0-1.2.05-2.52.18-3.9,0-.28.06-.57.09-.9a.34.34,0,0,0,0-.1.94.94,0,0,0-.85-.93h-.09A.92.92,0,0,0,44.89,82.35ZM186,90.78A20.77,20.77,0,0,1,185,84.9.92.92,0,0,0,184,84H184a.92.92,0,0,0-.85.92V85a26.73,26.73,0,0,0,.81,5.3c.44,1.28.68,2.52,2.12,2.77l.06,0h.07c1.42-.3,1.59-1.5,1.91-2.64a23.93,23.93,0,0,0,.43-4.88c0-.53,0-1.06,0-1.61v-.15a1,1,0,0,0-.93-.8h-.17a.93.93,0,0,0-.76.8h-.08l.09.35c0,.39,0,.9,0,1.4a21.82,21.82,0,0,1-.39,4.46C186.17,90.34,186.1,90.58,186,90.78Zm37.69-10.25c2.25,6.69,3.52,12.78,3.52,15.94v.07a5.57,5.57,0,0,1-.16,1.53l-.05.15a13.37,13.37,0,0,1-3.11-4.28,77.08,77.08,0,0,1-5-11.81c-.75-2.22-1.37-4.36-1.9-6.37a1,1,0,0,0-.92-.7l-.23,0a.94.94,0,0,0-.7.91,1.13,1.13,0,0,0,0,.25c.53,2,1.17,4.22,1.93,6.48,3.46,9.58,6.66,16.86,9.93,17.43h0a1.77,1.77,0,0,0,.5-.07c1.39-.66,1.44-2,1.5-3.58,0-3.58-1.32-9.73-3.62-16.58-.73-2.15-1.5-4.15-2.26-6a.94.94,0,0,0-.87-.58.85.85,0,0,0-.37.08.93.93,0,0,0-.57.86h-.07l.14.35C222.27,76.46,223,78.43,223.73,80.53Zm-44.87,4a1.47,1.47,0,0,0,.37,0h0l0,0c1.37-.94,1.22-2.48,1.49-4s.16-2.93.16-3h0a.94.94,0,0,0-.92-.94h0a.93.93,0,0,0-.93.92c0,.22,0,1.46-.17,2.79,0,.55-.12,1.11-.21,1.57a9.44,9.44,0,0,1-.52-1.35c-.39-1.16-.67-2.26-.67-2.26a.94.94,0,0,0-.91-.71l-.23,0a.94.94,0,0,0-.7.84h-.38l.42.39c.07.25.38,1.4.76,2.54.6,1.23.66,2.75,2.32,3.18Zm19.21-15.3a.81.81,0,0,0-.39.1.91.91,0,0,0-.55.84.84.84,0,0,0,.08.38h0c0,.09.87,1.9,1.88,3.76,1.17,1.83,1.87,3.81,3.66,4.17l.05-.25v.25h.1a.27.27,0,0,0,.15,0h0c1.3-.55,1.15-1.6,1.21-2.34a30.92,30.92,0,0,0-.63-5c-.15-.8-.3-1.52-.42-2l-.14-.61a1.27,1.27,0,0,0,0-.18h0V68.2a1,1,0,0,0-.91-.72,1,1,0,0,0-.24,0,.94.94,0,0,0-.71.92,1,1,0,0,0,0,.22l0,.09A45.39,45.39,0,0,1,202.38,76a25,25,0,0,1-2-3.35c-.4-.76-.76-1.49-1-2L199,70l-.08-.18,0,0h0A1,1,0,0,0,198.07,69.23Zm-17.5,22.62h0c2.15-.71,1.95-3.22,2.17-6.26a.94.94,0,1,0-1.87,0,17,17,0,0,1-.35,3.57c0,.11-.05.21-.08.31a12.67,12.67,0,0,1-.71-3.15.93.93,0,0,0-.94-.83.31.31,0,0,0-.13,0,.93.93,0,0,0-.8.92.82.82,0,0,0,0,.14c.49,2.61.55,4.79,2.55,5.31l.06-.24v.25ZM24.53,76.3h0l-.05.18c-.43,1.4-.85,2.87-1.24,4.43a60.24,60.24,0,0,0-2.05,13.22c.1,1.83,0,3.36,1.52,4a1.9,1.9,0,0,0,.37,0h0c1.85-.31,2.56-2.18,3.86-4.85A71.14,71.14,0,0,0,30.4,82.71c.38-1.52.68-3,1-4.36a1.11,1.11,0,0,0,0-.17.94.94,0,0,0-.76-.93l-.18,0a.93.93,0,0,0-.92.77c-.28,1.37-.58,2.78-.95,4.25A68.46,68.46,0,0,1,25.2,92.62a17.48,17.48,0,0,1-1.56,3,4.73,4.73,0,0,1-.41.53,7.72,7.72,0,0,1-.18-1.82v-.23a58.71,58.71,0,0,1,2-12.71c.38-1.52.79-3,1.21-4.34a.9.9,0,0,0,0-.28.93.93,0,0,0-.67-.89.86.86,0,0,0-.27,0A.94.94,0,0,0,24.53,76.3ZM183.65,96.63h0c0-.36,0-.58,0-.58a.94.94,0,0,0-.94-.93h-.06a.93.93,0,0,0-.85.69h0v.26s0,.2,0,.55v.14c0,1.62-.26,5.92-1.44,7.59a1.88,1.88,0,0,1-.16.23,11.26,11.26,0,0,0,.69-3.57V95.17a.94.94,0,0,0-1.87,0v5.9c0,2.8-2.46,7.34-5.06,10.68a.89.89,0,0,0-.2.58.93.93,0,0,0,.3.69,1,1,0,0,0,.64.25,1,1,0,0,0,.64-.25,54,54,0,0,0,6.59-7.6C183.58,102.79,183.62,98.28,183.65,96.63Zm-8.28-20.25a.91.91,0,0,0,.35-.07l8-3.21a1,1,0,0,0,.36.07.93.93,0,0,0,.81-.46.31.31,0,0,0,.05-.1l.75-.31h.06c.3,0,.39-.21.43-.2l4.9-2a1,1,0,0,0,.34.06,1,1,0,0,0,.82-.47l0-.07.79-.32h0c.28,0,.28-.18.3-.14l19.8-8a1,1,0,0,0,.58-.74.71.71,0,0,0,0-.14.94.94,0,0,0-.36-.73l-.14.15.13-.16c-.24-.18-6.55-5.18-13.95-6.91a62.89,62.89,0,0,0-13.65-1.44,32.51,32.51,0,0,0-5.37.34c-1.85.35-3.92,1.16-4,3.3A4.49,4.49,0,0,0,178,58a3.38,3.38,0,0,1,1.1,2.39v0a5,5,0,0,1-2.36,3.69c-1.18.84-3.08,2.15-4.69,3.25L170,68.72l-.64.43-.17.11,0,0h0a1,1,0,0,0-.42.74v0a.92.92,0,0,0,.35.73,64.6,64.6,0,0,1,5.65,5.27A.94.94,0,0,0,175.37,76.38Zm3-3.17,2.66-1.69.62.37Zm12.94-10.75c-1.25,1-5.32,3.64-9,6,.89-1,1.68-1.85,2.19-2.5,1.61-2.13,3.3-3.74,3.38-5.94,0-.14,0-.25,0-.32h-.25l.25,0a4,4,0,0,0-2.18-3,4.17,4.17,0,0,1,2.76-1h0a3,3,0,0,1,1.76.49,5.27,5.27,0,0,1,2,4,.32.32,0,0,0,0,.08A2.73,2.73,0,0,1,191.33,62.46Zm5.9,3.17-4.1-2.37.1-.12a.8.8,0,0,0,.25.23l3.81,2.24Zm-26.06,4.53c1.65-1.12,4.89-3.33,6.63-4.56a6.89,6.89,0,0,0,3.14-5.26v0a5.26,5.26,0,0,0-1.61-3.68,3,3,0,0,1-1-1.67v-.13c-.06-.35.85-1.11,2.49-1.39a33.38,33.38,0,0,1,5-.3,61.62,61.62,0,0,1,13.23,1.39,37.1,37.1,0,0,1,11.86,5.59l-4.9,2-6.31-3.94a.87.87,0,0,0-.49-.14.94.94,0,0,0-.8.44.93.93,0,0,0-.14.5,1,1,0,0,0,.44.8l.25.15-1.19-.71a1,1,0,0,0-.49-.13,1,1,0,0,0-.81.46.95.95,0,0,0,.33,1.29l5,3-.45.18a.56.56,0,0,0-.16-.14l-5.52-3.24a.9.9,0,0,0-.47-.13.94.94,0,0,0-.81.47.9.9,0,0,0-.13.47,1.15,1.15,0,0,0,0,.26.73.73,0,0,0-.25,0H194a6.09,6.09,0,0,0,.18-1.34h0v-.06a7.17,7.17,0,0,0-2.77-5.62,4.87,4.87,0,0,0-2.83-.83c-2.24,0-4.76,1.14-5.1,3.48v.09a.94.94,0,0,0,.3.7,1,1,0,0,0,.65.25h0l.14,0h0A2.14,2.14,0,0,1,186,59.83c0,.05,0,.14,0,.19v.07c0,.95-1.29,2.6-3,4.71s-7.54,8-7.59,8.07a.87.87,0,0,0-.25.64.9.9,0,0,0,.2.59,1,1,0,0,0,.24.21l0,0C174,72.63,172.22,71.07,171.17,70.16ZM39,80.65h0c-.11.6-.2,1.2-.29,1.83a50.62,50.62,0,0,0-.5,6.59c.17,2.67-.12,4.65,1.74,5.45H40a.21.21,0,0,0,.08,0h0l0,0h.08c1.64-.35,1.91-1.83,2.64-3.68a46.37,46.37,0,0,0,1.63-7.59c.07-.46.11-.88.15-1.3a.34.34,0,0,0,0-.1.94.94,0,0,0-.84-.93h-.1a.93.93,0,0,0-.94.83c0,.43-.09.83-.14,1.25a45.53,45.53,0,0,1-1.55,7.24,13.52,13.52,0,0,1-.75,1.87,13.31,13.31,0,0,1-.26-2.68c0-.12,0-.25,0-.37a48.75,48.75,0,0,1,.48-6.34c.08-.6.18-1.18.28-1.77,0,0,0-.11,0-.16a.94.94,0,0,0-.78-.92h-.16A.93.93,0,0,0,39,80.65Zm-4.32-23.4a2.28,2.28,0,1,0,0,4.55h0a2.28,2.28,0,1,0,0-4.55Zm0,2.67a.5.5,0,0,1-.54-.4.57.57,0,1,1,.54.4ZM193.51,112l-.24-.08.24.08c1.2-3.56,1.37-8.91,1.38-12,0-1.45,0-2.4,0-2.4a1,1,0,0,0-.94-.92h-.08a.91.91,0,0,0-.86.94.09.09,0,0,0,0,.06c0,.2,0,1,0,2.31,0,3-.21,8.33-1.28,11.39a46.49,46.49,0,0,1-3.77,8.07c.37-.9.73-1.79,1.07-2.65,1.32-3.43,1.83-8.86,1.83-13.83,0-2.15-.11-4.21-.28-6a.94.94,0,0,0-.93-.84h-.12a.89.89,0,0,0-.69.43A.92.92,0,0,0,188,96h-.06a.93.93,0,0,0-.85.71h0V97s0,.58,0,1.53c0,0,0,.06,0,.11,0,2.53-.21,7.52-1.24,10.07a15.7,15.7,0,0,1-1.06,2.16,12.13,12.13,0,0,0,.79-3c.17-1.85.24-4.15.24-6.43,0-1.85,0-3.68-.14-5.21a.94.94,0,0,0-.93-.89h-.09a.93.93,0,0,0-.86.93.51.51,0,0,0,0,.09c.08,1.46.13,3.25.13,5.07,0,2.24-.07,4.51-.23,6.26-.21,2.79-3.94,9.28-6.51,13.37a1,1,0,0,0-.14.49.94.94,0,0,0,1.57.7c2-1.79,7.24-8.6,9-12.84,1.07-2.72,1.31-6.84,1.36-9.61,0,1,.08,2.11.07,3.22,0,0,0,0,0,.09,0,4.8-.54,10.12-1.68,13.05a78.59,78.59,0,0,1-6.76,13.71.93.93,0,0,0-.16.51,1,1,0,0,0,.37.75.93.93,0,0,0,.57.19A.94.94,0,0,0,182,131c.9-1,4.51-6.21,5.79-7.89A44.3,44.3,0,0,0,193.51,112ZM57.08,83h.12a.94.94,0,0,0,.93-.81,12.75,12.75,0,0,1,.64-2.84v0a13.38,13.38,0,0,1,.44,3.43v.17a.94.94,0,0,0,.94.93h0a.94.94,0,0,0,.93-.9h0v-.06c-.23-2.78-.07-5.09-1.92-5.88,0,0-.06,0-.07,0s-.13,0-.26,0h-.07c-2,.5-2,2.56-2.51,5a.78.78,0,0,0,0,.14A1,1,0,0,0,57.08,83Zm145,30.48-.24,0,.24,0a68.18,68.18,0,0,0,.4-8.61c0-3.16-.09-5.83-.09-5.83a.93.93,0,0,0-.94-.92h-.08a.88.88,0,0,0-.82.7h0v.25s.09,2.65.09,5.79a67.72,67.72,0,0,1-.38,8.33c-.73,4.95-3.67,12.82-6.13,15.69l-.73.88a42.92,42.92,0,0,0,3.16-7.57,60.2,60.2,0,0,0,1.71-15.46c0-2.46-.1-5.19-.3-8.24a.94.94,0,0,0-.94-.88h-.08a.92.92,0,0,0-.86.93.67.67,0,0,0,0,.1q.28,4.47.29,8.08a58.28,58.28,0,0,1-1.65,15c-1.14,4.41-5.59,11.75-8.05,17a6.9,6.9,0,0,0-.47,1,1,1,0,0,0,0,.29,1,1,0,0,0,.61.89,1.14,1.14,0,0,0,.33.06h0a1,1,0,0,0,.86-.56c.12-.29.26-.59.4-.89,1.22-2.21,4.87-6.67,7.19-9.39C198.4,126.62,201.23,118.8,202.07,113.46Zm29-9.42a1,1,0,0,0-.94-.94,1,1,0,0,0-.91.69h0V104a.5.5,0,0,0,0,.11c0,1.95-.13,29.69-2.61,37.57-2.6,8.44-6.15,16.1-8.1,18.87-.91,1.3-2.76,3.77-4.7,6.65,1.27-2.87,2.48-5.45,3.1-6.93,1.46-3.52,6.2-13.83,7.13-21.14.52-4.21.93-13.61.93-22.1,0-6-.2-11.59-.76-14.53a.93.93,0,0,0-.91-.77.71.71,0,0,0-.2,0,.92.92,0,0,0-.75.92.68.68,0,0,0,0,.19,97.2,97.2,0,0,1,.72,14.17c0,8.41-.42,17.83-.92,21.87-.84,6.81-5.51,17.11-7,20.65s-6.41,13.35-7.4,18.95v0s0,0,0,0a.55.55,0,0,0,0,.18.94.94,0,0,0,.73.91.86.86,0,0,0,.22,0,.93.93,0,0,0,.89-.67c1.66-5.57,8.39-14.44,10.47-17.39s5.68-10.76,8.36-19.39c1.37-4.46,2-14,2.37-22.42.16-4.22.24-8.17.29-11.06,0-1.45,0-2.63,0-3.45,0-.42,0-.74,0-1v-.25h0V104ZM219.59,121.5l-.24,0,.24,0a112,112,0,0,0,.49-11.22c0-4.68-.18-8.32-.18-8.33a1,1,0,0,0-1-.91h-.08a.91.91,0,0,0-.85.93.27.27,0,0,0,0,.1s.18,3.56.18,8.2c0,3.48-.11,7.53-.47,11-.86,8.08-4.13,19.62-6.08,23.19-.87,1.64-3,4.78-5.24,8.13,2.44-6.18,4.75-12,5.48-14.15,1-3,2.82-12.94,2.82-26.27,0-3.51-.13-7.26-.43-11.15a.94.94,0,0,0-.94-.87h-.09a.93.93,0,0,0-.85.93.66.66,0,0,0,0,.11c.29,3.81.43,7.51.43,11,0,13.11-1.85,23.07-2.73,25.68-1.07,3.23-6.08,15.42-9.38,24.21a10.8,10.8,0,0,0-.64,1.77.64.64,0,0,0,0,.2,1,1,0,0,0,.67.91.84.84,0,0,0,.27,0,1,1,0,0,0,.89-.62c.21-.56.42-1.15.65-1.75,2.15-4.54,8.9-13.83,10.76-17.25C215.48,141.32,218.68,129.89,219.59,121.5Zm-10.2.38-.24-.07.24.06a57.32,57.32,0,0,0,1.48-13.64c0-3.8-.26-6.79-.26-7.8a.94.94,0,0,0-1.88,0c0,1.21.26,4.06.26,7.8a55.81,55.81,0,0,1-1.42,13.19c-2.27,9.07-4.19,12.68-5.75,15.31-.44.77-1.36,2-2.44,3.51,1.4-3,2.69-5.63,3.33-7.12a56.46,56.46,0,0,0,3.14-13.3c0-.53.05-1.41.05-2.54,0-5.7-.35-17.75-.35-17.76a.94.94,0,0,0-.94-.93h-.07a.94.94,0,0,0-.86.93.09.09,0,0,0,0,.06c0,.69.34,12.2.34,17.69,0,1.12,0,2-.05,2.42a55.18,55.18,0,0,1-3,12.69c-1.26,3-5.51,11.24-7.63,17.09a7,7,0,0,0-.46,1.33,1.11,1.11,0,0,0,0,.19,1,1,0,0,0,.71.91l.24,0a.94.94,0,0,0,.89-.65.64.64,0,0,1,0-.07l-.17-.07.19,0v0c.11-.32.25-.7.39-1.09,1.51-3.3,6.84-9.94,8.31-12.36C205.06,135,207.1,131.05,209.39,121.88ZM69.71,69.29h0l0,0h0c-.59-.4-5.35-3.63-7.55-5.2l-.15.2.14-.2a5,5,0,0,1-2.36-3.69h0A3.35,3.35,0,0,1,60.86,58a4.6,4.6,0,0,0,1.53-3c-.11-2.14-2.18-3-4-3.31A31.68,31.68,0,0,0,53,51.27a63.54,63.54,0,0,0-13.66,1.44c-7.5,1.75-13.92,6.9-13.94,6.91a1,1,0,0,0-.37.75.71.71,0,0,0,0,.14,1,1,0,0,0,.58.73L63.1,76.31a.92.92,0,0,0,1-.24,64.27,64.27,0,0,1,5.65-5.25.93.93,0,0,0,.35-.72v0a1,1,0,0,0-.4-.74Zm-6.5,5-.35-.14a1.07,1.07,0,0,0,0-.25.92.92,0,0,0-.25-.64l0,0h0v0c-.65-.65-5.9-6-7.49-8s-3-3.77-3-4.71v0a.85.85,0,0,1,0-.15,2.14,2.14,0,0,1,1.47-1.62h.18a.94.94,0,0,0,.94-.93v-.09c-.34-2.36-2.87-3.46-5.09-3.5a4.82,4.82,0,0,0-2.85.83A7.14,7.14,0,0,0,44,60.65a4.57,4.57,0,0,0,1.65,3.73c1.63,1.27,7,4.72,11,7.3L38.05,64.2a1.7,1.7,0,0,0,.51.08,2.09,2.09,0,0,0,0-4.16v0a2,2,0,0,0-1.93,2.08,2.09,2.09,0,0,0,1.09,1.87l-9.83-3.95a37,37,0,0,1,11.88-5.58A61.44,61.44,0,0,1,53,53.16h.16a29,29,0,0,1,4.86.3c1.64.27,2.55,1,2.49,1.38v.09a3,3,0,0,1-1,1.71,5.26,5.26,0,0,0-1.63,3.67v0A6.79,6.79,0,0,0,61,65.59c1.74,1.23,5,3.45,6.63,4.57C66.59,71.07,64.84,72.62,63.21,74.32ZM53.58,66.4l.2-.16-.19.16c.5.65,1.29,1.54,2.18,2.5-3.67-2.36-7.73-5-9-6a2.72,2.72,0,0,1-.93-2.25v0a5.3,5.3,0,0,1,2-4,3,3,0,0,1,1.74-.48h.06a4.2,4.2,0,0,1,2.77,1,3.88,3.88,0,0,0-2.18,2.92,3,3,0,0,0,0,.41C50.27,62.66,52,64.27,53.58,66.4ZM38.52,62.2a.3.3,0,0,1,0-.17.24.24,0,0,1,.06.18.22.22,0,0,1-.06.16A.3.3,0,0,1,38.52,62.2Zm-27.4,37.87.1-.23-.07.24a1.7,1.7,0,0,0,.51.08c3.3-.57,6.49-7.84,10-17.42.77-2.27,1.4-4.45,1.94-6.5a2,2,0,0,0,0-.23,1,1,0,0,0-.71-.92.85.85,0,0,0-.23,0,.94.94,0,0,0-.91.71c-.52,2-1.14,4.14-1.89,6.37a79.77,79.77,0,0,1-5,11.79,18.33,18.33,0,0,1-2.11,3.29,7.35,7.35,0,0,1-.79.83,1.91,1.91,0,0,1-.22.17s0-.08,0-.14a5.75,5.75,0,0,1-.17-1.58v0c0-3.16,1.27-9.26,3.53-15.94.71-2.11,1.46-4.08,2.22-5.92a1,1,0,0,0,.06-.35.93.93,0,0,0-.58-.87.89.89,0,0,0-.36-.07.91.91,0,0,0-.86.59c-.77,1.86-1.53,3.86-2.26,6-2.3,6.85-3.62,13-3.63,16.57C9.72,98.05,9.77,99.44,11.12,100.07Zm12.55,59.52c-1.48-3.54-6.16-13.84-7-20.65-.51-4-.93-13.46-.93-21.86,0-6,.21-11.54.73-14.19a.62.62,0,0,0,0-.18.94.94,0,0,0-.76-.93h-.18a.94.94,0,0,0-.93.76,95.78,95.78,0,0,0-.76,14.54c0,8.49.42,17.89.94,22.1.92,7.31,5.67,17.62,7.13,21.14.62,1.49,1.84,4.08,3.11,7-1.94-2.89-3.8-5.38-4.71-6.68-1.95-2.77-5.5-10.43-8.11-18.87-1.28-4.07-1.94-13.51-2.27-21.9-.16-4.19-.25-8.14-.29-11,0-1.45,0-2.63,0-3.46,0-.41,0-.73,0-1v-.25c0-.08,0,0,0-.09a1,1,0,0,0-.94-.94.93.93,0,0,0-.9.69H7.65l.09.3c0,1,0,29.46,2.69,38.19s6.2,16.27,8.36,19.38c2.09,3,8.82,11.82,10.47,17.39a.94.94,0,0,0,.9.67l.22,0a.94.94,0,0,0,.72-.92.76.76,0,0,0,0-.15C30.14,173.05,25.12,163.08,23.67,159.59ZM32.13,78.7h0c-.22,1-.42,2-.61,3.07a57.86,57.86,0,0,0-.93,9.39c.15,2.53-.07,4.42,1.72,5.19a1.16,1.16,0,0,0,.28,0c1.78-.35,2.23-2,3.17-4.31a58.18,58.18,0,0,0,2.3-9.18c.15-.9.29-1.77.4-2.63a.49.49,0,0,0,0-.12.93.93,0,0,0-.81-.93h-.13a.94.94,0,0,0-.93.81c-.12.83-.24,1.68-.4,2.56A56.58,56.58,0,0,1,34,91.43,14.13,14.13,0,0,1,32.87,94l-.13.2a13,13,0,0,1-.27-2.85v-.14a55.82,55.82,0,0,1,.91-9.08c.18-1,.38-2,.59-3a.71.71,0,0,0,0-.2.94.94,0,0,0-.74-.92l-.2,0A.94.94,0,0,0,32.13,78.7Zm5.94,83.36c-3.29-8.78-8.29-20.95-9.37-24.18-.87-2.61-2.73-12.57-2.73-25.67,0-3.48.13-7.17.44-11a.22.22,0,0,0,0-.08.93.93,0,0,0-.87-.93h-.08a.93.93,0,0,0-.93.87c-.32,3.89-.45,7.63-.45,11.16,0,13.31,1.84,23.27,2.83,26.26.72,2.19,3,8,5.48,14.15-2.21-3.35-4.36-6.48-5.24-8.13-1.94-3.57-5.22-15.12-6.07-23.19a109.72,109.72,0,0,1-.48-11c0-4.64.19-8.24.19-8.27v0a.94.94,0,0,0-.89-.94h-.05a.94.94,0,0,0-.94.89s-.19,3.67-.19,8.36a111.64,111.64,0,0,0,.49,11.21c.91,8.39,4.11,19.81,6.28,23.89,1.88,3.44,8.71,12.82,10.82,17.36.21.55.41,1.11.61,1.64a1,1,0,0,0,.89.62.75.75,0,0,0,.26,0,1,1,0,0,0,.67-.91.58.58,0,0,0,0-.19A10.47,10.47,0,0,0,38.07,162.06Zm17.1-54.38-.25,0,.25,0c-.17-1.76-.24-4-.24-6.26,0-1.82,0-3.61.14-5.1v0a.94.94,0,0,0-.88-1h-.06a.94.94,0,0,0-.94.88c-.09,1.54-.14,3.37-.14,5.22,0,2.27.08,4.58.24,6.43a12.59,12.59,0,0,0,.79,3,17.36,17.36,0,0,1-1-2.15c-1-2.52-1.26-7.37-1.25-9.94v-.24c0-1,0-1.53,0-1.53v0a.94.94,0,0,0-.9-.94h0a.93.93,0,0,0-.89.64.93.93,0,0,0-.7-.44h-.1a.93.93,0,0,0-.93.84,56.69,56.69,0,0,0-.29,6c0,5,.51,10.4,1.84,13.81.33.86.69,1.75,1.06,2.64a45.85,45.85,0,0,1-3.77-8C46,108.36,45.8,103.06,45.81,100c0-1.42,0-2.33,0-2.34v0a.94.94,0,0,0-.9-1H44.9a.94.94,0,0,0-.93.9s0,1,0,2.42c0,3.12.16,8.46,1.38,12A44.64,44.64,0,0,0,51,123.11c1.28,1.66,4.89,6.87,5.8,7.89a.93.93,0,0,0,.69.31h0a1,1,0,0,0,.94-.94,1,1,0,0,0-.15-.52,76.48,76.48,0,0,1-6.75-13.71c-1.17-2.94-1.71-8.31-1.71-13.12,0-1.1,0-2.18.08-3.19.05,2.77.3,6.87,1.36,9.57,1.73,4.24,7,11.06,9,12.84a1,1,0,0,0,1.23,0,1,1,0,0,0,.33-.73.87.87,0,0,0-.14-.49C59.1,117,55.37,110.47,55.17,107.68Zm-9.69,41.79c-2.12-5.84-6.38-14.1-7.64-17.08a55.06,55.06,0,0,1-3-12.69c0-.43-.05-1.31-.05-2.43,0-5.66.35-17.68.35-17.72h0a1,1,0,0,0-.92-1h0a.93.93,0,0,0-.94.92s-.35,12-.35,17.76c0,1.14,0,2,.05,2.56a56.43,56.43,0,0,0,3.15,13.29c.63,1.49,1.93,4.14,3.33,7.12-1.09-1.48-2-2.74-2.45-3.51-1.55-2.63-3.47-6.25-5.75-15.31a55.48,55.48,0,0,1-1.42-13.2c0-3.73.26-6.58.26-7.79a.94.94,0,0,0-1.88,0c0,1-.26,4-.26,7.79a56.89,56.89,0,0,0,1.48,13.65c2.29,9.18,4.33,13.09,5.95,15.82,1.47,2.42,6.72,9,8.29,12.3.16.43.31.88.45,1.3a1,1,0,0,0,.9.65l.23,0A1,1,0,0,0,46,151a.88.88,0,0,0,0-.17A7.61,7.61,0,0,0,45.48,149.47Zm12.7-57.63h.07a.32.32,0,0,0,.13,0c2-.54,2-2.7,2.53-5.3a.62.62,0,0,0,0-.12.94.94,0,0,0-.83-.94H60a.94.94,0,0,0-.94.82,14,14,0,0,1-.65,3,.61.61,0,0,1,0,.12,14.24,14.24,0,0,1-.43-3.54v-.32a1,1,0,0,0-.93-.95h0a.93.93,0,0,0-.91.93h.25l-.25,0C56.25,88.62,56.05,91.13,58.18,91.84Zm1.65,9.23v0l-.25,0h.25V95.17a.94.94,0,0,0-1.88,0V101a11.46,11.46,0,0,0,.7,3.6l-.17-.25C57.31,102.71,57,98.51,57,96.84a1.41,1.41,0,0,1,0-.21v-.56a1,1,0,0,0-.9-.95h0a1,1,0,0,0-.95.91v.6c0,1.64,0,6.15,1.74,8.78A54.16,54.16,0,0,0,63.5,113a1,1,0,0,0,.65.26,1,1,0,0,0,.63-.24,1,1,0,0,0,.31-.71.94.94,0,0,0-.2-.57C62.28,108.41,59.82,103.88,59.83,101.07Zm-7.22,38.54v0c-.09-.23-.21-.49-.35-.78-2.44-5.2-7-12.64-8.12-17.1a58,58,0,0,1-1.66-15c0-2.41.09-5.1.3-8.11v-.06a.93.93,0,0,0-.87-.94h-.07a.94.94,0,0,0-.93.88c-.22,3-.31,5.78-.31,8.24a60.17,60.17,0,0,0,1.72,15.46,41.81,41.81,0,0,0,3.16,7.56l-.73-.87c-2.47-2.87-5.4-10.74-6.14-15.69a67.2,67.2,0,0,1-.38-8.3c0-3.15.09-5.8.09-5.82v0a.93.93,0,0,0-.91-.94h0a.94.94,0,0,0-.93.91h0s-.09,2.7-.09,5.87a69.6,69.6,0,0,0,.4,8.58c.84,5.34,3.67,13.16,6.56,16.63a84.29,84.29,0,0,1,7.18,9.37l.41.9a.93.93,0,0,0,.86.57h0a.85.85,0,0,0,.33-.07,1,1,0,0,0,.59-.88v0h.07Z"/><path class="cls-1" d="M64.88,86.34c1.44-6.33,4.6-11.23,8.63-14,3.31-2.25,1.44-2.74-1.44-.44A27.24,27.24,0,0,0,62,90.8c-.37,3.41-.14,6.25,2.62,12.72.47-1.36.95-2.72,1.51-4A22.72,22.72,0,0,1,64.88,86.34Z"/><path class="cls-1" d="M176.83,90.8a27.28,27.28,0,0,0-10.08-18.86c-2.88-2.3-4.75-1.81-1.44.44,4,2.73,7.2,7.63,8.64,14a22.84,22.84,0,0,1-1.53,13.76c.56,1.33,1.05,2.71,1.51,4.09C177,97.22,177.2,94.33,176.83,90.8Z"/><path class="cls-2" d="M44.2,172.49c.1,0,.4-.2.24-.76l-.06-.25a4.28,4.28,0,0,1-.17-.7,1.26,1.26,0,0,1,.38.14,1.68,1.68,0,0,0,1.8,0,1,1,0,0,0,.17-1.08,4.23,4.23,0,0,0-.33-.7,1.38,1.38,0,0,1-.16-.37s.13-.13.88-.24c1.76-.24,2.22-.36,2.4-1.83.08-.67.08-1.5-.37-1.68s-.79.4-.91.58l0,0A2.61,2.61,0,0,1,45.53,167a3.85,3.85,0,0,0-3.18,1.75,2.17,2.17,0,0,0-.16,2.07C42.77,172.06,43.71,172.68,44.2,172.49Zm.27-3.51,0,.18-.28,0Zm63,51.87h0Zm102.72-64.24a2.53,2.53,0,0,1-1-.54,2.78,2.78,0,0,0-2.12-.68,1.23,1.23,0,0,0-1.16.57c-.35.62-.13,1.69.68,3.26a2.26,2.26,0,0,1,.28.8,21.46,21.46,0,0,1-2.44-.71,1.26,1.26,0,0,0-1.35.11c-.87.71-.93,2.79-.77,4.73-2.2.21-3.93,1.93-5.17,3.27a3.57,3.57,0,0,0-.64-2.26,2.07,2.07,0,0,0-1.66-.37,5.88,5.88,0,0,0-2.5,1,5.17,5.17,0,0,0-.19-1.38,1.19,1.19,0,0,0-.94-.69,2.46,2.46,0,0,0-2.31.75,1.21,1.21,0,0,0-.29,1.24,3.6,3.6,0,0,0,1.95,1.86,4.27,4.27,0,0,0-.3.44,2,2,0,0,0-.28,1.81c.4,1,1.87,1.71,3.39,2.17-1.82,2-4,3.7-6.48,3.2-.42-.45-3-2.93-7.78-1.47l-.51.14c-4.75,1.44-8.5,2.57-10.13,7.49a9.77,9.77,0,0,1-1.46,2.9c-1.08,1.56-1.93,2.8-2.25,12a36.1,36.1,0,0,0-6.42,3.14,3.9,3.9,0,0,1-1.49.38,5.31,5.31,0,0,0-4.2,2.49,2.33,2.33,0,0,1-2.17.67,2.53,2.53,0,0,0-2.31.71,4.15,4.15,0,0,1-1.72.55c.27-.81,1.13-3,3-3.61s6.3-2.31,8.07-4.9c0,0,0,0,0-.05a7.6,7.6,0,0,1,2.32-3c.95-.83,1.76-1.54,1.09-2.95a4.89,4.89,0,0,1,.24-3.36c.33-1.14.67-2.3,0-3,.8-.3,2.48-1,3-1.93a1.06,1.06,0,0,0,.08-.85,5.44,5.44,0,0,1,.11-1.94c.2-1.24.4-2.53-.23-3.25a1.59,1.59,0,0,0-1.28-.47,2.43,2.43,0,0,0-1.54-1.32,2.37,2.37,0,0,0-2.11,1,2.58,2.58,0,0,0-2.21.16,2,2,0,0,0-.54,1.86L155,179c-.56-.11-2.27-.19-5.26,2l-1.21.87c-3,2.13-5.3,3.81-5.89,7.58A27.12,27.12,0,0,1,142,193a5.75,5.75,0,0,0-.69-.42,23.44,23.44,0,0,0-2.3-1,7.9,7.9,0,0,1-3.4-2c-1.68-2.06-3.94-2.09-6.7-.1-3.15,2.26-5.66,2-9.19.75-.59-.21-1.28-.44-2-.68-3.78-1.26-9-3-10.88-5.53-.37-.49-.71-1-1-1.42-1.72-2.42-3.08-4.33-6.44-4.26a4.88,4.88,0,0,0-4.81,1.07l0,.07a.35.35,0,0,1-.21.14c-.14,0-.3-.07-.49-.24-.84-.78-1.56-.94-3.14.34a14.71,14.71,0,0,0-3.6,4.53.71.71,0,0,1-.32-.32c-1.38-2.88-2.87-4.57-4.3-4.89-1.2-.26-2.18-1.35-3.23-2.5a16.51,16.51,0,0,0-2-2,2.19,2.19,0,0,0-1.74-.59c-1.07.18-1.84,1.33-2.66,2.56l-.24.37a22.9,22.9,0,0,1-3.8,3.84c-.56.48-1.09.93-1.54,1.36l-.1.11a3,3,0,0,1-1.3-1.29,20.58,20.58,0,0,0-3.61-5.37,4.58,4.58,0,0,0-.87-3.67c1,0,1.68-.7,2.27-2.08a1.6,1.6,0,0,0,0-1.55c-.44-.68-1.55-1-3.42-1-1.49,0-2.8,1.39-3.45,2.21a8.94,8.94,0,0,0-3.18.76,1.78,1.78,0,0,0-.61-1.77c-2.18-1.7-5.33,1.73-6.83,3.38a3.82,3.82,0,0,0-1,3.33s0,0,0,0a1.68,1.68,0,0,1-.27.09c-.07,0-.28,0-.47-.07a11.13,11.13,0,0,0-1.94-.26c-.38-1.34-1.32-3.73-3.14-3.58a4.85,4.85,0,0,0-.77.14,3.27,3.27,0,0,0,0-.54,2.31,2.31,0,0,0-.74-1.57,2.16,2.16,0,0,0-1.6-.59A2.24,2.24,0,0,0,34,171.18a2.28,2.28,0,0,0,.73,1.57,2,2,0,0,0,.42.31,2.8,2.8,0,0,0-.92,1.26,1.65,1.65,0,0,0,.61,1.83c.65.58,1.45,1.26,2.37,2a9.27,9.27,0,0,0-.44,2.23.8.8,0,0,0,0,.11c-.39.19-1.15.62-1.12,1.34a2.32,2.32,0,0,0,1.1,1.47,18.92,18.92,0,0,0,.36,3.27c-.26.43-.51,1-.1,1.36a4.22,4.22,0,0,0,.76.44,2.4,2.4,0,0,0,.37.45c.52.49,1,1,1.42,1.47l.3.32c-.12.69-.18,1.79.54,1.95a4,4,0,0,0,1.54,0,8.34,8.34,0,0,0,1.34.86c.59.34,1.21.71,1.83,1.11,0,.67.09,1.77.81,1.6l1.16-.28c1.66,1.2,3,2.33,3,2.69-.5.78-2.47,3-3.36,3.09a1.09,1.09,0,0,0-.9.55,3.72,3.72,0,0,0,.15,3.06c-.43.42-1.67,1.73-1.13,2.7a4.39,4.39,0,0,0,.76.89c.36.35.76.75.72,1s-.23.3-.57.46c-1.07.46-2.52,1.24-2.81,2.59-.2,1,.24,2,1.3,3.24a.94.94,0,0,1,.1.1l-.55.75s-2,.59-1.22,2.11,3.31,1.5,2.71-.92l.55-.68a3.69,3.69,0,0,0,3.36.55,2.94,2.94,0,0,0,1.67-2.84,22.21,22.21,0,0,0,8.93,1.38,1.9,1.9,0,0,0,1.84.55,1.6,1.6,0,0,0,.93-1.06,39.23,39.23,0,0,0,4.63-.3,1.47,1.47,0,0,0,1.45.61c.75-.09.84-.61.76-1.09a3.38,3.38,0,0,0,1-.46c.69-.5,2.62-.88,5.47-1.08.09.16.17.32.27.47a12.43,12.43,0,0,0,1.74,2.26c.17.16.17.16.11.48a1.62,1.62,0,0,0,.16,1.31,2,2,0,0,0,1.55.6h.06c1.54.12,2.56.2,3.36,1.35l.1.15c.39.58.67,1,1.14,1.08s1-.17,2-.92a3.32,3.32,0,0,1,3.63-.08c.18.29,1,1.5,1.88,1.36.54-.09.93-.63,1.19-1.65a3,3,0,0,1,1.47-.37,6.92,6.92,0,0,0,3.57-1.15s3.48-2.61,5.53-3.9a5.61,5.61,0,0,1,.66,1.83c.41,1.91-7.22,6-4,10.76.42.6.79.39.79.39a2.92,2.92,0,0,1,.23-2.79c.8-1,5,.07,7.09-2.76a4.11,4.11,0,0,0,3.78,2.86.25.25,0,0,0,.24-.21l.63-7.29a3.83,3.83,0,0,0,1.73,1.92,2.93,2.93,0,0,0,2.08.18c2.39,3.49,5.22,2.4,5.61,2.22,1.32-.07,2-.34,2.1-.84.05-.21.18-.87-2.18-2.13-.26-.14-.34-.28-.33-.35s.18-.23.47-.29c.89-.18,2.82.31,4.53,3.26a5.58,5.58,0,0,0,6.69,2.6.21.21,0,0,0,.15-.23.22.22,0,0,0-.15-.21,2.63,2.63,0,0,1-1.54-2.12c2.66,1.9,5.09,2.67,7.23,2.26a5.43,5.43,0,0,0,3.54-2.22.24.24,0,0,0,0-.27.22.22,0,0,0-.25-.08c-2.69.88-3.95-.13-5.33-1.58,1.16-.27,3-1.29,5.2-4.64a13.92,13.92,0,0,1,7.59-.37l1.22.35c4.43,1.27,13.63,3.93,19.44-1.26,3.86-3.44,4.74-5.57,4.79-6.75a2.08,2.08,0,0,0-.07-.67,11.69,11.69,0,0,0,1.34.11.14.14,0,0,0,.11,0,27,27,0,0,1,4.72,1c.31.09.67.22,1.09.36-.31.5-.91,1.66,0,2.07,1.2.52,3.94-1.41,4,.25s1.44,1.34,3.73.18c0,0,1.12-.34,1.28.32a1.47,1.47,0,0,0,1.68,1.16c.43-.09,1-.87,1.6-1.52a14,14,0,0,0,2.35-.36c.82.56,1.52.7,2,.23a2,2,0,0,0,.45-1.22,5.27,5.27,0,0,0,2.22-2.45,6,6,0,0,0,.19-3.73,3.52,3.52,0,0,0,.8-1.81c.12-1.16-1.1-.91-2-2.07a7.69,7.69,0,0,0-1.34-1.69,3.49,3.49,0,0,1-.47-1.46c-.23-1.75-2-2.32-2.23-.28-4.35-1.9-10.17-1.32-14-.15-1.1.32-2.2.72-3.27,1.11-3.36,1.21-6.52,2.36-8.14.8.12-.56.94-3.18,5.64-5.18,3.4-1.45,11.36-5.34,12.6-10.61,1.65,0,13.38-.08,16-4.36,2.34-3.8,4.38-7.15,1.73-10.21a12.38,12.38,0,0,0,2.51-3,2.07,2.07,0,0,0,.29-1.84,2.3,2.3,0,0,0-1.33-1.12c.16-.33.63-.8,1.85-1.13,1-.26,1.09-.8,1.09-1.09C212.13,157.69,211.11,156.84,210.21,156.61Zm-19.91,8.84a.78.78,0,0,1,.4-.12c0,.14,0,.31,0,.48A3.71,3.71,0,0,1,190.3,165.45Zm1.18,3.8a.76.76,0,0,1,.14-.33,4.7,4.7,0,0,1,3.77-2.51,6.59,6.59,0,0,1,.13,2.19,2.85,2.85,0,0,0,0,.77c-.31.4-.64.82-1,1.25C192.14,170,191.58,169.49,191.48,169.25Zm-48.54,26.14a1.68,1.68,0,0,0,.08-.9c.44-.68.81-2,1.24-4.73.48-3.07,2.37-4.43,5.22-6.48l1.23-.88c2.72-2,4-1.75,4-1.74h0l.27.06c-.16.43-.38,1.33.59,1.23,1.27-.11,2.26-1,1-2.44.42-.79,1.21-2.22,1.21-2.22a1.45,1.45,0,0,0,.16-.87,1.52,1.52,0,0,1,0-.42,2.19,2.19,0,0,1,.75.12,1.33,1.33,0,0,0,1.47-.35c.44-.48.71-.58.78-.58a1.17,1.17,0,0,1,.41.5,1.39,1.39,0,0,0,1.32.83h.17a7.81,7.81,0,0,1-.17,1.82,7.75,7.75,0,0,0-.12,2.38,7.34,7.34,0,0,1-2.31,1.16,1.39,1.39,0,0,0-1,1.2,1.44,1.44,0,0,0,.64,1.35,6.32,6.32,0,0,1-.33,1.42c-.38,1.32-.87,3-.13,4.54.12.27.12.27-.69,1a9.3,9.3,0,0,0-2.68,3.43c-1.07,1.49-3.75,3.07-7.18,4.2-3.14,1-4.09,4.93-4.14,5.09a1.52,1.52,0,0,0,.09.92c-1.3.5-4.38,1.46-5.14-.5a4.39,4.39,0,0,0,1.79-2.9C142.28,198.23,142.89,195.61,142.94,195.39ZM88.46,184.94l.06-.05a.25.25,0,0,0,.1-.21v-.12a14,14,0,0,1,3-3.58,3.21,3.21,0,0,1,.84-.54.91.91,0,0,1,.19.16,2.11,2.11,0,0,0,1.82.64,1.93,1.93,0,0,0,1.11-.61,3.29,3.29,0,0,1,3.15-.75,1.35,1.35,0,0,0,.55.11c2.56-.07,3.48,1.22,5.15,3.57.31.44.67.95,1.07,1.47,1.75,2.31,5.47,3.92,8.92,5.14a.59.59,0,0,0-.08.08s-.57.46.06,1.22,2.27,2.72,2.47,2.17-.43-2.21-.77-2.89c.35.13.71.24,1,.35.68.23,1.39.46,2,.68,3.94,1.41,6.95,1.7,10.63-1,2.61-1.87,3.76-1.14,4.54-.18a9.2,9.2,0,0,0,4.07,2.46,23.43,23.43,0,0,1,2.16.93c.73.38.89.71.89.78a.08.08,0,0,1,0,0s0,0,0,0a1.27,1.27,0,0,0-.06.18s-.63,2.69-1.4,6.26c-.42,1.92-1.56,2.2-2.06,2.22-6.21-2.25-9.83,1-12.24,3.1-.91.8-1.83,1.62-2.4,1.66a1.76,1.76,0,0,1-1.28-.37c-.09-.13-.19-.25-.29-.38-.23-.3-.46-.61-.71-.92s-.31-.55-.5-.87a19.15,19.15,0,0,0-1.72-2.72c-1.72-2.19-7.13-5-10.14-6.43a4.79,4.79,0,0,0-2.31-1.31,18.13,18.13,0,0,0-4.93-3.39,16.11,16.11,0,0,1-5.24-3.53A4.31,4.31,0,0,0,94,187.22c-.19-.95-.54-2.36-1-2.33s-.94,1.42-1.1,2.11a5.79,5.79,0,0,1-3.36-1.23.32.32,0,0,1-.17-.28A1.52,1.52,0,0,1,88.46,184.94Zm20.31,17.42a3.41,3.41,0,0,0,1.14-3.1c0-.1,0-.19,0-.28,2.86,1.45,6.46,3.49,7.66,5l0,.06a5.75,5.75,0,0,0-3.43.33c-4.15,1.56-5.52,1-8,.09-.52-.21-1.11-.43-1.78-.66-1.06-.35-1.53-1-1.37-1.85.19-1,1.14-1.86,1.51-1.83,0,0,1.06.42.7,2.38C105.05,203.3,107.73,203.18,108.77,202.36ZM68.26,183.29c.42-.4.93-.85,1.48-1.33a23.16,23.16,0,0,0,4.08-4.15l.25-.37c.45-.68,1.2-1.8,1.58-1.87a1,1,0,0,1,.51.26A18.26,18.26,0,0,1,78,177.64c1.16,1.3,2.36,2.64,4.08,3,.23,0,1.5.49,3.18,4a2.35,2.35,0,0,0,1.54,1.27,2,2,0,0,0,.75,1.17,7.58,7.58,0,0,0,4.78,1.6,4.18,4.18,0,0,1,2.77.84,17.62,17.62,0,0,0,5.8,3.86,11.1,11.1,0,0,1,2.77,1.72c-3.18.5-5.61,3.36-6.33,7.69,0,.06,0,.12,0,.18-1.18-.38-2.82-.88-4.54-1.31a3.62,3.62,0,0,0-.46-1.56c-.55-1.26-2.4-2.67-2-1.39a4.68,4.68,0,0,1,.16,1.45,1.91,1.91,0,0,0,.2,1,20.85,20.85,0,0,0-3.59-.47,2.1,2.1,0,0,0-.48-1c-.74-.92-.94-.74-1-.28a2.12,2.12,0,0,0,.08,1.35,13.52,13.52,0,0,0-4.52,1.49,3.84,3.84,0,0,0-.24-1.73c-.24-.81-.41-1.68-.7-1.08a2.74,2.74,0,0,0-.55,2c.12.75.37,1.16.7,1.28a9.53,9.53,0,0,0-3.27,2.83l-.06.12a7,7,0,0,1-2.92-1.15,42.4,42.4,0,0,1-3.61-3.06c.13-.82.29-2.29,0-2.63s-1.07.15-1.38,1.29c-.6-.57-1.12-1.06-1.44-1.33a6.06,6.06,0,0,0-.77-.52c0-.66,0-1.67-.38-1.76s-.71.57-.81,1.17a13.91,13.91,0,0,0-3.12-.93l-.16,0-.49-.07c.18-.67.41-1.69.09-1.62s-1,.78-1.44,1.46a5.44,5.44,0,0,0-3,.41,19.47,19.47,0,0,0,.23-4.31l.17-.14C60.06,190.63,66.92,184.56,68.26,183.29Zm-7-4.57c.15-.38.29-.79.42-1.21a15.78,15.78,0,0,1,2.55,4,4.14,4.14,0,0,0,1.56,1.81c-2.39,2.15-6.84,6.08-8.58,7.64-1-1.88-2.11-4-3.06-5.6a28.86,28.86,0,0,0,3.9-4.63A3.09,3.09,0,0,0,61.29,178.72Zm-8,5.21c-.06-.1-.13-.19-.19-.28-.55-.75-1.4-1.8-2.22-2.82s-1.83-2.29-2.25-2.91c3-1.65,6.17-2.61,7.06-2.16l.05,0c1,.54,1.8,1,1.9,1.58S57.46,179.7,53.29,183.93Zm6.86-15a5.71,5.71,0,0,1,1.93.2c-.55,1.27-.73,1.34-2,.81-.39-.17-.78-.32-1.16-.46A2.05,2.05,0,0,1,60.15,168.91Zm-7.4,3.43.67-.3c3.75-1.7,4.66-.89,6.47.72,1,.87,1,2.58-.1,5.36A1.33,1.33,0,0,1,59,179a3.84,3.84,0,0,0,.26-1.85c-.23-1.51-1.64-2.23-2.78-2.81l-.06,0c-1.11-.57-3-.17-4.76.48a12.62,12.62,0,0,1,.75-1.66C52.5,172.86,52.63,172.6,52.75,172.34Zm-5.52.62c3.17-3.47,4.3-3.51,4.69-3.21.08.15,0,.72-1,2.59a6.52,6.52,0,0,0-1,3.12c-.81.35-1.52.72-2,1a5.24,5.24,0,0,0-.58-.91,1.82,1.82,0,0,0-.72-.54A2.17,2.17,0,0,1,47.23,173Zm-11.45-2.31a.68.68,0,0,1,.42-.21.65.65,0,0,1,.44.16.67.67,0,0,1,.2.44.62.62,0,0,1-.58.65.54.54,0,0,1-.43-.16.58.58,0,0,1-.2-.43A.6.6,0,0,1,35.78,170.65Zm2.22,6c-.81-.65-1.51-1.25-2.09-1.77l-.11-.12A5.56,5.56,0,0,1,39.32,173c.4,0,1,.88,1.35,2.06A4.2,4.2,0,0,0,38,176.67ZM75.36,212.1c-3,.24-5,.68-5.93,1.35s-4.46,1-7.32.94a1.86,1.86,0,0,0-.47.09c-4.23,1.51-10.47-.93-10.53-1a1.33,1.33,0,0,0-1.29.17,1.39,1.39,0,0,0-.59,1.18c0,.5-.06,1.36-.67,1.62s-1.91-.09-3.17-1.5a2.72,2.72,0,0,1-.91-1.77c.07-.31.45-.8,1.88-1.42a2.33,2.33,0,0,0,1.51-1.69,2.92,2.92,0,0,0-1.19-2.5c-.1-.09-.22-.22-.32-.33a4.17,4.17,0,0,1,.76-.94,1.42,1.42,0,0,0,.35-1.64,3.32,3.32,0,0,1-.33-1.52c2-.48,4.25-3.77,4.27-3.8a1.68,1.68,0,0,0,.19-1.32c-.55-2.12-7.49-6.08-7.56-6.12a12.07,12.07,0,0,1-3.31-2.78c-.46-.5-.94-1-1.51-1.55s-1-4-.83-7.11a4.47,4.47,0,0,1,1.35-3.29c1.25-1,3.26-.59,4.21-.39a2.35,2.35,0,0,0,1.16.06,2.38,2.38,0,0,0,.47-.17,1.94,1.94,0,0,1,.5-.16v0a2.17,2.17,0,0,1,.48.83,6.69,6.69,0,0,0,.58,1.2,39.67,39.67,0,0,0,2.5,3.28c.8,1,1.64,2,2.16,2.76a80.15,80.15,0,0,1,4.3,7.62c.27.52.16,2.92-.22,5.05a1.42,1.42,0,0,0,.09.79c-.23.91-.46,2.16,0,2.42s1.28.08,1.92-1.69a1.25,1.25,0,0,0,.55-.52h0s.42-.46,3.77.06l.17,0a11.09,11.09,0,0,1,4.29,1.69c.32.27.89.82,1.57,1.45a54.17,54.17,0,0,0,5,4.36,8.42,8.42,0,0,0,3.06,1.33A9.72,9.72,0,0,0,75.36,212.1Zm21.85,5.13a5.27,5.27,0,0,1-2.8.9,4.36,4.36,0,0,0-2.31.67,1.42,1.42,0,0,0-.59.84.5.5,0,0,1,0,.13l-.17-.26a1.56,1.56,0,0,0-.42-.43,4.93,4.93,0,0,0-5.47.1,6.32,6.32,0,0,1-.74.48c-.06-.07-.12-.17-.18-.25l-.1-.15c-1.23-1.78-2.91-1.92-4.55-2.06h0l-.25,0a1.85,1.85,0,0,0-.59-1.91,10.87,10.87,0,0,1-1.51-2c-1.43-2.21.47-5.77,1.09-6.93s4.43-3.85,8.06-4c3-.11,8.34,1.54,10.69,2.32.48,4.17,4.33,7.79,4.53,8,0,0,.35.3.78.76C100.59,214.71,97.62,216.93,97.21,217.23Zm17.56-1.08a8.63,8.63,0,0,0-5.66-5.27c-4.84-1.52-6.67-3.08-7.54-6.45a.22.22,0,0,0-.13-.15c-.08,0-.85-.37-1.3,0-.26.23-.33.63-.2,1.21a8.87,8.87,0,0,0,4.59,5.31c.63.27,1.3.53,1.94.78,2.42.93,4.72,1.83,5.76,3.72a1.4,1.4,0,0,0-.67,1.08L111,223a2.25,2.25,0,0,1-1.11-1.76,1.4,1.4,0,0,0-.21-.57,18.84,18.84,0,0,0,.4-4.92c-.1-.56-.31-.91-.65-1a1,1,0,0,0-1,.34c-.07.06,1.1,5.69-2.24,7.09a26.37,26.37,0,0,1-3.33.76,13.06,13.06,0,0,0-1.61.63c.23-2.89,4.83-4,4.67-7-.14-2.47-2.54-4.66-3-5.08-.15-.14-3.16-3-3.86-6.24a.25.25,0,0,0,0-.22c-.07-.26-.13-.53-.2-.79a5.08,5.08,0,0,1,.06-1.1c.55-3.34,2.63-7,6.68-6.32a6.55,6.55,0,0,1,2.08,1.14,3.76,3.76,0,0,1,.76,1.56c.27,1.6-1.92,2.21-2,2.18s-.13-3.23-1.85-3.14a4,4,0,0,0-3.2,3.16,3.22,3.22,0,0,0,2.46,3.75c.63.2,1.18.42,1.71.62a19.21,19.21,0,0,0,2.54.83h-.25a.21.21,0,0,0-.21.18,1,1,0,0,0,.19.78,3.47,3.47,0,0,0,2.58,1c2.8.24,5.71.86,5.85,3.72A3.86,3.86,0,0,1,114.77,216.15Zm2.24.4a6.13,6.13,0,0,0,1-4c-.21-3.95-2.74-5.33-6.69-5.64a17.62,17.62,0,0,0,3.38-1c2.48-.93,3.74,0,5,1.53a6.55,6.55,0,0,0,1.16,1.52c1,1.27,2.06,2.45,3.69,2.56a2.89,2.89,0,0,1,1.3.29,2.17,2.17,0,0,1-.09.4c0,.07,0,.13,0,.19s0,.17,0,.24a6.37,6.37,0,0,1-5.75.62.21.21,0,0,0-.19,0c-.06.05-.58.46-.2,1.75a1,1,0,0,1,0,.79c-.21.33-.89.45-1.58.54Zm1.18,2.1a4,4,0,0,0,2.39-.71c0,.12-.06.23-.08.34a2,2,0,0,0,1.17,2.05l.09,0C121.38,220.52,119.77,221,118.19,218.65Zm19.69,3.57a10.48,10.48,0,0,1-5.13-2.34,1.35,1.35,0,0,0-1.47-.1,1.39,1.39,0,0,0-.71,1.31,5.19,5.19,0,0,0,.3,1.52,4,4,0,0,1-2.4-2c-2-3.5-4.61-4.36-6.22-4a2.32,2.32,0,0,0-.83.32,4.28,4.28,0,0,0,.42-1.58c.77.07,3.15.19,4.29-1.07a1.06,1.06,0,0,0,.42.22,1.09,1.09,0,0,0,.42.06c1.4.69,5.94,2.93,7.71,4.57.42.39.8.8,1.18,1.21A13.48,13.48,0,0,0,137.88,222.22Zm2.85-11.85c.19,1.09.31,2.87.37,4-2.7,4-4.47,3.68-4.5,3.69h0l-.12,0-.75-.14a25.08,25.08,0,0,0-4.47-3,2.61,2.61,0,0,0-.2-1.44c-.31-.56-1.48,0-2,.29-.9-.47-1.58-.79-1.84-.91a.64.64,0,0,0,0-.07l0-.15a2.07,2.07,0,0,0-.14-1.76,3.17,3.17,0,0,0-2.53-1,2.14,2.14,0,0,1-.66-.17,9,9,0,0,0,2.78-1.94c2.4-2.13,5.4-4.79,10.86-2.71a.11.11,0,0,0,.07,0,3.27,3.27,0,0,0,.77-.07,3.16,3.16,0,0,0,3,1.88A3.75,3.75,0,0,0,140.73,210.37Zm32.86-10.88c2,.09,4.38-.77,6.85-1.66,1.05-.38,2.13-.77,3.18-1.09,3.85-1.16,9.76-1.73,13.76.49a5.67,5.67,0,0,1,3.2,4.7,1.48,1.48,0,0,0,.12.59,4.68,4.68,0,0,1,0,3.18,4.38,4.38,0,0,1-2.76,2.24c-4.64,1.64-11-.55-14.41-1.74l-1.34-.46a32.89,32.89,0,0,0-7-1.18,1.68,1.68,0,0,0-.45.05c-2.32-.45-2.61-1.12-2.7-2.83A2.21,2.21,0,0,1,173.59,199.49Zm.23,6.41a1.49,1.49,0,0,0,.23.85c0,.22,0,1.92-4.23,5.72-5.15,4.6-13.48,2.2-17.95.92l-.07,0-1.18-.33a15.28,15.28,0,0,0-8.36.36,12.25,12.25,0,0,0-.38-3.79c-.41-1.11.69-2.25,1.38-2.83a12.84,12.84,0,0,0,3.09-.92,5.75,5.75,0,0,0,2.37-.63c-.3.68-.82,2-.11,2.23.95.24,3.07.62,2.12-2.83a3.91,3.91,0,0,0,3-1.09,1.45,1.45,0,0,0,.21-.22,3.78,3.78,0,0,1,3.15-1.89,5.87,5.87,0,0,0,2.09-.57l.1-.08a35.33,35.33,0,0,1,6.22-3l.07,0c1,.51,3.09,1.3,4.95.38a.1.1,0,0,1,0,0,4.34,4.34,0,0,0,1.11.84,4.58,4.58,0,0,0-1.13,3.06,3.28,3.28,0,0,0,.86,2.43A5.59,5.59,0,0,0,173.82,205.9Zm3-15.54c-5,2.12-6.24,4.94-6.56,6.13a6.24,6.24,0,0,1-3.87-.27c.31-8.6,1.08-9.71,2-11a11.07,11.07,0,0,0,1.67-3.32c1.37-4.12,4.43-5,9.06-6.44l.51-.16c3.2-1,5.11.15,5.85.74a5,5,0,0,0-.49,3.9,4.06,4.06,0,0,0,3,2.26C186.46,185,182.45,188,176.79,190.36ZM204.64,176c-1.59,2.59-9.61,3.66-14.8,3.59a1.37,1.37,0,0,0-1.33,1c-1.15-.27-1.86-.71-2.1-1.31a3.56,3.56,0,0,1,.39-2.47c4.42.75,7.79-3.63,10-6.54.49-.62.89-1.16,1.22-1.5,2.33-2.53,4.35-4.28,7.42-2S207.69,171.06,204.64,176Zm4.21-13.19a10.63,10.63,0,0,1-2.33,2.75l-.09-.08a7.17,7.17,0,0,0-2.49-1.25,10.81,10.81,0,0,1,.07-3.37c.83.3,1.67.52,2.5.73a11.71,11.71,0,0,1,2.51.84A1.84,1.84,0,0,1,208.85,162.85Zm-.51-3.63a7.22,7.22,0,0,0-.32-.76,7.92,7.92,0,0,1-.6-1.42,1.2,1.2,0,0,1,.81.35,4.11,4.11,0,0,0,1.61.83l.07,0A4.33,4.33,0,0,0,208.34,159.22Z"/><path class="cls-1" d="M54.17,151.9a.85.85,0,0,0-1.18-.08A5.68,5.68,0,0,0,51.92,153l.72.46-.72-.46a7.23,7.23,0,0,0-1.13,3.93,9.1,9.1,0,0,0,1,4,.86.86,0,0,0,.74.45h0a.83.83,0,0,0,.74-.52,14.78,14.78,0,0,1,.93-1.76,10.34,10.34,0,0,1,2.59-2.93.82.82,0,0,0,.36-.62.87.87,0,0,0-.24-.67C56,153.87,55.06,152.9,54.17,151.9Zm-1.52,6.43a7,7,0,0,1-.16-1.44,5.4,5.4,0,0,1,.87-3h0a1.39,1.39,0,0,1,.15-.19c.51.56,1,1.11,1.55,1.65A13.22,13.22,0,0,0,52.65,158.33Z"/><path class="cls-1" d="M52.3,150.21a.84.84,0,0,0-.19-.68c-.68-.82-1.34-1.67-2-2.52a.87.87,0,0,0-.57-.32.83.83,0,0,0-.63.18,7.94,7.94,0,0,0-3.08,6.06,6.4,6.4,0,0,0,.4,2.23.85.85,0,0,0,.73.55H47a.87.87,0,0,0,.74-.43,12,12,0,0,1,4.13-4.48A.85.85,0,0,0,52.3,150.21Zm-4.75,2.31a6.1,6.1,0,0,1,1.78-3.74c.29.37.58.74.88,1.1A13,13,0,0,0,47.55,152.52Z"/><path class="cls-1" d="M185.48,151.52a.85.85,0,0,0-1.14.12c-.89,1-1.81,2-2.75,3a.84.84,0,0,0,.16,1.31,9.78,9.78,0,0,1,2.78,3,14.72,14.72,0,0,1,1,1.9.83.83,0,0,0,.74.52h0a.87.87,0,0,0,.75-.45,9,9,0,0,0,1-4A7.23,7.23,0,0,0,186.9,153,5.41,5.41,0,0,0,185.48,151.52Zm.69,6.8a12.53,12.53,0,0,0-2.69-3.25c.54-.55,1.06-1.12,1.58-1.69a3.31,3.31,0,0,1,.41.5,5.53,5.53,0,0,1,.86,3A7,7,0,0,1,186.17,158.32Z"/><path class="cls-1" d="M189.55,146.58a.86.86,0,0,0-1.17.17c-.67.87-1.34,1.74-2,2.56a.87.87,0,0,0-.18.71.85.85,0,0,0,.43.58,11.87,11.87,0,0,1,4.45,4.68.89.89,0,0,0,.75.43h.06a.85.85,0,0,0,.73-.55,6.46,6.46,0,0,0,.4-2.24A8,8,0,0,0,189.55,146.58Zm-1.27,3.06c.31-.38.62-.77.92-1.16a6.26,6.26,0,0,1,2.07,4A12.89,12.89,0,0,0,188.28,149.64Z"/><path class="cls-1" d="M188.08,146.05a.85.85,0,0,0-.53-.56,8.52,8.52,0,0,0-2.47-.55l-.81,0a24.08,24.08,0,0,0-9,2.11l-2.67-10.95-1.79-.19,3.05,12.55a.85.85,0,0,0,1.21.56,23.3,23.3,0,0,1,2.89-1.19,20.36,20.36,0,0,1,6.33-1.19l.71,0,.05-.85-.05.85a5.67,5.67,0,0,1,.84.11c-.38.48-.76.95-1.15,1.42a5.14,5.14,0,0,0-.88-.07h-.25a13.62,13.62,0,0,0-6.19,2.16.85.85,0,0,0,.63,1.54,12.38,12.38,0,0,1,1.93-.14,11.35,11.35,0,0,1,1.6.1c-.54.58-1.08,1.14-1.63,1.7a19.33,19.33,0,0,0-3.25-.35,4.42,4.42,0,0,0-2.08.41,2,2,0,0,0-1,1.76,1.69,1.69,0,0,0,0,.23,18.58,18.58,0,0,0,.31,3.51c-.7.58-1.41,1.16-2.13,1.72a3.14,3.14,0,0,1-.41-.82,11.08,11.08,0,0,1-.5-3.31,9.59,9.59,0,0,1,1.94-6,.86.86,0,0,0,.1-.9c-1.66-3.41-5.11-10.11-7.4-14.55l-2.08-.3c2.16,4.17,5.85,11.32,7.72,15.13a11.53,11.53,0,0,0-2,6.6,12.88,12.88,0,0,0,.58,3.82,5.87,5.87,0,0,0,1.24,2.07.85.85,0,0,0,.64.29.86.86,0,0,0,.52-.18c1.11-.85,2.2-1.73,3.26-2.63a.85.85,0,0,0,.27-.87,15.6,15.6,0,0,1-.39-3.76v-.07c0-.23,0-.15.14-.27a3,3,0,0,1,1.27-.2,20.83,20.83,0,0,1,3.39.4.86.86,0,0,0,.76-.24c1-1,2-2.07,3-3.15A.87.87,0,0,0,184,151a.86.86,0,0,0-.57-.59,11.11,11.11,0,0,0-1.55-.35,7.78,7.78,0,0,1,1.8-.29h.16a4.89,4.89,0,0,1,1,.12.83.83,0,0,0,.82-.28c.79-.93,1.54-1.87,2.28-2.83A.87.87,0,0,0,188.08,146.05Z"/><path class="cls-1" d="M75.28,135.24l-2,.19c-2.29,4.43-5.65,11-7.28,14.31a.86.86,0,0,0,.1.9,9.57,9.57,0,0,1,1.94,6,11.08,11.08,0,0,1-.5,3.31h0a3.71,3.71,0,0,1-.59,1.1c-.69-.53-1.37-1.08-2.05-1.63a16.84,16.84,0,0,0,.41-3.89c0-.08,0-.15,0-.23a1.93,1.93,0,0,0-1-1.75,4.42,4.42,0,0,0-2.08-.41,22,22,0,0,0-3.71.43c-.56-.56-1.1-1.13-1.64-1.71a11.61,11.61,0,0,1,2-.18,12,12,0,0,1,1.39.08c.35,0,.55.07.56.07a.85.85,0,0,0,.63-1.54,13.63,13.63,0,0,0-6.2-2.16H55a6.45,6.45,0,0,0-1.33.15c-.38-.46-.76-.92-1.13-1.39a5.91,5.91,0,0,1,1.28-.22l.71,0a20.36,20.36,0,0,1,6.33,1.19A29.38,29.38,0,0,1,63.77,149a.84.84,0,0,0,1.21-.55L68,136l-1.79.19L63.57,147a24.13,24.13,0,0,0-9-2.11l-.81,0a8.42,8.42,0,0,0-2.92.74.85.85,0,0,0-.33,1.3c.73.94,1.47,1.86,2.24,2.77a.84.84,0,0,0,.88.27A5.21,5.21,0,0,1,55,149.8h.14a8.35,8.35,0,0,1,1.81.3,9.21,9.21,0,0,0-2,.5.88.88,0,0,0-.53.6.86.86,0,0,0,.2.77c1,1.06,2,2.11,3,3.12a.81.81,0,0,0,.81.22l.18-.05a20.64,20.64,0,0,1,3.58-.44,3,3,0,0,1,1.27.2c.15.12.11,0,.14.26a.49.49,0,0,1,0,.11,14.06,14.06,0,0,1-.49,4.06.83.83,0,0,0,.27.9c1,.87,2.09,1.71,3.16,2.53a.86.86,0,0,0,1.13-.09,6.19,6.19,0,0,0,1.48-2.35l-.81-.25.81.25a12.88,12.88,0,0,0,.57-3.82,11.42,11.42,0,0,0-2-6.6C69.56,146.31,73.1,139.45,75.28,135.24Z"/><path class="cls-1" d="M176.35,160.92a.83.83,0,0,0-.59-.44.8.8,0,0,0-.71.18c-.81.67-1.64,1.33-2.48,2a.87.87,0,0,0-.33.69.86.86,0,0,0,.36.67,12.8,12.8,0,0,0,6.64,2.36h0a.85.85,0,0,0,.5-1.53A11.08,11.08,0,0,1,176.35,160.92Zm-1.79,2.32.8-.64a11.17,11.17,0,0,0,1.1,1.49A13,13,0,0,1,174.56,163.24Z"/><path class="cls-1" d="M63.6,161a.86.86,0,0,0-.7-.18.83.83,0,0,0-.59.42A11.25,11.25,0,0,1,59,164.83a.85.85,0,0,0,.51,1.53h0a12.91,12.91,0,0,0,6.34-2.14.87.87,0,0,0,.38-.68.85.85,0,0,0-.33-.71C65.16,162.21,64.36,161.6,63.6,161Zm-1.24,3.12a11.87,11.87,0,0,0,.91-1.2l.66.52A12.19,12.19,0,0,1,62.36,164.09Z"/><path class="cls-3" d="M114.07,94.71a2,2,0,0,0-.25.12c-.72.43-1.87.58-4.89.58s-3.6,1.44-3.6,1.44h4.89c1,0,2.62.06,4,.11,0-1.25-.16-2.2-.16-2.22Z"/><path class="cls-3" d="M136.48,48.32h0c.84.17,2,.38,3,.49.92-2.82,3.6-4.43,6.21-5.26a5.24,5.24,0,0,1-.13-1.17,11.15,11.15,0,0,1,.92-4,9.34,9.34,0,0,1-1.86-1.68l-.1-.12a12.28,12.28,0,0,0-.22,2.26,5.16,5.16,0,0,0,.15,1.36,1,1,0,0,1-1.72.92A20.13,20.13,0,0,1,139.56,37a4.15,4.15,0,0,0-1,2.63,6.59,6.59,0,0,0,1.83,4.05c.21.23.32.33.32.33a1,1,0,0,1,.31,1,1,1,0,0,1-.67.74,14.23,14.23,0,0,1-3.74.63h-.31A15.93,15.93,0,0,1,130.59,44a3.41,3.41,0,0,0,1.88,2.87A12.25,12.25,0,0,0,136.48,48.32Z"/><path class="cls-3" d="M146,45.55c-2.42.86-4.32,2.17-4.78,4.34.65-.26,1.31-.48,2-.67a28.41,28.41,0,0,1,3.06-.7C146.19,47.77,146.1,46.65,146,45.55Z"/><path class="cls-3" d="M150.49,42.55l0,0a15.3,15.3,0,0,1-2.6-2.06,7.28,7.28,0,0,0-.32,1.92,3.2,3.2,0,0,0,.06.65A27.3,27.3,0,0,1,150.49,42.55Z"/><path class="cls-3" d="M151.53,40.84A26.68,26.68,0,0,0,154,42.25l1.85-1.53A11.28,11.28,0,0,1,153.53,39c-.67-.72-1.78-2.09-2.53-3-.57.73-1.39,1.71-2.16,2.51A8.92,8.92,0,0,0,151.53,40.84Z"/><path class="cls-3" d="M154.24,68.36h0a8,8,0,0,0,3.86-1.54,10.12,10.12,0,0,1-1.41.11,8.15,8.15,0,0,1-4.55-1.41,5.83,5.83,0,0,1-1.08.19L151,66.93c.24.17.56.37.94.59A5.67,5.67,0,0,0,154.24,68.36Z"/><path class="cls-3" d="M145.87,57.23a11.35,11.35,0,0,1-.8-1.32l-.81.42a7.2,7.2,0,0,1-1.83.62c-.21.58-1.42,3.2-6.06,5.89a14.86,14.86,0,0,1-2.26,1h.19a6.61,6.61,0,0,0,3.38-.87,43.6,43.6,0,0,0,4.53-3c1.11-.85,1.75-1.42,1.75-1.42a1,1,0,0,1,1.59.37s.12.29.37.76a12.25,12.25,0,0,0,1.1,1.73,5.29,5.29,0,0,0,3.47,2.31,16.35,16.35,0,0,1-1.15-2.51c-.28-.76-.51-1.5-.69-2.11A3.9,3.9,0,0,1,145.87,57.23Z"/><path class="cls-3" d="M148.15,47.17l3.23-2.7A26.8,26.8,0,0,0,148,45C148,45.73,148.09,46.49,148.15,47.17Z"/><path class="cls-3" d="M146.25,50.56a25.86,25.86,0,0,0-2.52.58,11.1,11.1,0,0,0-4.07,1.94c1.17,1,2.12,1.77,2.39,1.91a5.54,5.54,0,0,0,1.36-.46,5,5,0,0,0,1.23-.78,1,1,0,0,1,.89-.37,1,1,0,0,1,.78.54,16.62,16.62,0,0,0,1.19,2.15,3.28,3.28,0,0,0,.61.69c-.14-1.18-.22-2.71-.28-3.23,0,0,0-.11-.17-.25a3.81,3.81,0,0,0-.63-.43,1.93,1.93,0,0,1-.81-1.79A3.73,3.73,0,0,1,146.25,50.56Z"/><path class="cls-3" d="M126.49,98.81a3.75,3.75,0,0,0,.74-3.14h0c-1-.36-5.14-.39-8.4-.31,1.8,1,5.2,2.73,7.48,3.67Z"/><path class="cls-3" d="M64.49,131.81a8.15,8.15,0,0,0,4.06.94,12.73,12.73,0,0,0,2.91-.35c2-.43,3.31-3.54,3.29-7.28a18.16,18.16,0,0,0-.53-4.34A80.41,80.41,0,0,0,67,103c-.27-.48-.54-1-.8-1.55-.26.68-.5,1.37-.74,2.06l.28.69c3.17,7.21,5.21,11.91,5.67,14.41a10.56,10.56,0,0,1,.19,1.85,3.68,3.68,0,0,1-3.43,4.07,11.66,11.66,0,0,0-3.69.91,3,3,0,0,0-1.87,2.94,4.49,4.49,0,0,0,0,.51A3.69,3.69,0,0,0,64.49,131.81Z"/><path class="cls-3" d="M139.12,51h0c0-.06,0-.11,0-.17-1-.12-2-.3-2.81-.47a11,11,0,0,1-3,.34,30.31,30.31,0,0,1-6.19-.73,6.77,6.77,0,0,0,2.3,2.37,9.66,9.66,0,0,0,4,.59c1.72,0,3.36-.15,3.92-.21A6.05,6.05,0,0,1,139.12,51Z"/><path class="cls-3" d="M115.92,94.66l-.13,0c-.36.09-.7.19-.93.26,0,.4.1,1.14.13,2a20,20,0,0,1,0,2.31c0,.24,0,.47-.07.7.11-.22.2-.44.3-.67a11.29,11.29,0,0,0,.64-2.33c0-.19.06-.37.08-.56A8.74,8.74,0,0,0,115.92,94.66Z"/><path class="cls-3" d="M116.69,95a8.66,8.66,0,0,1,0,1.44c0,.28,0,.57,0,.87a16.08,16.08,0,0,1-.11,2.18v.08l0-.08c.13-.27.24-.55.35-.84a10.55,10.55,0,0,0,.67-3.14c0-.14,0-.28,0-.42s0-.08,0-.12,0-.26,0-.38,0-.24,0-.35c-.35.08-.69.18-1,.26a.53.53,0,0,1,0,.13C116.67,94.79,116.68,94.92,116.69,95Z"/><path class="cls-3" d="M107.13,65.58c-.27.14-.62.32-1,.5l1.16-.25Z"/><path class="cls-3" d="M132.47,61c1.25,0,3.49-1.31,5.23-2.61,1.15-.83,2.11-1.65,2.65-2.13-.61-.47-1.26-1.07-2.08-1.73a26.35,26.35,0,0,1-6.19,4,17.71,17.71,0,0,1-5.75.85h-.28A9.64,9.64,0,0,0,131.72,61Z"/><path class="cls-3" d="M98.22,68.21l-.75,0a22.42,22.42,0,0,1-8.8-2L82,70.32c3.41,1,7.36.85,10.33.87a58.58,58.58,0,0,1,7-3.08C99,68.15,98.59,68.19,98.22,68.21Z"/><path class="cls-3" d="M97.62,58.35a11.29,11.29,0,0,0,6.67-2.61,17,17,0,0,0-1.52-7.1,21.79,21.79,0,0,0-4.08,3.65c-.81.82-1.15,3.21-1.12,4.93,0,.43,0,.82,0,1.13Z"/><path class="cls-3" d="M73.21,51a10,10,0,0,1,.27-1.16,5,5,0,0,1,3.21-3.65,7.73,7.73,0,0,1,2.07-.3,5,5,0,0,1,5,3.3,1,1,0,0,1-.46,1.12c-.94.55-2.44,1.29-3.77,1.92a15.73,15.73,0,0,0,1.72.18l1.2,0A11.36,11.36,0,0,0,86.4,52a.86.86,0,0,0,.34-.21,29.41,29.41,0,0,0-2.32-5.33c-.69-1.36-1.38-2.63-1.8-3.41a31.38,31.38,0,0,1-5.79,1.68,10.05,10.05,0,0,0-3.76,1.45,2.64,2.64,0,0,0-1.37,2,1.66,1.66,0,0,0,.06.48A5.24,5.24,0,0,0,73.21,51Z"/><path class="cls-3" d="M92.37,44.14a1,1,0,0,0,1.09-.94,1.11,1.11,0,0,0-2.19,0A1,1,0,0,0,92.37,44.14Z"/><path class="cls-3" d="M89,45.68c.38.54,1,1.44,1.47,2.36a7.76,7.76,0,0,1,1.08,2.63c0,.12,0,.24,0,.36a4.27,4.27,0,0,1-1.07,2.74,6.79,6.79,0,0,1,.83,3.4c0,2.07,0,4.75.11,5.62l.13.05a3.84,3.84,0,0,0,1.17.18,2.5,2.5,0,0,0,1-.18c.21-.12.15-.1.17-.14,0-.4,0-1,0-1.72,0-2.12-.13-5-.13-6.11a9,9,0,0,1,3.42-7.14c1.27-.9,2.47-1.89,3.32-2.62a6.23,6.23,0,0,1-2.28-2.51c-1.42-2.74-3.23-4.41-4.62-4.54a1.72,1.72,0,0,0-.33,0A12.73,12.73,0,0,0,88,39.88c-.65.42-1.22.82-1.63,1.12.23.43.54,1,.87,1.61C87.87,43.85,88.66,45.26,89,45.68Zm3.42-5.42a2.94,2.94,0,1,1-3.1,2.94A3,3,0,0,1,92.37,40.26Z"/><path class="cls-3" d="M105.19,61.76a5,5,0,0,0,.06-.89c0-.3,0-.65,0-1a22.85,22.85,0,0,1-4.34,1.68c-1.32.38-2.54.65-3.3.81l0,1.49a16.52,16.52,0,0,0,7.63-1.95A.37.37,0,0,0,105.19,61.76Z"/><path class="cls-3" d="M96.42,60.53l1-.19c-.27,0-.54,0-.81,0a1,1,0,0,1-.67-.39c0,.31,0,.61,0,.9A1,1,0,0,1,96.42,60.53Z"/><path class="cls-3" d="M108.15,89.71a2.19,2.19,0,1,0,2.18,2.18A2.18,2.18,0,0,0,108.15,89.71Zm0,3.46c-.47,0-.84-.56-.84-1.28s.37-1.28.84-1.28.84.57.84,1.28S108.62,93.17,108.15,93.17Z"/><path class="cls-3" d="M152.79,51.45a33.31,33.31,0,0,0,7.5.64h.93l-.35-.16a15.61,15.61,0,0,1-3.27-1.8,1.42,1.42,0,0,1-.53-1.05,1.16,1.16,0,0,1,.6-1,5.35,5.35,0,0,1,2-.5,25.32,25.32,0,0,1,2.7-.13,19.51,19.51,0,0,1,3.13.21,13.11,13.11,0,0,1,2.92.77,3.39,3.39,0,0,1,1.91,1.75,3,3,0,0,0,.64-1.52.78.78,0,0,0-.05-.28c-.1-.45-1.52-1.36-3.2-1.91s-3.46-1-4.51-1.45a24.93,24.93,0,0,1-3.34-1.74l-3.34,2.59c-2,1.56-4.2,3.3-4.65,3.73a1.56,1.56,0,0,0-.59.94C151.31,50.6,151.28,51,152.79,51.45Z"/><path class="cls-3" d="M170.69,124.51a3.67,3.67,0,0,1-3.42-4.07,10.58,10.58,0,0,1,.18-1.85c.47-2.5,2.5-7.2,5.66-14.41v0c-.24-.72-.49-1.44-.75-2.14q-.24.49-.51,1a80.9,80.9,0,0,0-7.26,17.8,18.16,18.16,0,0,0-.53,4.34c0,3.74,1.26,6.85,3.29,7.28a12.28,12.28,0,0,0,2.85.34c2.19,0,4.21-.65,5.21-2,.2-1.3.36-2.6.47-3.91C175.1,125.21,172.47,124.7,170.69,124.51Z"/><path class="cls-3" d="M142.29,63.33A1,1,0,0,1,143,63a1,1,0,0,1,1,1.12,5.49,5.49,0,0,0,0,.58,4,4,0,0,0,2.23,3.8.5.5,0,0,0,.2,0,3.55,3.55,0,0,0,1.72-.85A8.77,8.77,0,0,0,149,67l.17-1.49a7.9,7.9,0,0,1-3.7-2.84,15,15,0,0,1-1.14-1.75,45.79,45.79,0,0,1-5.61,3.85,8.72,8.72,0,0,1-4.38,1.13,10.93,10.93,0,0,1-4.42-.94c-.86.13-1.69.21-2.5.27a57.68,57.68,0,0,1,9,2A18.54,18.54,0,0,0,142.29,63.33Z"/><path class="cls-1" d="M92.37,46.14a2.94,2.94,0,1,0-3.1-2.94A3,3,0,0,0,92.37,46.14Zm0-3.88a1,1,0,0,1,1.09.94,1.11,1.11,0,1,1-1.09-.94Z"/><path class="cls-1" d="M73.6,53.79a1,1,0,0,0,1-.07,1,1,0,0,0,.43-.88,9.38,9.38,0,0,1,.35-2.38,3.06,3.06,0,0,1,1.86-2.3,5.28,5.28,0,0,1,1.51-.23,3.5,3.5,0,0,1,2.75,1.15c-2.09,1.09-5.58,2.66-5.58,2.66a1,1,0,0,0-.59,1,1,1,0,0,0,.76.88,29.86,29.86,0,0,0,5.11.82c.36,0,.79,0,1.27,0a17.2,17.2,0,0,0,3.68-.33,5,5,0,0,0,1.65-.68,2.09,2.09,0,0,0,.93-1.7,1.93,1.93,0,0,0,0-.24,27.54,27.54,0,0,0-2.53-6c-1.15-2.26-2.26-4.26-2.26-4.27a1,1,0,0,0-1.29-.42s-.69.31-1.82.71a28.38,28.38,0,0,1-4.36,1.19,11.9,11.9,0,0,0-4.55,1.77,4.63,4.63,0,0,0-2.23,3.69,3.58,3.58,0,0,0,.15,1A7.67,7.67,0,0,0,73.6,53.79Zm-.53-7.65a10.05,10.05,0,0,1,3.76-1.45A31.38,31.38,0,0,0,82.62,43c.42.78,1.11,2.05,1.8,3.41a29.41,29.41,0,0,1,2.32,5.33.86.86,0,0,1-.34.21,11.36,11.36,0,0,1-3.92.51l-1.2,0a15.73,15.73,0,0,1-1.72-.18c1.33-.63,2.83-1.37,3.77-1.92a1,1,0,0,0,.46-1.12,5,5,0,0,0-5-3.3,7.73,7.73,0,0,0-2.07.3,5,5,0,0,0-3.21,3.65A10,10,0,0,0,73.21,51a5.24,5.24,0,0,1-1.45-2.37,1.66,1.66,0,0,1-.06-.48A2.64,2.64,0,0,1,73.07,46.14Z"/><path class="cls-1" d="M82,70.32l6.64-4.11a22.42,22.42,0,0,0,8.8,2l.75,0c.37,0,.73-.06,1.1-.1a57.9,57.9,0,0,1,6.8-2c.39-.18.74-.36,1-.5l.15.25c.68-.14,1.37-.27,2.06-.39l-1-1.72a1,1,0,0,0-.63-.48,1,1,0,0,0-.78.12l-.7.41a20.33,20.33,0,0,1-8.15,2.45h-.66a19.05,19.05,0,0,1-5.88-1,21.55,21.55,0,0,1-2.53-1,1,1,0,0,0-1,0s-6.5,4-8.85,5.45a1,1,0,0,0-.49.91,1,1,0,0,0,.59.86,24.69,24.69,0,0,0,9.57,1.72c1.13-.7,2.28-1.36,3.46-2C89.39,71.17,85.44,71.29,82,70.32Z"/><path class="cls-1" d="M87.31,46.81c.33.49.9,1.37,1.37,2.21a7.87,7.87,0,0,1,.83,1.82V51c0,.54-.16,1-1.06,1.95a1,1,0,0,0,0,1.41h0a4.29,4.29,0,0,1,.82,2.78c0,2.42,0,5.28.17,6.17a1.89,1.89,0,0,0,1.4,1.38,5.5,5.5,0,0,0,1.84.3,4.2,4.2,0,0,0,1.89-.39,2.2,2.2,0,0,0,1-.88l0,1.07a1,1,0,0,0,.28.72,1,1,0,0,0,.72.3h.32a21.46,21.46,0,0,0,6.6-1,9.43,9.43,0,0,0,3.2-1.57,3.38,3.38,0,0,0,.61-2.38c0-.88-.08-1.92-.16-3a1,1,0,0,0-.68-.87.93.93,0,0,0-.47,0,1,1,0,0,0,.36-.76,19.11,19.11,0,0,0-2.25-9.5,1,1,0,0,0-.62-.49,1,1,0,0,0-.78.11A23.44,23.44,0,0,0,97.19,51a6.76,6.76,0,0,0-1.37,3.2,6.88,6.88,0,0,1,2.54-4.8,50.69,50.69,0,0,0,4.77-3.89,1,1,0,0,0,.26-1.08,1,1,0,0,0-.92-.65l-.14,0A3.58,3.58,0,0,1,100,41.66c-1.58-3-3.58-5.2-6.13-5.59a5.68,5.68,0,0,0-.59,0,14.25,14.25,0,0,0-6.42,2.17c-1.38.89-2.42,1.69-2.44,1.7a1,1,0,0,0-.27,1.26S86.5,45.64,87.31,46.81Zm11.38,5.48a21.79,21.79,0,0,1,4.08-3.65,17,17,0,0,1,1.52,7.1,11.29,11.29,0,0,1-6.67,2.61h0c0-.31,0-.7,0-1.13C97.54,55.5,97.88,53.11,98.69,52.29ZM97.58,62.34c.76-.16,2-.43,3.3-.81a22.85,22.85,0,0,0,4.34-1.68c0,.37,0,.72,0,1a5,5,0,0,1-.06.89.37.37,0,0,1,0,.12,16.52,16.52,0,0,1-7.63,1.95Zm-1-2c.27,0,.54,0,.81,0l-1,.19a1,1,0,0,0-.51.28c0-.29,0-.59,0-.9A1,1,0,0,0,96.57,60.3ZM88,39.88A12.73,12.73,0,0,1,93.29,38a1.72,1.72,0,0,1,.33,0c1.39.13,3.2,1.8,4.62,4.54a6.23,6.23,0,0,0,2.28,2.51c-.85.73-2,1.72-3.32,2.62a9,9,0,0,0-3.42,7.14c0,1.12.13,4,.13,6.11,0,.7,0,1.32,0,1.72,0,0,0,0-.17.14a2.5,2.5,0,0,1-1,.18,3.84,3.84,0,0,1-1.17-.18l-.13-.05c-.07-.87-.12-3.55-.11-5.62a6.79,6.79,0,0,0-.83-3.4A4.27,4.27,0,0,0,91.51,51c0-.12,0-.24,0-.36A7.76,7.76,0,0,0,90.42,48c-.51-.92-1.09-1.82-1.47-2.36s-1.08-1.83-1.75-3.07c-.33-.6-.64-1.18-.87-1.61C86.74,40.7,87.31,40.3,88,39.88Z"/><path class="cls-1" d="M129.88,64.92a10.93,10.93,0,0,0,4.42.94,8.72,8.72,0,0,0,4.38-1.13,45.79,45.79,0,0,0,5.61-3.85,15,15,0,0,0,1.14,1.75,7.9,7.9,0,0,0,3.7,2.84L149,67a8.77,8.77,0,0,1-.82.73,3.55,3.55,0,0,1-1.72.85.5.5,0,0,1-.2,0A4,4,0,0,1,144,64.7a5.49,5.49,0,0,1,0-.58A1,1,0,0,0,143,63a1,1,0,0,0-.74.33,18.54,18.54,0,0,1-5.95,3.88c.92.29,1.82.6,2.71.93a21.15,21.15,0,0,0,3.09-2,5.73,5.73,0,0,0,3.35,4.22,2.66,2.66,0,0,0,.91.17h0a5.17,5.17,0,0,0,3-1.28c.25-.2.47-.39.65-.56a8.74,8.74,0,0,0,4.21,1.66h.12a11.27,11.27,0,0,0,8-5.08,1,1,0,0,0-.07-1.2,1,1,0,0,0-1.17-.27,10.83,10.83,0,0,1-4.43,1.12A6.27,6.27,0,0,1,153,63.62a7.77,7.77,0,0,1-1.73-3.1c-.53-1.43-.88-2.81-1-3.23s-.34-3.22-.41-4a2.83,2.83,0,0,0-1.59-2.09c0-.05,0-.12,0-.18a4.22,4.22,0,0,1,.05-.6l.64-1.33,9.4-7.82a1,1,0,0,0,.35-.89,1,1,0,0,0-.56-.78s-.56-.28-1.25-.68A9.05,9.05,0,0,1,155,37.61c-1-1-3.2-3.91-3.2-3.92a1,1,0,0,0-.8-.38,1,1,0,0,0-.8.4,39,39,0,0,1-2.54,3.09,6.35,6.35,0,0,1-1.56-1.37,16.77,16.77,0,0,1-1.28-1.67,1,1,0,0,0-1-.44A1,1,0,0,0,143,34a23.33,23.33,0,0,0-.68,3.61,12.81,12.81,0,0,1-1.56-2.76,1,1,0,0,0-.69-.6,1,1,0,0,0-.9.22,6.72,6.72,0,0,0-2.6,5.12,8,8,0,0,0,1.65,4.54,9.64,9.64,0,0,1-1.6.16h-.22c-1.11,0-5-2-6-2.77a1,1,0,0,0-1.55.5,6.28,6.28,0,0,0-.31,1.9,5.42,5.42,0,0,0,2.81,4.62,27.21,27.21,0,0,1-5.65-1.09,1,1,0,0,0-1.27,1.26A9.08,9.08,0,0,0,128.37,54c1.34.81,3.25.88,5.12.91l1,0a15.31,15.31,0,0,1-3.11,1.75,15.57,15.57,0,0,1-5,.73,24.52,24.52,0,0,1-2.46-.13,1,1,0,0,0-1,1.46c1.41,2.56,4.2,3.83,7,4.2a76.45,76.45,0,0,1-8.87.56,1,1,0,0,0-.82.59.93.93,0,0,0-.06.59,58.75,58.75,0,0,1,7.19.57C128.19,65.13,129,65.05,129.88,64.92Zm21.23.79a5.83,5.83,0,0,0,1.08-.19,8.15,8.15,0,0,0,4.55,1.41,10.12,10.12,0,0,0,1.41-.11,8,8,0,0,1-3.86,1.54h0a5.67,5.67,0,0,1-2.32-.84c-.38-.22-.7-.42-.94-.59Zm-2.46-6.61c.18.61.41,1.35.69,2.11a16.35,16.35,0,0,0,1.15,2.51A5.29,5.29,0,0,1,147,61.41a12.25,12.25,0,0,1-1.1-1.73c-.25-.47-.37-.76-.37-.76a1,1,0,0,0-1.59-.37s-.64.57-1.75,1.42a43.6,43.6,0,0,1-4.53,3,6.61,6.61,0,0,1-3.38.87h-.19a14.86,14.86,0,0,0,2.26-1c4.64-2.69,5.85-5.31,6.06-5.89a7.2,7.2,0,0,0,1.83-.62l.81-.42a11.35,11.35,0,0,0,.8,1.32A3.9,3.9,0,0,0,148.65,59.1Zm-.5-11.93c-.06-.68-.12-1.44-.18-2.18a26.8,26.8,0,0,1,3.41-.52ZM151,35.94c.75.94,1.86,2.31,2.53,3a11.28,11.28,0,0,0,2.36,1.75L154,42.25a26.68,26.68,0,0,1-2.51-1.41,8.92,8.92,0,0,1-2.69-2.39C149.61,37.65,150.43,36.67,151,35.94Zm-3.15,4.52a15.3,15.3,0,0,0,2.6,2.06l0,0a27.3,27.3,0,0,0-2.9.48,3.2,3.2,0,0,1-.06-.65A7.28,7.28,0,0,1,147.85,40.46ZM147,52.85a3.81,3.81,0,0,1,.63.43c.15.14.17.21.17.25.06.52.14,2,.28,3.23a3.28,3.28,0,0,1-.61-.69,16.62,16.62,0,0,1-1.19-2.15,1,1,0,0,0-.78-.54,1,1,0,0,0-.89.37,5,5,0,0,1-1.23.78,5.54,5.54,0,0,1-1.36.46c-.27-.14-1.22-1-2.39-1.91a11.1,11.1,0,0,1,4.07-1.94,25.86,25.86,0,0,1,2.52-.58,3.73,3.73,0,0,0,0,.5A1.93,1.93,0,0,0,147,52.85Zm-5.8-3c.46-2.17,2.36-3.48,4.78-4.34.09,1.1.18,2.22.23,3a28.41,28.41,0,0,0-3.06.7C142.54,49.41,141.88,49.63,141.23,49.89ZM130.59,44a15.93,15.93,0,0,0,5.73,2.31h.31a14.23,14.23,0,0,0,3.74-.63A1,1,0,0,0,141,45a1,1,0,0,0-.31-1s-.11-.1-.32-.33a6.59,6.59,0,0,1-1.83-4.05,4.15,4.15,0,0,1,1-2.63,20.13,20.13,0,0,0,3.14,4.18,1,1,0,0,0,1.72-.92,5.16,5.16,0,0,1-.15-1.36,12.28,12.28,0,0,1,.22-2.26l.1.12a9.34,9.34,0,0,0,1.86,1.68,11.15,11.15,0,0,0-.92,4,5.24,5.24,0,0,0,.13,1.17c-2.61.83-5.29,2.44-6.21,5.26-1-.11-2.12-.32-3-.49h0a12.25,12.25,0,0,1-4-1.44A3.41,3.41,0,0,1,130.59,44Zm2.9,8.88a9.66,9.66,0,0,1-4-.59,6.77,6.77,0,0,1-2.3-2.37,30.31,30.31,0,0,0,6.19.73,11,11,0,0,0,3-.34c.82.17,1.84.35,2.81.47,0,.06,0,.11,0,.17h0a6.05,6.05,0,0,0-1.71,1.71C136.85,52.74,135.21,52.89,133.49,52.89Zm-7.44,6.45h.28a17.71,17.71,0,0,0,5.75-.85,26.35,26.35,0,0,0,6.19-4c.82.66,1.47,1.26,2.08,1.73-.54.48-1.5,1.3-2.65,2.13-1.74,1.3-4,2.56-5.23,2.61l-.75,0A9.64,9.64,0,0,1,126.05,59.34Z"/><path class="cls-1" d="M149.31,50.54c0,1.34,1.15,2.36,2.93,2.84a35.82,35.82,0,0,0,8,.71,29.93,29.93,0,0,0,5.35-.34,1,1,0,0,0,.16-1.9c-1.38-.57-3.2-1.32-4.66-2l-.69-.33c.6-.05,1.28-.08,1.94-.07a17.46,17.46,0,0,1,2.77.18,11.12,11.12,0,0,1,2.48.63c.72.34.9.57.91,1a2.84,2.84,0,0,1-.51,1.39,1,1,0,0,0,.19,1.27,1,1,0,0,0,.66.25,1,1,0,0,0,.62-.22,14.5,14.5,0,0,0,1.68-1.59,6.11,6.11,0,0,0,1.8-3.67,2.66,2.66,0,0,0-.21-1c-.77-1.65-2.57-2.33-4.36-3s-3.68-1.12-4.44-1.43a25.12,25.12,0,0,1-3.59-1.93,1,1,0,0,0-1.17,0s-7.48,5.75-8.69,6.87A3.42,3.42,0,0,0,149.31,50.54Zm2.59-.94c.45-.43,2.65-2.17,4.65-3.73l3.34-2.59A24.93,24.93,0,0,0,163.23,45c1.05.41,2.84.84,4.51,1.45s3.1,1.46,3.2,1.91a.78.78,0,0,1,.05.28,3,3,0,0,1-.64,1.52,3.39,3.39,0,0,0-1.91-1.75,13.11,13.11,0,0,0-2.92-.77,19.51,19.51,0,0,0-3.13-.21,25.32,25.32,0,0,0-2.7.13,5.35,5.35,0,0,0-2,.5,1.16,1.16,0,0,0-.6,1,1.42,1.42,0,0,0,.53,1.05,15.61,15.61,0,0,0,3.27,1.8l.35.16h-.93a33.31,33.31,0,0,1-7.5-.64c-1.51-.47-1.48-.85-1.48-.91A1.56,1.56,0,0,1,151.9,49.6Z"/><path class="cls-3" d="M127.47,74.3l-4.33-.55,2.71-4.93A13.75,13.75,0,0,1,124,68l-6.46,11.45,2.32.3,2.26-4,5.9.76,1.13,4.47,2.41.32-3.09-11.72a20.34,20.34,0,0,1-2.29-.61Z"/><path class="cls-3" d="M127.47,65.86l-2.14-.27-.37.65a14.6,14.6,0,0,0,2.9,1.1Z"/><path class="cls-3" d="M93.1,73.2v-1l0,1h-.44l4.16,6.91a4.79,4.79,0,0,1,.93,2.68,2.34,2.34,0,0,1-1.31,1.71,2.54,2.54,0,0,1-2.21.43,4.59,4.59,0,0,1-2-2.06l-4.85-8L85.5,76l4.83,8a11.31,11.31,0,0,0,1.39,2,3.92,3.92,0,0,0,1.18.82,4.55,4.55,0,0,0,2.28.38,5.79,5.79,0,0,0,2.37-.87,5.32,5.32,0,0,0,1.75-1.63,4.47,4.47,0,0,0,.67-2.16A3.79,3.79,0,0,0,99.74,81a11.74,11.74,0,0,0-1-2.06l-3.49-5.78c-.54,0-1.08,0-1.6,0Z"/><path class="cls-3" d="M94,71.19l-.16-.26-.45.27h.2Z"/><path class="cls-3" d="M114,80.14,116,79.7,113,65.29l-2.14.46,2.45,10.88L107.42,71c-.68.18-1.45.37-2.29.57Z"/><path class="cls-3" d="M101.32,67.78l.53,2.46c.85-.16,1.68-.34,2.46-.52l1.41-.33-2.16-2.09Z"/><path class="cls-3" d="M104.41,82.19l2.18-.46-2.27-10c-.66.15-1.34.29-2,.43Z"/><polygon class="cls-3" points="141.51 82.51 143.24 70.4 140.36 68.79 133.13 81.63 135 82.68 141.14 71.45 139.18 85.03 140.56 85.81 151.17 77.1 144.77 88.17 146.58 89.2 153.81 76.36 150.98 74.76 141.51 82.51"/><rect class="cls-3" x="87.26" y="166" width="12.06" height="1.55" transform="translate(-97.77 163.34) rotate(-59.75)"/><rect class="cls-3" x="91.11" y="168.03" width="12.06" height="1.55" transform="translate(-97.02 184.08) rotate(-64.58)"/><rect class="cls-3" x="126.68" y="167.04" width="1.54" height="12.06" transform="translate(-26.09 22.66) rotate(-9.22)"/><path class="cls-3" d="M86.81,169.81l8.94-12.73c-.43-.29-.84-.59-1.26-.89l-8.95,12.73Z"/><path class="cls-3" d="M101,162.41l.9-1.89-1.4-.66-.9,1.88Z"/><path class="cls-3" d="M118.75,179.77l1.24,0,5.35-14.93.16,1,1.53-.25-.34-2.06c-.85.15-1.71.28-2.59.39l-4.79,13.49-5.26-13.51H114l-1.48,0Z"/><path class="cls-3" d="M97.71,160.73l1.05-1.81c-.45-.25-.9-.5-1.34-.77l-1,1.8Z"/><polygon class="cls-3" points="135.66 174.91 129.06 166.79 127.5 167.28 135.62 177.37 136.97 176.95 138.05 163.97 136.45 164.47 135.66 174.91"/><path class="cls-3" d="M150.74,158.14a3,3,0,0,1,1-2l-1.1-1.26a3.3,3.3,0,0,0-.93,1.32,3.83,3.83,0,0,0-.18,1.7l-.91-1.05-1.1,1,7.86,9.14,1.2-1-4.76-5.51A3.78,3.78,0,0,1,150.74,158.14Z"/><path class="cls-1" d="M124.1,163.92a40.89,40.89,0,0,1-10,0l5.26,13.51Z"/><path class="cls-1" d="M168.77,120.44c.09,1.81.55,2.3,2.1,2.58s4.38.52,5.91,2.5c.05-1.06.09-2.12.09-3.19a57.89,57.89,0,0,0-2.57-17.11c-3.06,6.93-5,11.57-5.37,13.64A8.88,8.88,0,0,0,168.77,120.44Z"/><path class="cls-1" d="M63.77,124.08A12.89,12.89,0,0,1,68,123c1.55-.28,2-.77,2.11-2.58a8.89,8.89,0,0,0-.17-1.58c-.37-2.11-2.39-6.91-5.56-14.08l-.1-.25a57.58,57.58,0,0,0-2.81,17.8c0,1.3.06,2.58.14,3.86A4.74,4.74,0,0,1,63.77,124.08Z"/><path class="cls-1" d="M167,133.85c-3.25-.9-4.41-4.78-4.43-8.73a19.57,19.57,0,0,1,.57-4.7,82.58,82.58,0,0,1,7.42-18.19,22.18,22.18,0,0,0,1.17-2.43l.28-.66a57.88,57.88,0,0,0-33-31,15.65,15.65,0,0,1-4,1.55,14.37,14.37,0,0,1-2.73.24,21.92,21.92,0,0,1-3.93-.4l3.09,11.72-2.41-.32L128,76.46l-5.9-.76-2.26,4-2.32-.3L124,68A10.77,10.77,0,0,1,120.36,65a1,1,0,0,1-.17-.42l-1,0a58.67,58.67,0,0,0-9.81.84l1.82,3.27a1,1,0,0,1,0,.85,1,1,0,0,1-.63.59s-1.25.38-3.16.87l5.84,5.61-2.45-10.88,2.14-.46L116,79.7l-2.07.44-8.84-8.55-.81.18,2.27,10-2.18.46-2.14-10a52.59,52.59,0,0,1-7,1l3.49,5.78a11.74,11.74,0,0,1,1,2.06,3.79,3.79,0,0,1,.23,1.49,4.47,4.47,0,0,1-.67,2.16,5.32,5.32,0,0,1-1.75,1.63,5.79,5.79,0,0,1-2.37.87,4.55,4.55,0,0,1-2.28-.38,3.92,3.92,0,0,1-1.18-.82,11.31,11.31,0,0,1-1.39-2L85.5,76l1.9-1.15,4.85,8a4.59,4.59,0,0,0,2,2.06,2.54,2.54,0,0,0,2.21-.43,2.34,2.34,0,0,0,1.31-1.71,4.79,4.79,0,0,0-.93-2.68l-4.16-6.91H88.9A58,58,0,0,0,66.56,98.52l.27.69a24.5,24.5,0,0,0,1.43,3,82.58,82.58,0,0,1,7.42,18.19,19.57,19.57,0,0,1,.57,4.7c0,3.95-1.18,7.83-4.43,8.73a13.62,13.62,0,0,1-3.27.4,9.47,9.47,0,0,1-4.83-1.16,5.33,5.33,0,0,1-1.52-1.32,57.56,57.56,0,0,0,11.63,26.3l15.07-6.78a41.88,41.88,0,1,1,37.79,12.24l.34,2.06-1.53.25-.16-1L120,179.75l-1.24,0-6.28-15.86,1.48,0a41.81,41.81,0,0,1-12-3.37l-.9,1.89-1.4-.67.9-1.88c-.6-.3-1.19-.61-1.77-.94l-1.05,1.81L96.37,160l1-1.8c-.56-.34-1.12-.7-1.67-1.07l-8.94,12.73-1.27-.89,8.95-12.73a44.86,44.86,0,0,1-4-3.35L83.88,168a57.5,57.5,0,0,0,16.64,9,3.45,3.45,0,0,1-1.72-1.69,4.49,4.49,0,0,1-.1-3.19l1.51.5v0a2.75,2.75,0,0,0,0,2,2.07,2.07,0,0,0,1.29,1.2,2.1,2.1,0,0,0,1.62-.07,1.91,1.91,0,0,0,1-1.18,2,2,0,0,0,0-1.47,4.45,4.45,0,0,0-1.33-1.47,6.15,6.15,0,0,1-2-2.21,3,3,0,0,1,0-2.08,3.23,3.23,0,0,1,1.72-2,3.48,3.48,0,0,1,2.67-.16,3.35,3.35,0,0,1,2.06,1.6,3.45,3.45,0,0,1,.16,2.63l-1.57-.52a2,2,0,0,0-.1-1.43,1.8,1.8,0,0,0-1.12-.86,1.69,1.69,0,0,0-1.36.09,1.74,1.74,0,0,0-.87,1,1.61,1.61,0,0,0,.37,1.77,5.27,5.27,0,0,0,1,.9c.48.34.8.57,1,.71a3.66,3.66,0,0,1,1.17,1.73,3.54,3.54,0,0,1-.13,2.11,3.36,3.36,0,0,1-1.83,2.11,3.81,3.81,0,0,1-2.46.23,57.71,57.71,0,0,0,46-4.72,5.88,5.88,0,0,1-3.91.21A6.59,6.59,0,0,1,139,165a6.14,6.14,0,0,1,3-3.86,5.75,5.75,0,0,1,4.77-.63,7,7,0,0,1,3.95,3.33l.06.1-9.39,5.51a4.69,4.69,0,0,0,2.84,2,4.48,4.48,0,0,0,3.37-.58,4.36,4.36,0,0,0,1.75-1.84,4.65,4.65,0,0,0,.46-2.54l1.51-.89a6.9,6.9,0,0,1-.46,3.83,5.83,5.83,0,0,1-1.73,2.19,58,58,0,0,0,14.4-12.44,5.88,5.88,0,0,1-3.65,1.63,6.58,6.58,0,0,1-7.07-5.66,6.13,6.13,0,0,1,1.46-4.67,5.73,5.73,0,0,1,4.25-2.27,6.9,6.9,0,0,1,4.86,1.72l.09.07-6.84,8.47a4.65,4.65,0,0,0,3.37.89,4.51,4.51,0,0,0,3-1.72,4.42,4.42,0,0,0,1-2.35,4.67,4.67,0,0,0-.47-2.54l1.1-1.36a7,7,0,0,1,.92,3.75,5.64,5.64,0,0,1-.79,2.55A57.46,57.46,0,0,0,176,132.34a8.49,8.49,0,0,1-5.79,1.9A13.18,13.18,0,0,1,167,133.85ZM146.58,89.2l-1.81-1,6.4-11.08-10.61,8.71L139.18,85l2-13.58L135,82.68l-1.87-1.05,7.23-12.84,2.87,1.61-1.72,12.11L151,74.76l2.83,1.59Zm-57,82.39,6.07-10.42L97,162l-6.08,10.42Zm5.66,3-1.39-.67L99,163l1.4.67Zm32.41,4.55-1.93-11.9,1.52-.25,1.94,11.91ZM137,177l-1.35.42-8.12-10.09,1.56-.49,6.6,8.12.79-10.44,1.6-.5Zm19.62-11.07-1.2,1-7.86-9.14,1.1-1,.91,1.05a3.83,3.83,0,0,1,.18-1.7,3.3,3.3,0,0,1,.93-1.32l1.1,1.26a3,3,0,0,0-1,2,3.78,3.78,0,0,0,1.09,2.23Z"/><path class="cls-1" d="M94,71.19a46.19,46.19,0,0,0,7.82-1l-.53-2.46,2.24-.48,2.16,2.09c1.27-.31,2.33-.6,3.08-.81l-1.52-2.75-1.16.25a22,22,0,0,1-6.8,2,58.58,58.58,0,0,0-7,3.08h1.06l.45-.27Z"/><path class="cls-1" d="M127.47,65.86l.39,1.48a17.64,17.64,0,0,0,4.51.59,12.67,12.67,0,0,0,2.36-.2,7.51,7.51,0,0,0,1.61-.52,57.68,57.68,0,0,0-9-2c-1.44.12-2.79.15-3.88.17a10.47,10.47,0,0,0,1.46.88l.37-.65Z"/><path class="cls-1" d="M99.32,68.11a22,22,0,0,0,6.8-2A57.9,57.9,0,0,0,99.32,68.11Z"/><path class="cls-1" d="M94,71.19l1.19,2a52.59,52.59,0,0,0,7-1l-.42-2A46.19,46.19,0,0,1,94,71.19Z"/><path class="cls-1" d="M108.8,68.58c-.75.21-1.81.5-3.08.81l1.7,1.63c1.91-.49,3.14-.87,3.16-.87a1,1,0,0,0,.63-.59,1,1,0,0,0,0-.85l-1.82-3.27c-.69.12-1.38.25-2.06.39Z"/><path class="cls-1" d="M92.65,73.19,92,72.08l1.45-.88H92.36c-1.18.62-2.33,1.28-3.46,2h3.75Z"/><path class="cls-1" d="M104.32,71.77l.81-.18L104,70.52Z"/><path class="cls-1" d="M134.73,67.73a12.67,12.67,0,0,1-2.36.2,17.64,17.64,0,0,1-4.51-.59l.58,2.19a21.92,21.92,0,0,0,3.93.4,14.37,14.37,0,0,0,2.73-.24,15.65,15.65,0,0,0,4-1.55c-.89-.33-1.79-.64-2.71-.93A7.51,7.51,0,0,1,134.73,67.73Z"/><path class="cls-1" d="M124,68l1-1.75a10.47,10.47,0,0,1-1.46-.88c1.09,0,2.44,0,3.88-.17a58.75,58.75,0,0,0-7.19-.57,1,1,0,0,0,.17.42A10.77,10.77,0,0,0,124,68Z"/><path class="cls-1" d="M127.47,74.3l-1.32-5.38-.3-.1-2.71,4.93Z"/><path class="cls-1" d="M126,68.48l-.19.34.3.1Z"/><path class="cls-1" d="M158,149.88a4.49,4.49,0,0,0-2.72,1.74,4.28,4.28,0,0,0-1,3,4.72,4.72,0,0,0,1.36,3l5.74-7.11A5.37,5.37,0,0,0,158,149.88Z"/><path class="cls-1" d="M142.55,162.53a4.26,4.26,0,0,0-2,2.44,4.78,4.78,0,0,0,.21,3.31l7.88-4.63a5.41,5.41,0,0,0-2.93-1.79A4.47,4.47,0,0,0,142.55,162.53Z"/><polygon class="cls-1" points="88.87 152.82 81.12 156.44 85.4 160.66 88.87 152.82"/><path class="cls-1" d="M84.78,162.07l-5.06-5-4.88,2.23-.09-.09a58.62,58.62,0,0,0,8.13,8l-.26-.26Z"/><path class="cls-1" d="M119.16,134.92a7.86,7.86,0,0,1-6.89-7.09h-7.4a15.25,15.25,0,0,0,6.59,11.87A9.49,9.49,0,0,1,119.16,134.92Z"/><path class="cls-1" d="M118.89,91s-3.2.33-4.54-.51-1-.94-2.11-1.52-2.88-.14-4.9-.29-4-.14-4.46.15A37.24,37.24,0,0,1,99,92.39c-1.87,1.29-4.46,5.18-4.6,7.19s-.58,9.65,1.29,12.67a26.53,26.53,0,0,0,10,10.14,15.23,15.23,0,0,1,9.47-9.65,20.48,20.48,0,0,1-5.91-3.51c-2.59-2.59-4.17-6.91-1.15-8.93,1.69-1.12,4.24-1.22,6.15-1.08a19.13,19.13,0,0,0,0-2.26c-1.4,0-3-.11-4-.11h-4.89s.57-1.44,3.6-1.44,4.17-.15,4.89-.58a2,2,0,0,1,.25-.12l0-.28.29-.1a18.11,18.11,0,0,1,1.83-.49l.37-.08v0c.36-.11.84-.24,1.29-.33l.38-.08.06.38c0,.06,0,.13,0,.19C119.12,93.88,119.05,92.18,118.89,91Zm-10.74,3.12a2.19,2.19,0,1,1,2.18-2.19A2.18,2.18,0,0,1,108.15,94.08Z"/><path class="cls-1" d="M127.21,99.09c.78.06,2,.17,3.92.35,3.45.32,3.89,3.67,1.51,8.74-1.33,2.84-5.18,3.92-8.32,4.32a28.25,28.25,0,0,1-4.22.23V124c1.13-.2,3.94-.69,6.62-1.14a7.86,7.86,0,0,1-5.5,12.09,8.33,8.33,0,0,1-1.12.11h0v7.38h0a15.38,15.38,0,0,0,15.28-15.28,15.26,15.26,0,0,0-1.1-5.63c7.64-2.11,10.68-8.06,11.21-14.71.65-8.1-4.1-9.93-7.67-10.69a57.18,57.18,0,0,0-9.85-.56A4.6,4.6,0,0,1,127.21,99.09Z"/><path class="cls-1" d="M115.74,149.54a4.89,4.89,0,0,1,3.93-2.86c-2.43-.25-4.32-1.93-4.32-4a3.4,3.4,0,0,1,.08-.46H110.8a3.62,3.62,0,0,0-.06.46C110.74,145.66,112.78,148.21,115.74,149.54Z"/><path class="cls-1" d="M125.23,142.69c0,2-1.85,3.72-4.24,4-.24,0-.46.05-.7.05h-.19v3.79l.19,0a11.47,11.47,0,0,0,2.29-.25,2.33,2.33,0,0,1,.25,1,2.49,2.49,0,0,1-2.54,2.42,1.29,1.29,0,0,1-.19,0,2.45,2.45,0,0,1-2.35-2.38,1.74,1.74,0,0,1,.11-.45h-2.44a3.26,3.26,0,0,0,0,.45A4.8,4.8,0,0,0,120.1,156h.19a4.81,4.81,0,0,0,4.92-4.68,4.47,4.47,0,0,0-.37-1.76c3-1.33,5-3.89,5-6.86a6.69,6.69,0,0,0-.83-3.2,14.93,14.93,0,0,1-4,2A3.53,3.53,0,0,1,125.23,142.69Z"/><path class="cls-1" d="M127.46,95.34c.05,0,.09.09.13.2H128s0-.08,0-.12a.66.66,0,0,0-.32-.41c-1.21-.56-6.9-.46-9.26-.39,0,.12,0,.25,0,.37C120.67,94.92,126.34,94.82,127.46,95.34Z"/><path class="cls-1" d="M126.38,99.44c-2.43-1-6.25-3-8-3.92,0,.14,0,.28,0,.42,1.83,1,5.53,2.9,7.89,3.85l.19.07.17-.12a2.66,2.66,0,0,0,.45-.43c.06-.07.11-.15.16-.22l-.44,0A2.4,2.4,0,0,1,126.38,99.44Z"/><path class="cls-1" d="M126.77,99.05l.44,0a4.6,4.6,0,0,0,.76-3.56h-.38A4.18,4.18,0,0,1,126.77,99.05Z"/><path class="cls-1" d="M126.38,99.44a2.4,2.4,0,0,0,.39-.39,4.18,4.18,0,0,0,.82-3.51c0-.11-.08-.18-.13-.2-1.12-.52-6.79-.42-9.08-.36a4.87,4.87,0,0,1,0,.54C120.13,96.46,124,98.47,126.38,99.44Zm.85-3.79h0a3.75,3.75,0,0,1-.74,3.14l-.18.2c-2.28-.94-5.68-2.71-7.48-3.67C122.09,95.26,126.23,95.29,127.23,95.65Z"/><path class="cls-1" d="M108.15,91c-.23,0-.49.38-.49.93s.26.93.49.93.49-.38.49-.93S108.38,91,108.15,91Z"/><path class="cls-1" d="M108.15,90.61c-.47,0-.84.57-.84,1.28s.37,1.28.84,1.28.84-.56.84-1.28S108.62,90.61,108.15,90.61Zm0,2.39c-.37,0-.66-.5-.66-1.11s.29-1.1.66-1.1.66.49.66,1.1S108.52,93,108.15,93Z"/><path class="cls-1" d="M108.15,90.79c-.37,0-.66.49-.66,1.1s.29,1.11.66,1.11.66-.5.66-1.11S108.52,90.79,108.15,90.79Zm0,2c-.23,0-.49-.38-.49-.93s.26-.93.49-.93.49.38.49.93S108.38,92.82,108.15,92.82Z"/><path class="cls-1" d="M117.92,94q0,.32.06.66h.38c0-.22,0-.44-.07-.66a.36.36,0,0,1-.15,0Z"/><path class="cls-1" d="M116.6,94.16l.67-.19-.69.09,0,.08Z"/><path class="cls-1" d="M115.64,101.71a6.81,6.81,0,0,0,.56-2.25l-.26,0c0,.15-.11.3-.17.44a5.55,5.55,0,0,1-.47,1.68l.61.42a10.87,10.87,0,0,0,2.44-6l-.37-.2A10.44,10.44,0,0,1,115.64,101.71Z"/><path class="cls-1" d="M118.21,93.38l-.38.08c-.45.09-.93.22-1.29.33l0,.27.69-.09.63-.14s0,.08,0,.13h.22a.36.36,0,0,0,.15,0c0-.06,0-.13,0-.19Z"/><path class="cls-1" d="M115.94,99.42l.26,0c0-.36.07-.72.09-1.09C116.19,98.73,116.07,99.08,115.94,99.42Z"/><path class="cls-1" d="M118,95.33c0,.13,0,.27,0,.41l.37.2c0-.14,0-.28,0-.42Z"/><path class="cls-1" d="M118,95h.37c0-.12,0-.25,0-.37H118Z"/><path class="cls-1" d="M118.36,95.52a4.87,4.87,0,0,0,0-.54H118c0,.11,0,.22,0,.34Z"/><path class="cls-1" d="M116.55,97.2a.64.64,0,0,1,.13.15c0-.3,0-.59,0-.87C116.64,96.72,116.59,97,116.55,97.2Z"/><path class="cls-1" d="M116.64,94.54c.26-.08.6-.18,1-.26,0,.11,0,.23,0,.35H118q0-.34-.06-.66a4.81,4.81,0,0,0-.65,0l-.67.19C116.62,94.29,116.63,94.42,116.64,94.54Z"/><path class="cls-1" d="M117,98.69a5.56,5.56,0,0,1-.11.89l-.24,0,0,.08v-.08l-.37-.07a6.81,6.81,0,0,1-.56,2.25,10.44,10.44,0,0,0,2.34-6l-.36-.19A10.55,10.55,0,0,1,117,98.69Z"/><path class="cls-1" d="M116.68,97.35a.64.64,0,0,0-.13-.15,11,11,0,0,1-.26,1.17c0,.37-.05.73-.09,1.09l.37.07A16.08,16.08,0,0,0,116.68,97.35Z"/><path class="cls-1" d="M116.84,99.58a5.56,5.56,0,0,0,.11-.89c-.11.29-.22.57-.35.84Z"/><path class="cls-1" d="M117.9,93.83l-.63.14a4.81,4.81,0,0,1,.65,0S117.91,93.87,117.9,93.83Z"/><path class="cls-1" d="M117.62,95.55l.36.19c0-.14,0-.28,0-.41l-.37-.2C117.63,95.27,117.63,95.41,117.62,95.55Z"/><path class="cls-1" d="M117.64,95l.37,0,0-.37h-.36C117.62,94.75,117.63,94.88,117.64,95Z"/><path class="cls-1" d="M117.63,95.13l.37.2c0-.12,0-.23,0-.34l-.37,0S117.63,95.09,117.63,95.13Z"/><path class="cls-1" d="M114.45,94.69s.63-.21,1.29-.38v-.09a10,10,0,0,0-1.66.49v0s.12,1,.16,2.22h.38C114.57,95.67,114.45,94.69,114.45,94.69Z"/><path class="cls-1" d="M115.57,99.37a8.43,8.43,0,0,1-1.61,2.71,7.68,7.68,0,0,0,.62-2.83l-.37,0a7.65,7.65,0,0,1-.58,2.7l.61.42a8.76,8.76,0,0,0,1.53-2.48c0-.15,0-.3.07-.46Z"/><path class="cls-1" d="M115.57,99.37l.27,0c0-.35.06-.71.08-1.07C115.81,98.69,115.7,99,115.57,99.37Z"/><path class="cls-1" d="M114.62,97h-.38a19.13,19.13,0,0,1,0,2.26l.37,0A22.06,22.06,0,0,0,114.62,97Z"/><path class="cls-1" d="M115.71,94.05,116,94l.54-.16v0l-.37.08a18.11,18.11,0,0,0-1.83.49l-.29.1,0,.28a10,10,0,0,1,1.66-.49Z"/><path class="cls-1" d="M116.54,94.67h.11a.53.53,0,0,0,0-.13l-.11,0Z"/><path class="cls-1" d="M116.66,96.48a8.66,8.66,0,0,0,0-1.44l-.12-.06C116.6,95.36,116.64,95.89,116.66,96.48Z"/><path class="cls-1" d="M116.69,95c0-.12,0-.25,0-.37h-.11c0,.09,0,.19,0,.31Z"/><path class="cls-1" d="M115.84,99.4c0,.16,0,.31-.07.46.06-.14.12-.29.17-.44Z"/><path class="cls-1" d="M116.2,97l.1,0c0-.21,0-.41,0-.6A5.58,5.58,0,0,1,116.2,97Z"/><path class="cls-1" d="M115.74,94.31l.49-.11a.15.15,0,0,0,0,.07l.36-.11v0l0-.08c-.28,0-.56.09-.85.16Z"/><path class="cls-1" d="M116.3,97.05l-.1,0a11.74,11.74,0,0,1-.28,1.31c0,.36,0,.72-.08,1.07l.1,0c.13-.34.25-.69.35-1S116.31,97.48,116.3,97.05Z"/><path class="cls-1" d="M115.71,94.05l0,.17c.29-.07.57-.12.85-.16l0-.27L116,94Z"/><path class="cls-1" d="M116.57,95l-.28-.15a8,8,0,0,1,0,1.62c0,.19,0,.39,0,.6a.87.87,0,0,1,.25.15c0-.24.09-.48.11-.72C116.64,95.89,116.6,95.36,116.57,95Z"/><path class="cls-1" d="M116.54,94.67v-.1l.11,0c0-.12,0-.25,0-.38l-.36.11c0,.14,0,.27,0,.41Z"/><path class="cls-1" d="M116.29,98.37a11,11,0,0,0,.26-1.17.87.87,0,0,0-.25-.15C116.31,97.48,116.31,97.92,116.29,98.37Z"/><path class="cls-1" d="M116.57,95c0-.12,0-.22,0-.31h-.26s0,.1,0,.15Z"/><path class="cls-1" d="M114.89,100c0-.23,0-.46.07-.7l-.38,0a7.68,7.68,0,0,1-.62,2.83,8.43,8.43,0,0,0,1.61-2.71l-.38-.05C115.09,99.55,115,99.77,114.89,100Z"/><path class="cls-1" d="M114.86,95c.23-.07.57-.17.93-.26,0-.2,0-.32,0-.33v0c-.66.17-1.29.38-1.29.38s.12,1,.17,2.28H115C115,96.09,114.9,95.35,114.86,95Z"/><path class="cls-1" d="M115.83,97h.1c0-.19,0-.38,0-.56C115.89,96.62,115.86,96.8,115.83,97Z"/><path class="cls-1" d="M115,97h-.37a22.06,22.06,0,0,1,0,2.28l.38,0A20,20,0,0,0,115,97Z"/><path class="cls-1" d="M115.93,97h-.1a11.29,11.29,0,0,1-.64,2.33l.38.05c.13-.34.24-.68.35-1S115.93,97.42,115.93,97Z"/><path class="cls-1" d="M115.79,94.69l.13,0a8.74,8.74,0,0,1,0,1.77c0,.18,0,.37,0,.56h0a.78.78,0,0,1,.22,0,5.58,5.58,0,0,0,.08-.57c0-.71-.07-1.31-.11-1.69l-.13-.07h.12c0-.23,0-.37,0-.37l.12,0a.15.15,0,0,1,0-.07l-.49.11v0S115.77,94.49,115.79,94.69Z"/><path class="cls-1" d="M115.93,97c0,.43,0,.89,0,1.34A11.74,11.74,0,0,0,116.2,97a.78.78,0,0,0-.22,0Z"/><path class="cls-1" d="M116,94.69l.13.07v-.08Z"/><path class="cls-1" d="M116.29,94.83l-.12-.07c0,.38.09,1,.11,1.69A8,8,0,0,0,116.29,94.83Z"/><path class="cls-1" d="M116.16,94.68h.12c0-.14,0-.27,0-.41l-.12,0S116.14,94.45,116.16,94.68Z"/><path class="cls-1" d="M116.28,94.68h-.12v.08l.12.07S116.28,94.73,116.28,94.68Z"/><path class="cls-1" d="M61.07,128.36a5.73,5.73,0,0,0,1.13,3.41c-.3-1.83-.51-3.7-.64-5.58A4.63,4.63,0,0,0,61.07,128.36Z"/><path class="cls-1" d="M177.34,126.46a5.08,5.08,0,0,0-.56-.94,58.79,58.79,0,0,1-.78,6.82,4.91,4.91,0,0,0,.75-.82l.1-.14,0-.18c.22-1.44.4-2.9.52-4.39v-.18Z"/><path class="cls-1" d="M170.87,123c-1.55-.28-2-.77-2.1-2.58a8.88,8.88,0,0,1,.16-1.58c.36-2.07,2.31-6.71,5.37-13.64A57.56,57.56,0,0,0,172,99.14l-.28.66a22.18,22.18,0,0,1-1.17,2.43,82.58,82.58,0,0,0-7.42,18.19,19.57,19.57,0,0,0-.57,4.7c0,3.95,1.18,7.83,4.43,8.73a13.18,13.18,0,0,0,3.21.39,8.49,8.49,0,0,0,5.79-1.9,58.79,58.79,0,0,0,.78-6.82C175.25,123.54,172.46,123.24,170.87,123Zm4.55,7.77c-1,1.3-3,2-5.21,2a12.28,12.28,0,0,1-2.85-.34c-2-.43-3.31-3.54-3.29-7.28a18.16,18.16,0,0,1,.53-4.34,80.9,80.9,0,0,1,7.26-17.8q.27-.47.51-1c.26.7.51,1.42.75,2.14v0c-3.16,7.21-5.19,11.91-5.66,14.41a10.58,10.58,0,0,0-.18,1.85,3.67,3.67,0,0,0,3.42,4.07c1.78.19,4.41.7,5.2,2.37C175.78,128.19,175.62,129.49,175.42,130.79Z"/><path class="cls-1" d="M63.72,133.09a9.47,9.47,0,0,0,4.83,1.16,13.62,13.62,0,0,0,3.27-.4c3.25-.9,4.41-4.78,4.43-8.73a19.57,19.57,0,0,0-.57-4.7,82.58,82.58,0,0,0-7.42-18.19,24.5,24.5,0,0,1-1.43-3l-.27-.69a57.45,57.45,0,0,0-2.33,6l.1.25c3.17,7.17,5.19,12,5.56,14.08a8.89,8.89,0,0,1,.17,1.58c-.1,1.81-.56,2.3-2.11,2.58a12.89,12.89,0,0,0-4.18,1.06,4.74,4.74,0,0,0-2.21,2.11c.13,1.88.34,3.75.64,5.58A5.33,5.33,0,0,0,63.72,133.09Zm-1.15-4.73a3,3,0,0,1,1.87-2.94,11.66,11.66,0,0,1,3.69-.91,3.68,3.68,0,0,0,3.43-4.07,10.56,10.56,0,0,0-.19-1.85c-.46-2.5-2.5-7.2-5.67-14.41l-.28-.69c.24-.69.48-1.38.74-2.06.26.55.53,1.07.8,1.55a80.41,80.41,0,0,1,7.26,17.8,18.16,18.16,0,0,1,.53,4.34c0,3.74-1.26,6.85-3.29,7.28a12.73,12.73,0,0,1-2.91.35,8.15,8.15,0,0,1-4.06-.94,3.69,3.69,0,0,1-1.89-2.94A4.49,4.49,0,0,1,62.57,128.36Z"/><path class="cls-1" d="M.15,16.77V0H8.41V2.23H2.56v5H8.41V9.43H2.56v7.34Z"/><path class="cls-1" d="M21.58,16.77V15.22a6.16,6.16,0,0,1-2,1.37,5.57,5.57,0,0,1-2.3.47,6.37,6.37,0,0,1-4.74-1.91,6.5,6.5,0,0,1-1.89-4.77,7,7,0,0,1,.47-2.54,6.52,6.52,0,0,1,1.35-2.1A6.22,6.22,0,0,1,14.6,4.26a6.61,6.61,0,0,1,2.59-.48,5.88,5.88,0,0,1,4.39,1.85V4.1h2.3V16.77Zm-8.53-6.41a4.46,4.46,0,0,0,1.27,3.22,4.19,4.19,0,0,0,3.12,1.3,4.05,4.05,0,0,0,3-1.3,4.28,4.28,0,0,0,1.28-3.06,4.45,4.45,0,0,0-1.27-3.2,4,4,0,0,0-3-1.33,4.19,4.19,0,0,0-3.07,1.27A4.23,4.23,0,0,0,13.05,10.36Z"/><path class="cls-1" d="M38.56,12.45a7.12,7.12,0,0,1-2.37,3.48,6.17,6.17,0,0,1-3.81,1.18,6.65,6.65,0,0,1-2.57-.49,6.28,6.28,0,0,1-2.08-1.47A6.83,6.83,0,0,1,26.34,13a6.6,6.6,0,0,1-.5-2.53,6.77,6.77,0,0,1,4-6.19,6.35,6.35,0,0,1,2.61-.54,6.14,6.14,0,0,1,3.78,1.2,6.82,6.82,0,0,1,2.33,3.39h-2.5A4,4,0,0,0,32.25,6a3.78,3.78,0,0,0-2.87,1.28,4.46,4.46,0,0,0-1.18,3.16,4.41,4.41,0,0,0,1.2,3.16,4.1,4.1,0,0,0,5.15.64,4.28,4.28,0,0,0,1.51-1.78Z"/><path class="cls-1" d="M51.39,16.77H49.2V15.36a4.48,4.48,0,0,1-1.53,1.28,4.17,4.17,0,0,1-1.89.42,4.67,4.67,0,0,1-3.71-1.49,6.07,6.07,0,0,1-1.31-4.18V4.1H43v6.64a5.35,5.35,0,0,0,.72,3.07,2.49,2.49,0,0,0,2.18,1,3.06,3.06,0,0,0,1.6-.42,3,3,0,0,0,1.12-1.21A3.62,3.62,0,0,0,49,12.06a15.21,15.21,0,0,0,.11-2.15V4.1h2.26Z"/><path class="cls-1" d="M54.15,16.77V0h2.26V16.77Z"/><path class="cls-1" d="M59.9,16.77V6.17H58.11V4.1H59.9V0h2.27V4.1H64V6.17h-1.8v10.6Z"/><path class="cls-1" d="M75.86,16.77V15.22a6.24,6.24,0,0,1-2,1.37,5.6,5.6,0,0,1-2.3.47,6.38,6.38,0,0,1-4.75-1.91A6.5,6.5,0,0,1,65,10.38a7,7,0,0,1,.47-2.54,6.52,6.52,0,0,1,1.35-2.1,6.32,6.32,0,0,1,2.09-1.48,6.61,6.61,0,0,1,2.59-.48,6,6,0,0,1,2.39.46,6.07,6.07,0,0,1,2,1.39V4.1h2.3V16.77Zm-8.53-6.41a4.43,4.43,0,0,0,1.28,3.22,4.15,4.15,0,0,0,3.11,1.3,4.05,4.05,0,0,0,3-1.3A4.28,4.28,0,0,0,76,10.52a4.45,4.45,0,0,0-1.27-3.2,4,4,0,0,0-3-1.33,4.16,4.16,0,0,0-3.07,1.27A4.2,4.2,0,0,0,67.33,10.36Z"/><path class="cls-1" d="M91.05,16.77V15.22a6,6,0,0,1-2,1.37,5.57,5.57,0,0,1-2.3.47,6.35,6.35,0,0,1-4.74-1.91,6.5,6.5,0,0,1-1.89-4.77,6.78,6.78,0,0,1,.47-2.54A6.2,6.2,0,0,1,82,5.74a6.12,6.12,0,0,1,2.09-1.48,6.56,6.56,0,0,1,2.58-.48,6.06,6.06,0,0,1,2.39.46,6.29,6.29,0,0,1,2,1.39V0h2.28V16.77Zm-8.52-6.41a4.42,4.42,0,0,0,1.27,3.22,4.19,4.19,0,0,0,3.12,1.3,4,4,0,0,0,3-1.3,4.25,4.25,0,0,0,1.29-3.06,4.46,4.46,0,0,0-1.28-3.2,4,4,0,0,0-3-1.33A4.17,4.17,0,0,0,83.8,7.26,4.19,4.19,0,0,0,82.53,10.36Z"/><path class="cls-1" d="M113,16.77V15.22a6.24,6.24,0,0,1-2,1.37,5.6,5.6,0,0,1-2.3.47A6.38,6.38,0,0,1,104,15.15a6.5,6.5,0,0,1-1.89-4.77,7,7,0,0,1,.47-2.54,6.52,6.52,0,0,1,1.35-2.1A6.32,6.32,0,0,1,106,4.26a6.61,6.61,0,0,1,2.59-.48,6.06,6.06,0,0,1,2.39.46,6.25,6.25,0,0,1,2,1.39V0h2.28V16.77Zm-8.53-6.41a4.43,4.43,0,0,0,1.28,3.22,4.15,4.15,0,0,0,3.11,1.3,4.05,4.05,0,0,0,3-1.3,4.24,4.24,0,0,0,1.28-3.06,4.45,4.45,0,0,0-1.27-3.2,4,4,0,0,0-3-1.33,4.16,4.16,0,0,0-3.07,1.27A4.2,4.2,0,0,0,104.47,10.36Z"/><path class="cls-1" d="M119.64,11.28a4.28,4.28,0,0,0,1.44,2.57,4.22,4.22,0,0,0,4.78.45,4.06,4.06,0,0,0,1.48-1.54h2.57A7.22,7.22,0,0,1,127.46,16a6.2,6.2,0,0,1-3.66,1.12,6.54,6.54,0,0,1-2.57-.5,6.34,6.34,0,0,1-2.1-1.48A6.88,6.88,0,0,1,117.74,13a6.51,6.51,0,0,1-.5-2.52,6.81,6.81,0,0,1,.45-2.5A6.68,6.68,0,0,1,119,5.81a6,6,0,0,1,2.14-1.56,6.57,6.57,0,0,1,5.69.25,6.57,6.57,0,0,1,2.37,2.17,6.65,6.65,0,0,1,.82,1.89,9.91,9.91,0,0,1,.26,2.36v.36Zm8.17-2a4.53,4.53,0,0,0-1.47-2.43,3.86,3.86,0,0,0-2.51-.86,4,4,0,0,0-2.6.89,4.48,4.48,0,0,0-1.52,2.4Z"/><path class="cls-1" d="M141.5,16.77h-2.34V0h3.61l4.86,13,4.86-13h3.56V16.77h-2.28l.16-14.56-5.45,14.56h-1.73L141.33,2.21Z"/><path class="cls-1" d="M160.6,11.28A4.26,4.26,0,0,0,162,13.85a4,4,0,0,0,2.73,1,3.93,3.93,0,0,0,3.53-2.08h2.57A7.22,7.22,0,0,1,168.41,16a6.15,6.15,0,0,1-3.65,1.12,6.47,6.47,0,0,1-2.57-.5,6.28,6.28,0,0,1-2.11-1.48A7.06,7.06,0,0,1,158.69,13a6.7,6.7,0,0,1-.5-2.52,6.62,6.62,0,0,1,.46-2.5A6.51,6.51,0,0,1,160,5.81a6.1,6.1,0,0,1,2.13-1.56,6.31,6.31,0,0,1,2.59-.53,6.44,6.44,0,0,1,3.11.78A6.35,6.35,0,0,1,171,8.56a9.4,9.4,0,0,1,.27,2.36v.36Zm8.17-2a4.6,4.6,0,0,0-1.48-2.43,3.84,3.84,0,0,0-2.51-.86,4,4,0,0,0-2.6.89,4.41,4.41,0,0,0-1.51,2.4Z"/><path class="cls-1" d="M183.49,16.77V15.22a6.12,6.12,0,0,1-2,1.37,5.6,5.6,0,0,1-2.3.47,6.38,6.38,0,0,1-4.75-1.91,6.5,6.5,0,0,1-1.89-4.77,7,7,0,0,1,.47-2.54,6.52,6.52,0,0,1,1.35-2.1,6.32,6.32,0,0,1,2.09-1.48,6.61,6.61,0,0,1,2.59-.48,6.06,6.06,0,0,1,2.39.46,6.25,6.25,0,0,1,2,1.39V0h2.28V16.77ZM175,10.36a4.43,4.43,0,0,0,1.28,3.22,4.17,4.17,0,0,0,3.11,1.3,4.05,4.05,0,0,0,3-1.3,4.24,4.24,0,0,0,1.28-3.06,4.45,4.45,0,0,0-1.27-3.2,4,4,0,0,0-3-1.33,4.17,4.17,0,0,0-3.07,1.27A4.2,4.2,0,0,0,175,10.36Z"/><path class="cls-1" d="M190.7,2.61h-2.26V0h2.26Zm-2.26,14.16V4.1h2.26V16.77Z"/><path class="cls-1" d="M205.45,12.45a7.12,7.12,0,0,1-2.37,3.48,6.17,6.17,0,0,1-3.81,1.18,6.65,6.65,0,0,1-2.57-.49,6.38,6.38,0,0,1-2.08-1.47A6.83,6.83,0,0,1,193.23,13a6.6,6.6,0,0,1-.5-2.53A6.78,6.78,0,0,1,193.18,8a6.64,6.64,0,0,1,1.35-2.12,6.62,6.62,0,0,1,2.2-1.59,6.35,6.35,0,0,1,2.61-.54,6.14,6.14,0,0,1,3.78,1.2,6.82,6.82,0,0,1,2.33,3.39H203A4,4,0,0,0,199.14,6a3.78,3.78,0,0,0-2.87,1.28,4.46,4.46,0,0,0-1.18,3.16,4.41,4.41,0,0,0,1.2,3.16,4.1,4.1,0,0,0,5.15.64A4.21,4.21,0,0,0,203,12.45Z"/><path class="cls-1" d="M210,2.61h-2.25V0H210Zm-2.25,14.16V4.1H210V16.77Z"/><path class="cls-1" d="M215,16.77h-2.28V4.1h2.19V5.54a4.66,4.66,0,0,1,1.57-1.25,4.75,4.75,0,0,1,2-.4,4.89,4.89,0,0,1,3.82,1.47,6,6,0,0,1,1.33,4.19v7.22h-2.3V10.05a4.93,4.93,0,0,0-.74-3,3.23,3.23,0,0,0-4.79.17A7,7,0,0,0,215,11Z"/><path class="cls-1" d="M236.48,16.77V15.22a6,6,0,0,1-1.95,1.37,5.6,5.6,0,0,1-2.3.47,6.39,6.39,0,0,1-4.75-1.91,6.49,6.49,0,0,1-1.88-4.77,6.78,6.78,0,0,1,.47-2.54,6.33,6.33,0,0,1,1.34-2.1,6.25,6.25,0,0,1,2.1-1.48,6.52,6.52,0,0,1,2.58-.48,5.84,5.84,0,0,1,4.39,1.85V4.1h2.31V16.77ZM228,10.36a4.42,4.42,0,0,0,1.27,3.22,4.19,4.19,0,0,0,3.12,1.3,4,4,0,0,0,3-1.3,4.25,4.25,0,0,0,1.29-3.06,4.46,4.46,0,0,0-1.28-3.2,4,4,0,0,0-3-1.33,4.17,4.17,0,0,0-3.07,1.27A4.19,4.19,0,0,0,228,10.36Z"/><rect class="cls-1" y="20.93" width="238.82" height="5.18"/></svg>