<?xml version="1.0" encoding="utf-8"?>
<!-- Generator: Adobe Illustrator 26.2.1, SVG Export Plug-In . SVG Version: 6.00 Build 0)  -->
<svg version="1.1" id="Capa_1" xmlns="http://www.w3.org/2000/svg" xmlns:xlink="http://www.w3.org/1999/xlink" x="0px" y="0px"
	 viewBox="0 0 344 187.6" style="enable-background:new 0 0 344 187.6;" xml:space="preserve">
<style type="text/css">
	.st0{fill:#FFFFFF;}
</style>
<g id="Layer_2">
	<path class="st0" d="M128,104.5l-4.4,4.2c-3-3.1-6.3-4.7-10-4.7c-3.1,0-5.8,1.1-7.9,3.2s-3.2,4.8-3.2,7.9c0,2.2,0.5,4.1,1.4,5.8
		c1,1.7,2.3,3,4,4s3.7,1.5,5.8,1.5c1.8,0,3.5-0.3,5-1s3.1-1.9,4.9-3.7l4.2,4.4c-2.4,2.4-4.7,4-6.9,4.9c-2.2,0.9-4.6,1.4-7.4,1.4
		c-5.1,0-9.3-1.6-12.5-4.8c-3.2-3.2-4.9-7.4-4.9-12.4c0-3.3,0.7-6.2,2.2-8.7s3.6-4.6,6.4-6.1s5.7-2.3,8.9-2.3c2.7,0,5.3,0.6,7.8,1.7
		C124,100.8,126.2,102.4,128,104.5"/>
	<path class="st0" d="M133.2,98.8h6.3V120c0,1.8,0.2,3.1,0.5,3.9c0.3,0.8,0.8,1.4,1.6,1.8c0.7,0.5,1.6,0.7,2.7,0.7
		c1.1,0,2-0.3,2.8-0.8s1.3-1.1,1.7-1.9c0.3-0.8,0.5-2.3,0.5-4.5V98.8h6.3v19.6c0,3.3-0.2,5.6-0.6,6.9c-0.4,1.3-1.1,2.5-2.1,3.7
		c-1,1.2-2.3,2.1-3.6,2.6c-1.4,0.6-3,0.9-4.8,0.9c-2.4,0-4.4-0.5-6.2-1.6s-3-2.5-3.8-4.1c-0.8-1.6-1.1-4.4-1.1-8.3V98.8L133.2,98.8
		L133.2,98.8z"/>
	<path class="st0" d="M172.7,98.8h6.3l12.6,32.8h-6.5l-2.6-6.8h-13.4l-2.7,6.8H160L172.7,98.8z M175.9,107.5l-4.4,11.3h8.8
		L175.9,107.5z"/>
	<rect x="196" y="98.8" class="st0" width="6.2" height="32.8"/>
	<polygon class="st0" points="209.3,98.8 227.2,98.8 227.2,104.9 215.5,104.9 215.5,110.8 227.2,110.8 227.2,116.8 215.5,116.8 
		215.5,125.4 227.2,125.4 227.2,131.6 209.3,131.6 	"/>
	<polygon class="st0" points="233,98.8 250.9,98.8 250.9,104.9 239.2,104.9 239.2,110.8 250.9,110.8 250.9,116.8 239.2,116.8 
		239.2,125.4 250.9,125.4 250.9,131.6 233,131.6 	"/>
	<path class="st0" d="M256.8,98.8h7.4c4.8,0,8.3,0.6,10.6,1.8c2.3,1.2,4.2,3.1,5.7,5.8s2.3,5.8,2.3,9.3c0,2.5-0.4,4.8-1.3,7
		c-0.8,2.1-2,3.9-3.5,5.3c-1.5,1.4-3.1,2.4-4.8,2.9c-1.7,0.5-4.7,0.8-9,0.8h-7.5L256.8,98.8L256.8,98.8z M262.9,104.8v20.7h2.9
		c2.9,0,4.9-0.3,6.2-1c1.3-0.7,2.3-1.8,3.2-3.3c0.8-1.5,1.2-3.5,1.2-5.7c0-3.5-1-6.2-2.9-8.1c-1.8-1.7-4.6-2.6-8.5-2.6
		C265,104.8,262.9,104.8,262.9,104.8z"/>
	<path class="st0" d="M84.2,118.1c4.4,1.4,6.8,6,5.4,10.4c-1.4,4.4-6,6.8-10.4,5.4c-4.4-1.4-6.8-6-5.4-10.4S79.9,116.7,84.2,118.1"
		/>
	<path class="st0" d="M88.4,103.7c-10.6,7.1-24.1,9.7-37.6,6.2c-23.5-6.1-40.4-29-39.2-53.4c0-0.5,0.5-1,1-0.9s1,0.6,0.9,1.1
		c-1.1,23.4,15.1,45.4,37.7,51.2s45.4-6.2,53-27.9c0.2-0.5,0.7-0.8,1.2-0.5c0.5,0.2,0.8,0.8,0.6,1.3
		C102.6,90.6,96.3,98.4,88.4,103.7"/>
	<path class="st0" d="M94.7,83.6c1.4-4.4,6-6.8,10.4-5.4s6.8,6,5.4,10.4s-6,6.8-10.4,5.4S93.3,87.9,94.7,83.6"/>
	<path class="st0" d="M97.1,46.2c2.8,3.6,8,4.4,11.6,1.6s4.4-7.9,1.6-11.6c-2.8-3.6-8-4.4-11.6-1.6S94.4,42.6,97.1,46.2"/>
	<path class="st0" d="M62.2,132.7c-0.3,0.2-0.7,0.2-1,0.1c-25.3-9.7-39.9-37-33.9-63.5s30.8-44.9,57.8-42.8c0.6,0,1.1,0.6,1,1.2
		c0,0.6-0.6,1.1-1.2,1c-25.9-2-49.8,15.7-55.5,41.1s8.3,51.6,32.5,61c0.6,0.2,0.9,0.9,0.6,1.4C62.6,132.4,62.4,132.6,62.2,132.7"/>
	<path class="st0" d="M85.3,128.3c-0.1,0-0.1,0.1-0.2,0.1c-24.7,10.9-54.3,1.7-68.9-21.3C1.7,84,6.1,53.4,26.6,35.8
		c0.5-0.4,1.2-0.3,1.6,0.1c0.4,0.5,0.3,1.2-0.1,1.6c-19.7,16.9-24,46.3-10,68.4s42.4,30.9,66.1,20.5c0.6-0.2,1.2,0,1.5,0.6
		C85.9,127.5,85.7,128,85.3,128.3"/>
	<path class="st0" d="M31.1,89.3c4.4,1.4,6.8,6,5.4,10.4s-6,6.8-10.4,5.4s-6.8-6-5.4-10.4C22.1,90.4,26.8,87.9,31.1,89.3"/>
	<path class="st0" d="M104.7,42.4c-0.5,0.3-1.1,0.2-1.5-0.2c-16.9-19.6-46.3-23.8-68.5-9.8s-31,42.4-20.5,66.1
		c0.2,0.6,0,1.2-0.6,1.5s-1.2,0-1.5-0.6C1.2,74.8,10.4,45.2,33.5,30.5c23.1-14.6,53.8-10.2,71.4,10.3c0.4,0.5,0.3,1.2-0.1,1.6
		C104.7,42.4,104.7,42.4,104.7,42.4"/>
	<path class="st0" d="M15.5,50.2c4.4,1.4,6.8,6,5.4,10.4s-6,6.8-10.4,5.4s-6.8-6-5.4-10.4S11.2,48.8,15.5,50.2"/>
	<path class="st0" d="M36.7,151.2c-0.4,0.2-1.3,0.5-2.4,0.5c-2.6,0-4.5-1.8-4.5-5.1c0-3.1,1.9-5.3,4.8-5.3c1.1,0,1.9,0.3,2.2,0.4
		l-0.3,1.1c-0.4-0.2-1.1-0.4-1.8-0.4c-2.1,0-3.6,1.5-3.6,4.1c0,2.5,1.3,4,3.5,4c0.7,0,1.5-0.2,1.9-0.4L36.7,151.2z"/>
	<path class="st0" d="M42.1,151.7c-1.8,0-3.1-1.4-3.1-3.7c0-2.4,1.4-3.8,3.2-3.8c1.9,0,3.1,1.5,3.1,3.7
		C45.3,150.5,43.6,151.7,42.1,151.7L42.1,151.7z M42.1,150.7c1.1,0,2-1.2,2-2.8c0-1.2-0.6-2.8-2-2.8s-2,1.4-2,2.8
		C40.1,149.5,40.9,150.7,42.1,150.7L42.1,150.7z"/>
	<path class="st0" d="M50.8,151.7c-1.8,0-3.1-1.4-3.1-3.7c0-2.4,1.4-3.8,3.2-3.8c1.9,0,3.1,1.5,3.1,3.7
		C54.1,150.5,52.4,151.7,50.8,151.7L50.8,151.7z M50.9,150.7c1.1,0,2-1.2,2-2.8c0-1.2-0.6-2.8-2-2.8s-2,1.4-2,2.8
		C48.9,149.5,49.7,150.7,50.9,150.7L50.9,150.7z"/>
	<path class="st0" d="M56.9,146.6c0-0.9,0-1.6-0.1-2.2h1l0.1,1.4l0,0c0.3-1,1-1.6,1.8-1.6c0.1,0,0.2,0,0.3,0v1.2c-0.1,0-0.2,0-0.4,0
		c-0.8,0-1.4,0.7-1.6,1.7c0,0.2,0,0.4,0,0.6v3.9h-1.2v-5L56.9,146.6L56.9,146.6z"/>
	<path class="st0" d="M68.2,140.9v8.7c0,0.6,0,1.4,0.1,1.9h-1.1l-0.1-1.3l0,0c-0.4,0.8-1.1,1.4-2.2,1.4c-1.6,0-2.8-1.5-2.8-3.7
		c0-2.4,1.4-3.9,2.9-3.9c1,0,1.7,0.5,2,1.1l0,0v-4.3h1.2V140.9z M67,147.2c0-0.2,0-0.4-0.1-0.6c-0.2-0.8-0.8-1.5-1.7-1.5
		c-1.2,0-2,1.2-2,2.8c0,1.5,0.7,2.7,1.9,2.7c0.8,0,1.5-0.6,1.7-1.6c0-0.2,0.1-0.3,0.1-0.6L67,147.2L67,147.2z"/>
	<path class="st0" d="M72.1,143.1c-0.4,0-0.7-0.4-0.7-0.8c0-0.5,0.3-0.8,0.7-0.8c0.4,0,0.7,0.4,0.7,0.8
		C72.8,142.7,72.6,143.1,72.1,143.1L72.1,143.1z M71.5,144.3h1.2v7.2h-1.2V144.3z"/>
	<path class="st0" d="M76,146.3c0-0.8,0-1.4-0.1-1.9H77l0.1,1.2l0,0c0.3-0.7,1.1-1.3,2.2-1.3c0.9,0,2.3,0.6,2.3,3.1v4.3h-1.2v-4.3
		c0-1.2-0.4-2.1-1.5-2.1c-0.8,0-1.4,0.6-1.6,1.3c-0.1,0.2-0.1,0.4-0.1,0.6v4.3H76V146.3z"/>
	<path class="st0" d="M89.5,149.8c0,0.6,0,1.2,0.1,1.7h-1.1l-0.1-0.9l0,0c-0.4,0.6-1.1,1.1-2,1.1c-1.3,0-2-1-2-2.1
		c0-1.7,1.4-2.7,3.9-2.7v-0.1c0-0.6-0.1-1.7-1.5-1.7c-0.6,0-1.3,0.2-1.7,0.5l-0.3-0.9c0.5-0.4,1.3-0.6,2.2-0.6c2,0,2.5,1.5,2.5,3
		V149.8z M88.3,147.8c-1.3,0-2.8,0.2-2.8,1.6c0,0.9,0.5,1.3,1.1,1.3c0.9,0,1.4-0.6,1.6-1.2c0-0.1,0.1-0.3,0.1-0.4
		C88.3,149.1,88.3,147.8,88.3,147.8z"/>
	<path class="st0" d="M97.4,151.2c-0.3,0.2-1,0.4-1.9,0.4c-2,0-3.3-1.5-3.3-3.7s1.4-3.8,3.5-3.8c0.7,0,1.3,0.2,1.6,0.4l-0.3,1
		c-0.3-0.2-0.7-0.3-1.4-0.3c-1.5,0-2.3,1.2-2.3,2.7c0,1.7,1,2.7,2.3,2.7c0.7,0,1.1-0.2,1.5-0.3L97.4,151.2z"/>
	<path class="st0" d="M100.7,143.1c-0.4,0-0.7-0.4-0.7-0.8c0-0.5,0.3-0.8,0.7-0.8c0.4,0,0.7,0.4,0.7,0.8
		C101.5,142.7,101.2,143.1,100.7,143.1L100.7,143.1z M100.1,144.3h1.2v7.2h-1.2V144.3z"/>
	<path class="st0" d="M107.3,151.7c-1.8,0-3.1-1.4-3.1-3.7c0-2.4,1.4-3.8,3.2-3.8c1.9,0,3.1,1.5,3.1,3.7
		C110.6,150.5,108.9,151.7,107.3,151.7L107.3,151.7z M107.4,150.7c1.1,0,2-1.2,2-2.8c0-1.2-0.6-2.8-2-2.8s-2,1.4-2,2.8
		C105.4,149.5,106.2,150.7,107.4,150.7L107.4,150.7z M109.2,141.2l-1.6,2.1h-0.8l1.2-2.1H109.2z"/>
	<path class="st0" d="M113.4,146.3c0-0.8,0-1.4-0.1-1.9h1.1l0.1,1.2l0,0c0.3-0.7,1.1-1.3,2.2-1.3c0.9,0,2.3,0.6,2.3,3.1v4.3h-1.2
		v-4.3c0-1.2-0.4-2.1-1.5-2.1c-0.8,0-1.4,0.6-1.6,1.3c-0.1,0.2-0.1,0.4-0.1,0.6v4.3h-1.2C113.4,151.5,113.4,146.3,113.4,146.3z"/>
	<path class="st0" d="M132.1,140.9v8.7c0,0.6,0,1.4,0.1,1.9h-1.1l-0.1-1.3l0,0c-0.4,0.8-1.1,1.4-2.2,1.4c-1.6,0-2.8-1.5-2.8-3.7
		c0-2.4,1.4-3.9,2.9-3.9c1,0,1.7,0.5,2,1.1l0,0v-4.3h1.2L132.1,140.9L132.1,140.9z M130.9,147.2c0-0.2,0-0.4-0.1-0.6
		c-0.2-0.8-0.8-1.5-1.7-1.5c-1.2,0-2,1.2-2,2.8c0,1.5,0.7,2.7,1.9,2.7c0.8,0,1.5-0.6,1.7-1.6c0-0.2,0.1-0.3,0.1-0.6v-1.2
		L130.9,147.2L130.9,147.2z"/>
	<path class="st0" d="M136.1,148.1c0,1.8,1,2.5,2.2,2.5c0.9,0,1.4-0.2,1.8-0.4l0.2,0.9c-0.4,0.2-1.1,0.5-2.2,0.5
		c-2,0-3.2-1.5-3.2-3.6c0-2.2,1.2-3.9,3.1-3.9c2.1,0,2.7,2.1,2.7,3.4c0,0.3,0,0.5,0,0.6H136.1z M139.6,147.2c0-0.8-0.3-2.1-1.6-2.1
		c-1.2,0-1.7,1.2-1.8,2.1H139.6z"/>
	<path class="st0" d="M149,141.5v6c0,2.2,0.9,3.2,2.1,3.2c1.3,0,2.2-1,2.2-3.2v-6h1.2v5.9c0,3.1-1.5,4.3-3.4,4.3s-3.3-1.2-3.3-4.3
		v-5.9H149z"/>
	<path class="st0" d="M157.9,146.3c0-0.8,0-1.4-0.1-1.9h1.1l0.1,1.2l0,0c0.3-0.7,1.1-1.3,2.2-1.3c0.9,0,2.3,0.6,2.3,3.1v4.3h-1.2
		v-4.3c0-1.2-0.4-2.1-1.5-2.1c-0.8,0-1.4,0.6-1.6,1.3c-0.1,0.2-0.1,0.4-0.1,0.6v4.3h-1.2V146.3z"/>
	<path class="st0" d="M167.3,143.1c-0.4,0-0.7-0.4-0.7-0.8c0-0.5,0.3-0.8,0.7-0.8s0.7,0.4,0.7,0.8S167.8,143.1,167.3,143.1
		L167.3,143.1z M166.7,144.3h1.2v7.2h-1.2V144.3z"/>
	<path class="st0" d="M171.7,144.3l1.3,4c0.2,0.7,0.4,1.3,0.5,1.9l0,0c0.2-0.6,0.3-1.2,0.6-1.9l1.3-4h1.2l-2.6,7.2h-1.1l-2.5-7.2
		H171.7z"/>
	<path class="st0" d="M179.6,148.1c0,1.8,1,2.5,2.2,2.5c0.9,0,1.4-0.2,1.8-0.4l0.2,0.9c-0.4,0.2-1.1,0.5-2.2,0.5
		c-2,0-3.2-1.5-3.2-3.6c0-2.2,1.2-3.9,3.1-3.9c2.1,0,2.7,2.1,2.7,3.4c0,0.3,0,0.5,0,0.6H179.6z M183.1,147.2c0-0.8-0.3-2.1-1.6-2.1
		c-1.2,0-1.7,1.2-1.8,2.1H183.1z"/>
	<path class="st0" d="M187.1,146.6c0-0.9,0-1.6-0.1-2.2h1l0.1,1.4l0,0c0.3-1,1-1.6,1.8-1.6c0.1,0,0.2,0,0.3,0v1.2
		c-0.1,0-0.2,0-0.4,0c-0.8,0-1.4,0.7-1.6,1.7c0,0.2,0,0.4,0,0.6v3.9H187L187.1,146.6L187.1,146.6z"/>
	<path class="st0" d="M192.7,150.2c0.4,0.2,1,0.5,1.6,0.5c0.9,0,1.3-0.5,1.3-1.1s-0.3-1-1.2-1.3c-1.2-0.5-1.7-1.2-1.7-2
		c0-1.2,0.9-2.1,2.3-2.1c0.7,0,1.2,0.2,1.6,0.4l-0.3,0.9c-0.3-0.2-0.7-0.4-1.3-0.4c-0.7,0-1.1,0.4-1.1,1s0.4,0.9,1.2,1.2
		c1.1,0.5,1.7,1.1,1.7,2.2c0,1.3-0.9,2.2-2.4,2.2c-0.7,0-1.4-0.2-1.8-0.5L192.7,150.2z"/>
	<path class="st0" d="M200.1,143.1c-0.4,0-0.7-0.4-0.7-0.8c0-0.5,0.3-0.8,0.7-0.8s0.7,0.4,0.7,0.8
		C200.9,142.7,200.6,143.1,200.1,143.1L200.1,143.1z M199.5,144.3h1.2v7.2h-1.2V144.3z"/>
	<path class="st0" d="M209.7,140.9v8.7c0,0.6,0,1.4,0.1,1.9h-1.1l-0.1-1.3l0,0c-0.4,0.8-1.1,1.4-2.2,1.4c-1.6,0-2.8-1.5-2.8-3.7
		c0-2.4,1.4-3.9,2.9-3.9c1,0,1.7,0.5,2,1.1l0,0v-4.3h1.2L209.7,140.9L209.7,140.9z M208.5,147.2c0-0.2,0-0.4-0.1-0.6
		c-0.2-0.8-0.8-1.5-1.7-1.5c-1.2,0-2,1.2-2,2.8c0,1.5,0.7,2.7,1.9,2.7c0.8,0,1.5-0.6,1.7-1.6c0-0.2,0.1-0.3,0.1-0.6v-1.2
		L208.5,147.2L208.5,147.2z"/>
	<path class="st0" d="M217.6,149.8c0,0.6,0,1.2,0.1,1.7h-1.1l-0.1-0.9l0,0c-0.4,0.6-1.1,1.1-2,1.1c-1.3,0-2-1-2-2.1
		c0-1.7,1.4-2.7,3.9-2.7v-0.1c0-0.6-0.1-1.7-1.5-1.7c-0.6,0-1.3,0.2-1.7,0.5l-0.3-0.9c0.5-0.4,1.3-0.6,2.2-0.6c2,0,2.5,1.5,2.5,3
		L217.6,149.8L217.6,149.8z M216.5,147.8c-1.3,0-2.8,0.2-2.8,1.6c0,0.9,0.5,1.3,1.1,1.3c0.9,0,1.4-0.6,1.6-1.2
		c0-0.1,0.1-0.3,0.1-0.4L216.5,147.8L216.5,147.8z"/>
	<path class="st0" d="M226.5,140.9v8.7c0,0.6,0,1.4,0.1,1.9h-1.1l-0.1-1.3l0,0c-0.4,0.8-1.1,1.4-2.2,1.4c-1.6,0-2.8-1.5-2.8-3.7
		c0-2.4,1.4-3.9,2.9-3.9c1,0,1.7,0.5,2,1.1l0,0v-4.3h1.2L226.5,140.9L226.5,140.9z M225.3,147.2c0-0.2,0-0.4-0.1-0.6
		c-0.2-0.8-0.8-1.5-1.7-1.5c-1.2,0-2,1.2-2,2.8c0,1.5,0.7,2.7,1.9,2.7c0.8,0,1.5-0.6,1.7-1.6c0-0.2,0.1-0.3,0.1-0.6v-1.2
		L225.3,147.2L225.3,147.2z"/>
	<path class="st0" d="M235.6,148.4l-0.9,3.2h-1.2l3.1-10h1.4l3.1,10h-1.3l-1-3.2H235.6z M238.6,147.3l-0.9-2.9
		c-0.2-0.7-0.3-1.3-0.5-1.8l0,0c-0.1,0.6-0.3,1.2-0.4,1.8l-0.9,2.9H238.6z"/>
	<path class="st0" d="M243.7,140.9h1.2v4.5l0,0c0.4-0.8,1.2-1.3,2.2-1.3c1.6,0,2.8,1.5,2.8,3.7c0,2.6-1.5,3.9-2.9,3.9
		c-0.9,0-1.7-0.4-2.2-1.4l0,0l-0.1,1.2h-1c0-0.5,0.1-1.2,0.1-1.9v-8.7H243.7z M244.9,148.6c0,0.2,0,0.3,0,0.5
		c0.2,0.9,0.9,1.5,1.8,1.5c1.3,0,2-1.1,2-2.8c0-1.5-0.7-2.7-1.9-2.7c-0.8,0-1.6,0.6-1.8,1.6c0,0.2-0.1,0.3-0.1,0.6V148.6z"/>
	<path class="st0" d="M253.3,143.1c-0.4,0-0.7-0.4-0.7-0.8c0-0.5,0.3-0.8,0.7-0.8s0.7,0.4,0.7,0.8S253.7,143.1,253.3,143.1
		L253.3,143.1z M252.7,144.3h1.2v7.2h-1.2V144.3z"/>
	<path class="st0" d="M257.9,148.1c0,1.8,1,2.5,2.2,2.5c0.9,0,1.4-0.2,1.8-0.4l0.2,0.9c-0.4,0.2-1.1,0.5-2.2,0.5
		c-2,0-3.2-1.5-3.2-3.6c0-2.2,1.2-3.9,3.1-3.9c2.1,0,2.7,2.1,2.7,3.4c0,0.3,0,0.5,0,0.6H257.9z M261.4,147.2c0-0.8-0.3-2.1-1.6-2.1
		c-1.2,0-1.7,1.2-1.8,2.1H261.4z"/>
	<path class="st0" d="M265.3,146.6c0-0.9,0-1.6-0.1-2.2h1l0.1,1.4l0,0c0.3-1,1-1.6,1.8-1.6c0.1,0,0.2,0,0.3,0v1.2
		c-0.1,0-0.2,0-0.4,0c-0.8,0-1.4,0.7-1.6,1.7c0,0.2,0,0.4,0,0.6v3.9h-1.2v-5L265.3,146.6L265.3,146.6z"/>
	<path class="st0" d="M272.9,142.6v1.7h1.7v1h-1.7v3.9c0,0.9,0.2,1.4,0.9,1.4c0.3,0,0.5,0,0.7-0.1l0.1,1c-0.2,0.1-0.6,0.2-1.1,0.2
		c-0.6,0-1-0.2-1.3-0.6c-0.3-0.4-0.5-1-0.5-1.9v-3.9h-1v-1h1V143L272.9,142.6z"/>
	<path class="st0" d="M281.9,149.8c0,0.6,0,1.2,0.1,1.7h-1.1l-0.1-0.9l0,0c-0.4,0.6-1.1,1.1-2,1.1c-1.3,0-2-1-2-2.1
		c0-1.7,1.4-2.7,3.9-2.7v-0.1c0-0.6-0.1-1.7-1.5-1.7c-0.6,0-1.3,0.2-1.7,0.5l-0.3-0.9c0.5-0.4,1.3-0.6,2.2-0.6c2,0,2.5,1.5,2.5,3
		V149.8z M280.7,147.8c-1.3,0-2.8,0.2-2.8,1.6c0,0.9,0.5,1.3,1.1,1.3c0.9,0,1.4-0.6,1.6-1.2c0-0.1,0.1-0.3,0.1-0.4L280.7,147.8
		L280.7,147.8z"/>
	<rect x="30.3" y="156.1" class="st0" width="1.7" height="10"/>
	<path class="st0" d="M33.8,161c0-0.8,0-1.5-0.1-2.2h1.4l0.1,1.1l0,0c0.3-0.6,1-1.3,2.1-1.3s2.3,0.8,2.3,3.1v4.3h-1.7v-4.1
		c0-1-0.4-1.8-1.3-1.8c-0.7,0-1.1,0.5-1.3,1.1c-0.1,0.1-0.1,0.4-0.1,0.6v4.3h-1.7V161L33.8,161L33.8,161z"/>
	<path class="st0" d="M41.4,161c0-0.8,0-1.5-0.1-2.2h1.4l0.1,1.1l0,0c0.3-0.6,1-1.3,2.1-1.3s2.3,0.8,2.3,3.1v4.3h-1.7v-4.1
		c0-1-0.4-1.8-1.3-1.8c-0.7,0-1.1,0.5-1.3,1.1c-0.1,0.1-0.1,0.4-0.1,0.6v4.3h-1.7V161L41.4,161L41.4,161z"/>
	<path class="st0" d="M51.8,166.3c-1.9,0-3.3-1.4-3.3-3.7c0-2.4,1.4-3.8,3.4-3.8s3.3,1.5,3.3,3.7C55.2,165.1,53.5,166.3,51.8,166.3
		L51.8,166.3z M51.9,164.9c0.9,0,1.6-1,1.6-2.5c0-1.1-0.5-2.4-1.6-2.4c-1.2,0-1.6,1.3-1.6,2.5C50.2,163.9,50.9,164.9,51.9,164.9
		L51.9,164.9z"/>
	<path class="st0" d="M57.4,158.8l1.1,3.7c0.2,0.6,0.3,1.2,0.4,1.8l0,0c0.1-0.6,0.3-1.2,0.4-1.8l1.1-3.7h1.7l-2.5,7.3H58l-2.4-7.3
		H57.4z"/>
	<path class="st0" d="M68.1,164.4c0,0.7,0,1.3,0.1,1.7h-1.5l-0.1-0.8l0,0c-0.4,0.6-1.1,1-1.9,1c-1.3,0-2.1-1.1-2.1-2.2
		c0-1.8,1.5-2.8,3.9-2.7v-0.1c0-0.5-0.2-1.3-1.3-1.3c-0.6,0-1.3,0.2-1.8,0.5l-0.3-1.2c0.5-0.3,1.3-0.6,2.4-0.6
		c2.1,0,2.7,1.5,2.7,3.1L68.1,164.4L68.1,164.4z M66.5,162.6c-1.2,0-2.3,0.3-2.3,1.4c0,0.7,0.4,1,0.9,1c0.7,0,1.1-0.5,1.3-1
		c0-0.1,0-0.3,0-0.4L66.5,162.6L66.5,162.6z"/>
	<path class="st0" d="M74.5,165.9c-0.4,0.2-1,0.4-1.9,0.4c-2.1,0-3.4-1.5-3.4-3.7s1.4-3.9,3.7-3.9c0.6,0,1.2,0.2,1.6,0.3l-0.3,1.4
		c-0.3-0.1-0.7-0.3-1.3-0.3c-1.3,0-2,1-2,2.4c0,1.5,0.9,2.3,2,2.3c0.6,0,1-0.1,1.3-0.3L74.5,165.9z"/>
	<path class="st0" d="M76.5,157.8c-0.6,0-0.9-0.4-0.9-1s0.4-1,0.9-1c0.6,0,0.9,0.4,0.9,1S77,157.8,76.5,157.8L76.5,157.8z
		 M75.6,158.8h1.7v7.3h-1.7V158.8z"/>
	<path class="st0" d="M81.8,166.3c-1.9,0-3.3-1.4-3.3-3.7c0-2.4,1.4-3.8,3.4-3.8s3.3,1.5,3.3,3.7C85.2,165.1,83.5,166.3,81.8,166.3
		L81.8,166.3z M81.9,164.9c0.9,0,1.6-1,1.6-2.5c0-1.1-0.5-2.4-1.6-2.4c-1.2,0-1.6,1.3-1.6,2.5C80.2,163.9,80.9,164.9,81.9,164.9
		L81.9,164.9z M83.8,155.7l-1.6,2.2H81l1.2-2.2H83.8z"/>
	<path class="st0" d="M86.4,161c0-0.8,0-1.5-0.1-2.2h1.4l0.1,1.1l0,0c0.3-0.6,1-1.3,2.1-1.3s2.3,0.8,2.3,3.1v4.3h-1.7v-4.1
		c0-1-0.4-1.8-1.3-1.8c-0.7,0-1.1,0.5-1.3,1.1c-0.1,0.1-0.1,0.4-0.1,0.6v4.3h-1.7V161L86.4,161L86.4,161z"/>
	<polygon class="st0" points="101.8,161.6 98.4,161.6 98.4,164.6 102.3,164.6 102.3,166.1 96.8,166.1 96.8,156.1 102.1,156.1 
		102.1,157.6 98.4,157.6 98.4,160.2 101.8,160.2 	"/>
	<path class="st0" d="M109.5,155.5v8.5c0,0.7,0,1.5,0.1,2h-1.5l-0.1-1.1l0,0c-0.4,0.8-1.2,1.3-2.1,1.3c-1.6,0-2.8-1.5-2.8-3.7
		c0-2.4,1.4-3.9,2.9-3.9c0.9,0,1.6,0.4,1.9,0.9l0,0v-4.1h1.6V155.5z M107.9,161.9c0-0.1,0-0.3,0-0.5c-0.2-0.7-0.7-1.3-1.4-1.3
		c-1.1,0-1.7,1-1.7,2.4c0,1.3,0.6,2.3,1.6,2.3c0.7,0,1.3-0.5,1.4-1.3c0-0.2,0.1-0.3,0.1-0.5V161.9z"/>
	<path class="st0" d="M117.1,163.9c0,0.9,0,1.6,0.1,2.2h-1.4l-0.1-1.1l0,0c-0.3,0.5-0.9,1.3-2.1,1.3s-2.3-0.8-2.3-3.2v-4.3h1.7v3.9
		c0,1.2,0.4,2,1.2,2c0.7,0,1.1-0.5,1.3-1c0.1-0.1,0.1-0.4,0.1-0.6v-4.4h1.7v5.2L117.1,163.9L117.1,163.9z"/>
	<path class="st0" d="M123.6,165.9c-0.4,0.2-1,0.4-1.9,0.4c-2.1,0-3.4-1.5-3.4-3.7s1.4-3.9,3.7-3.9c0.6,0,1.2,0.2,1.6,0.3l-0.3,1.4
		c-0.3-0.1-0.7-0.3-1.3-0.3c-1.3,0-2,1-2,2.4c0,1.5,0.9,2.3,2,2.3c0.6,0,1-0.1,1.3-0.3L123.6,165.9z"/>
	<path class="st0" d="M129.8,164.4c0,0.7,0,1.3,0.1,1.7h-1.5l-0.1-0.8l0,0c-0.4,0.6-1.1,1-1.9,1c-1.3,0-2.1-1.1-2.1-2.2
		c0-1.8,1.5-2.8,3.9-2.7v-0.1c0-0.5-0.2-1.3-1.3-1.3c-0.6,0-1.3,0.2-1.8,0.5l-0.3-1.2c0.5-0.3,1.3-0.6,2.4-0.6
		c2.1,0,2.7,1.5,2.7,3.1L129.8,164.4L129.8,164.4z M128.1,162.6c-1.2,0-2.3,0.3-2.3,1.4c0,0.7,0.4,1,0.9,1c0.7,0,1.1-0.5,1.3-1
		c0-0.1,0-0.3,0-0.4v-1H128.1z"/>
	<path class="st0" d="M133.2,157v1.9h1.6v1.4h-1.6v3.2c0,0.9,0.2,1.3,0.9,1.3c0.3,0,0.5,0,0.6-0.1v1.4c-0.2,0.1-0.7,0.2-1.2,0.2
		c-0.6,0-1.1-0.2-1.4-0.6c-0.4-0.4-0.5-1.1-0.5-2v-3.4h-0.9v-1.4h0.9v-1.4L133.2,157z"/>
	<path class="st0" d="M136.7,157.8c-0.6,0-0.9-0.4-0.9-1s0.4-1,0.9-1c0.6,0,0.9,0.4,0.9,1C137.7,157.4,137.3,157.8,136.7,157.8
		L136.7,157.8z M135.9,158.8h1.7v7.3h-1.7V158.8z"/>
	<path class="st0" d="M140.3,158.8l1.1,3.7c0.2,0.6,0.3,1.2,0.4,1.8l0,0c0.1-0.6,0.3-1.2,0.4-1.8l1.1-3.7h1.7l-2.5,7.3h-1.6
		l-2.4-7.3H140.3z"/>
	<path class="st0" d="M151,164.4c0,0.7,0,1.3,0.1,1.7h-1.5l-0.1-0.8l0,0c-0.4,0.6-1.1,1-1.9,1c-1.3,0-2.1-1.1-2.1-2.2
		c0-1.8,1.5-2.8,3.9-2.7v-0.1c0-0.5-0.2-1.3-1.3-1.3c-0.6,0-1.3,0.2-1.8,0.5l-0.3-1.2c0.5-0.3,1.3-0.6,2.4-0.6
		c2.1,0,2.7,1.5,2.7,3.1L151,164.4L151,164.4z M149.3,162.6c-1.2,0-2.3,0.3-2.3,1.4c0,0.7,0.4,1,0.9,1c0.7,0,1.1-0.5,1.3-1
		c0-0.1,0-0.3,0-0.4v-1H149.3z"/>
	<path class="st0" d="M155.8,158.9l1.4,4.3c0.2,0.5,0.3,1,0.4,1.5l0,0c0.1-0.4,0.3-1,0.4-1.5l1.3-4.2h1.3l-1.8,5.1
		c-0.9,2.5-1.4,3.7-2.2,4.5c-0.6,0.6-1.2,0.8-1.5,0.8l-0.3-1.1c0.3-0.1,0.7-0.3,1-0.6s0.7-0.8,1-1.5c0.1-0.1,0.1-0.2,0.1-0.3
		s0-0.2-0.1-0.3l-2.4-6.6L155.8,158.9L155.8,158.9z"/>
	<polygon class="st0" points="169,161.4 165.5,161.4 165.5,165 169.5,165 169.5,166.1 164.3,166.1 164.3,156.1 169.3,156.1 
		169.3,157.1 165.5,157.1 165.5,160.3 169,160.3 	"/>
	<path class="st0" d="M176.4,155.5v8.7c0,0.6,0,1.4,0.1,1.9h-1.1l-0.1-1.3l0,0c-0.4,0.8-1.1,1.4-2.2,1.4c-1.6,0-2.8-1.5-2.8-3.7
		c0-2.4,1.4-3.9,2.9-3.9c1,0,1.7,0.5,2,1.1l0,0v-4.3h1.2L176.4,155.5L176.4,155.5z M175.2,161.8c0-0.2,0-0.4-0.1-0.6
		c-0.2-0.8-0.8-1.5-1.7-1.5c-1.2,0-2,1.2-2,2.8c0,1.5,0.7,2.7,1.9,2.7c0.8,0,1.5-0.6,1.7-1.6c0-0.2,0.1-0.3,0.1-0.6v-1.2
		L175.2,161.8L175.2,161.8z"/>
	<path class="st0" d="M183.7,164.1c0,0.8,0,1.4,0.1,2h-1.1l-0.1-1.2l0,0c-0.3,0.6-1,1.3-2.2,1.3c-1,0-2.3-0.6-2.3-3.2v-4.2h1.2v4
		c0,1.4,0.4,2.3,1.5,2.3c0.8,0,1.4-0.6,1.6-1.2c0.1-0.2,0.1-0.4,0.1-0.7v-4.4h1.2V164.1z"/>
	<path class="st0" d="M190.2,165.8c-0.3,0.2-1,0.4-1.9,0.4c-2,0-3.3-1.5-3.3-3.7s1.4-3.8,3.5-3.8c0.7,0,1.3,0.2,1.6,0.4l-0.3,1
		c-0.3-0.2-0.7-0.3-1.4-0.3c-1.5,0-2.3,1.2-2.3,2.7c0,1.7,1,2.7,2.3,2.7c0.7,0,1.1-0.2,1.5-0.3L190.2,165.8z"/>
	<path class="st0" d="M196.1,164.4c0,0.6,0,1.2,0.1,1.7h-1.1l-0.1-0.9l0,0c-0.4,0.6-1.1,1.1-2,1.1c-1.3,0-2-1-2-2.1
		c0-1.7,1.4-2.7,3.9-2.7v-0.1c0-0.6-0.1-1.7-1.5-1.7c-0.6,0-1.3,0.2-1.7,0.5l-0.3-0.9c0.5-0.4,1.3-0.6,2.2-0.6c2,0,2.5,1.5,2.5,3
		L196.1,164.4L196.1,164.4z M194.9,162.4c-1.3,0-2.8,0.2-2.8,1.6c0,0.9,0.5,1.3,1.1,1.3c0.9,0,1.4-0.6,1.6-1.2
		c0-0.1,0.1-0.3,0.1-0.4L194.9,162.4L194.9,162.4z"/>
	<path class="st0" d="M202.5,165.8c-0.3,0.2-1,0.4-1.9,0.4c-2,0-3.3-1.5-3.3-3.7s1.4-3.8,3.5-3.8c0.7,0,1.3,0.2,1.6,0.4l-0.3,1
		c-0.3-0.2-0.7-0.3-1.4-0.3c-1.5,0-2.3,1.2-2.3,2.7c0,1.7,1,2.7,2.3,2.7c0.7,0,1.1-0.2,1.5-0.3L202.5,165.8z"/>
	<path class="st0" d="M204.3,157.7c-0.4,0-0.7-0.4-0.7-0.8c0-0.5,0.3-0.8,0.7-0.8s0.7,0.4,0.7,0.8
		C205.1,157.3,204.8,157.7,204.3,157.7L204.3,157.7z M203.8,158.9h1.2v7.2h-1.2V158.9z"/>
	<path class="st0" d="M209.4,166.3c-1.8,0-3.1-1.4-3.1-3.7c0-2.4,1.4-3.8,3.2-3.8c1.9,0,3.1,1.5,3.1,3.7
		C212.7,165.1,211,166.3,209.4,166.3L209.4,166.3z M209.5,165.3c1.1,0,2-1.2,2-2.8c0-1.2-0.6-2.8-2-2.8s-2,1.4-2,2.8
		C207.5,164.1,208.3,165.3,209.5,165.3L209.5,165.3z M211.3,155.8l-1.6,2.1h-0.8l1.2-2.1H211.3z"/>
	<path class="st0" d="M214.1,160.8c0-0.8,0-1.4-0.1-2h1.1l0.1,1.2l0,0c0.3-0.7,1.1-1.3,2.2-1.3c0.9,0,2.3,0.6,2.3,3.1v4.3h-1.2v-4.2
		c0-1.2-0.4-2.1-1.5-2.1c-0.8,0-1.4,0.6-1.6,1.3c-0.1,0.2-0.1,0.4-0.1,0.6v4.3h-1.2V160.8z"/>
	<path class="st0" d="M228.8,164.4c0,0.6,0,1.2,0.1,1.7h-1.1l-0.1-0.9l0,0c-0.3,0.6-1.1,1.1-2,1.1c-1.3,0-2-1-2-2.1
		c0-1.7,1.4-2.7,3.9-2.7v-0.1c0-0.6-0.1-1.7-1.5-1.7c-0.6,0-1.3,0.2-1.7,0.5l-0.3-0.9c0.5-0.4,1.3-0.6,2.2-0.6c2,0,2.5,1.5,2.5,3
		L228.8,164.4L228.8,164.4z M227.6,162.4c-1.3,0-2.8,0.2-2.8,1.6c0,0.9,0.5,1.3,1.1,1.3c0.9,0,1.4-0.6,1.6-1.2
		c0-0.1,0.1-0.3,0.1-0.4L227.6,162.4L227.6,162.4z"/>
	<path class="st0" d="M233.3,156.2c0.7-0.1,1.6-0.2,2.5-0.2c1.7,0,2.9,0.4,3.7,1.3c0.8,0.8,1.3,2,1.3,3.6s-0.5,3-1.3,3.9
		c-0.9,0.9-2.3,1.4-4,1.4c-0.9,0-1.5,0-2.1-0.1L233.3,156.2L233.3,156.2z M234.5,165.1c0.3,0.1,0.7,0.1,1.2,0.1
		c2.5,0,3.9-1.5,3.9-4.3c0-2.4-1.2-3.9-3.7-3.9c-0.6,0-1.1,0.1-1.4,0.1V165.1z"/>
	<path class="st0" d="M242.7,157.7c-0.4,0-0.7-0.4-0.7-0.8c0-0.5,0.3-0.8,0.7-0.8s0.7,0.4,0.7,0.8
		C243.4,157.3,243.2,157.7,242.7,157.7L242.7,157.7z M242.1,158.9h1.2v7.2h-1.2V158.9z"/>
	<path class="st0" d="M245,164.8c0.4,0.2,1,0.5,1.6,0.5c0.9,0,1.3-0.5,1.3-1.1s-0.3-1-1.2-1.3c-1.2-0.5-1.7-1.2-1.7-2
		c0-1.2,0.9-2.1,2.3-2.1c0.7,0,1.2,0.2,1.6,0.4l-0.3,0.9c-0.3-0.2-0.7-0.4-1.3-0.4c-0.7,0-1.1,0.4-1.1,1s0.4,0.9,1.2,1.2
		c1.1,0.5,1.7,1.1,1.7,2.2c0,1.3-0.9,2.2-2.4,2.2c-0.7,0-1.4-0.2-1.8-0.5L245,164.8z"/>
	<path class="st0" d="M251.8,157.2v1.7h1.7v1h-1.7v3.9c0,0.9,0.2,1.4,0.9,1.4c0.3,0,0.5,0,0.7-0.1l0.1,1c-0.2,0.1-0.6,0.2-1.1,0.2
		c-0.6,0-1-0.2-1.3-0.6c-0.3-0.4-0.5-1-0.5-1.9v-3.9h-1v-1h1v-1.3L251.8,157.2z"/>
	<path class="st0" d="M259.3,164.4c0,0.6,0,1.2,0.1,1.7h-1.1l-0.1-0.9l0,0c-0.4,0.6-1.1,1.1-2,1.1c-1.3,0-2-1-2-2.1
		c0-1.7,1.4-2.7,3.9-2.7v-0.1c0-0.6-0.1-1.7-1.5-1.7c-0.6,0-1.3,0.2-1.7,0.5l-0.3-0.9c0.5-0.4,1.3-0.6,2.2-0.6c2,0,2.5,1.5,2.5,3
		V164.4z M258.1,162.4c-1.3,0-2.8,0.2-2.8,1.6c0,0.9,0.5,1.3,1.1,1.3c0.9,0,1.4-0.6,1.6-1.2c0-0.1,0.1-0.3,0.1-0.4V162.4z"/>
	<path class="st0" d="M261.1,160.8c0-0.8,0-1.4-0.1-2h1.1l0.1,1.2l0,0c0.3-0.7,1.1-1.3,2.2-1.3c0.9,0,2.3,0.6,2.3,3.1v4.3h-1.2v-4.2
		c0-1.2-0.4-2.1-1.5-2.1c-0.8,0-1.4,0.6-1.6,1.3c-0.1,0.2-0.1,0.4-0.1,0.6v4.3h-1.2L261.1,160.8L261.1,160.8z"/>
	<path class="st0" d="M273.1,165.8c-0.3,0.2-1,0.4-1.9,0.4c-2,0-3.3-1.5-3.3-3.7s1.4-3.8,3.5-3.8c0.7,0,1.3,0.2,1.6,0.4l-0.3,1
		c-0.3-0.2-0.7-0.3-1.4-0.3c-1.5,0-2.3,1.2-2.3,2.7c0,1.7,1,2.7,2.3,2.7c0.7,0,1.1-0.2,1.5-0.3L273.1,165.8z"/>
	<path class="st0" d="M274.9,157.7c-0.4,0-0.7-0.4-0.7-0.8c0-0.5,0.3-0.8,0.7-0.8c0.4,0,0.7,0.4,0.7,0.8
		C275.7,157.3,275.4,157.7,274.9,157.7L274.9,157.7z M274.3,158.9h1.2v7.2h-1.2V158.9z"/>
	<path class="st0" d="M282,164.4c0,0.6,0,1.2,0.1,1.7H281l-0.1-0.9l0,0c-0.4,0.6-1.1,1.1-2,1.1c-1.3,0-2-1-2-2.1
		c0-1.7,1.4-2.7,3.9-2.7v-0.1c0-0.6-0.1-1.7-1.5-1.7c-0.6,0-1.3,0.2-1.7,0.5l-0.3-0.9c0.5-0.4,1.3-0.6,2.2-0.6c2,0,2.5,1.5,2.5,3
		V164.4z M280.8,162.4c-1.3,0-2.8,0.2-2.8,1.6c0,0.9,0.5,1.3,1.1,1.3c0.9,0,1.4-0.6,1.6-1.2c0-0.1,0.1-0.3,0.1-0.4L280.8,162.4
		L280.8,162.4z"/>
</g>
</svg>
