<?xml version="1.0" encoding="utf-8"?>
<!-- Generator: Adobe Illustrator 16.0.0, SVG Export Plug-In . SVG Version: 6.00 Build 0)  -->
<!DOCTYPE svg PUBLIC "-//W3C//DTD SVG 1.1//EN" "http://www.w3.org/Graphics/SVG/1.1/DTD/svg11.dtd">
<svg version="1.1" id="Capa_1" xmlns="http://www.w3.org/2000/svg" xmlns:xlink="http://www.w3.org/1999/xlink" x="0px" y="0px"
	 width="612px" height="792px" viewBox="0 0 612 792" enable-background="new 0 0 612 792" xml:space="preserve">
<circle fill="#FFFFFF" cx="305.562" cy="395.127" r="270.938"/>
<circle fill="#FFFFFF" cx="985.562" cy="395.127" r="270.938"/>
<circle fill="#FFFFFF" cx="1652.562" cy="395.127" r="270.938"/>
<circle fill="#FFFFFF" cx="2344.562" cy="395.127" r="270.938"/>
<path fill="#00CCCC" d="M2343,151c-133.651,0-242,108.353-242,242s108.349,242,242,242c133.647,0,242-108.353,242-242
	S2476.646,151,2343,151z M2343,528.985c-28.571,0-55.325-6.711-78.365-18.364c-6.174,4.941-34.101,25.432-61.811,15.847
	c16.75-15.862,19.805-34.366,19.4-47.224c-22.148-23.466-35.445-53.502-35.445-86.244c0.004-75.106,69.945-135.996,156.221-135.996
	c86.278,0,156.221,60.888,156.221,135.996C2499.221,468.107,2429.278,528.985,2343,528.985z"/>
<circle fill="#00CCCC" cx="1649.5" cy="392.319" r="240"/>
<circle fill="#00CCCC" cx="983.5" cy="392.319" r="240"/>
<circle fill="#00CCCC" cx="303.5" cy="392.319" r="240"/>
<g>
	<g>
		<g>
			<path fill="#FFFFFF" d="M359.716,267.153c0,0-16.375-7.369-16.375,9.847c0,17.217,16.223,28.77,16.429,28.733
				c28.645,18.697,47.575,51.031,47.575,87.79c0,56.969-45.469,103.316-102.097,104.733
				c-56.627-1.417-102.097-47.765-102.097-104.733c0-36.759,18.932-69.092,47.575-87.79c0.206,0.037,16.429-11.517,16.429-28.733
				c0-17.215-16.375-9.847-16.375-9.847c-48.075,21.771-81.524,70.16-81.524,126.37c0,75.688,60.644,137.203,135.992,138.628
				c75.348-1.425,135.991-62.939,135.991-138.628C441.24,337.313,407.792,288.924,359.716,267.153z"/>
			<path fill="#FFFFFF" d="M306.201,223.673c-15.237,0-19.998,11.156-19.998,15.519v68.283v68.283
				c0,4.364,4.761,15.519,19.998,15.519c15.236,0,18.093-11.156,18.093-15.519v-68.283v-68.283
				C324.293,234.828,321.438,223.673,306.201,223.673z"/>
		</g>
	</g>
</g>
<g>
	<g>
		<g>
			<path fill="#FFFFFF" d="M1029.894,416.376l27.858-96.181h-15.983l-5.551,19.911c-2.304-6.463-5.875-11.968-10.681-16.418
				c-7.494-6.926-17.751-10.434-30.498-10.434c-12.273,0-23.62,3.463-33.704,10.292c-9.867,6.65-18.392,15.303-25.323,25.693
				c-6.862,10.306-12.22,21.811-15.904,34.188c-3.681,12.379-5.55,24.549-5.55,36.171c0,6.492,0.892,12.94,2.644,19.127
				c1.791,6.364,4.672,12.071,8.584,16.956c3.922,4.898,8.935,8.924,14.899,11.969c6.014,3.088,13.266,4.651,21.563,4.651
				c6.876,0,13.368-1.189,19.304-3.537c5.812-2.304,11.085-5.175,15.693-8.564c4.623-3.403,8.692-7.346,12.107-11.707
				c0.646-0.824,1.272-1.652,1.884-2.477c0.878,7.346,3.759,13.128,8.623,17.301c6.976,5.954,15.925,8.983,26.615,8.983
				c12.692,0,24.159-2.679,34.075-7.957c9.876-5.259,18.243-12.564,24.884-21.736c6.566-9.103,11.643-20.015,15.086-32.446
				c3.434-12.363,5.174-25.797,5.174-39.955c0-17.667-3.428-34.331-10.182-49.545c-6.744-15.17-16.329-28.505-28.51-39.62
				c-12.151-11.07-26.725-19.822-43.319-26.013c-16.602-6.157-34.978-9.285-54.613-9.285c-20.526,0-39.865,3.868-57.492,11.489
				c-17.627,7.622-33.231,18.199-46.372,31.46c-13.152,13.276-23.622,29.058-31.115,46.896
				c-7.499,17.869-11.298,37.316-11.298,57.765c0,20.449,3.592,39.867,10.672,57.72c7.099,17.869,17.232,33.704,30.098,47.099
				c12.896,13.434,28.629,24.174,46.744,31.895c18.145,7.75,38.499,11.677,60.486,11.677c23.883,0,46.117-5.057,66.098-15.042
				c19.915-9.97,37.192-23.517,51.326-40.285l2.362-2.797l-11.396-9.867l-2.423,2.871c-12.21,14.465-27.729,26.546-46.117,35.94
				c-18.297,9.333-38.431,14.054-59.851,14.054c-19.477,0-37.537-3.537-53.699-10.493c-16.187-6.971-30.256-16.62-41.805-28.677
				c-11.578-12.072-20.666-26.329-27.011-42.402c-6.354-16.088-9.58-33.473-9.58-51.691c0-17.188,3.281-33.98,9.759-49.92
				c6.477-15.939,15.579-30.227,27.039-42.447c11.465-12.2,25.288-22.042,41.085-29.26c15.796-7.202,33.379-10.853,52.283-10.853
				c17.193,0,33.374,2.783,48.09,8.259c14.688,5.476,27.583,13.216,38.353,22.984c10.755,9.783,19.279,21.46,25.353,34.677
				c6.049,13.23,9.117,27.838,9.117,43.418c0,11.218-1.264,22.215-3.755,32.708c-2.462,10.345-6.325,19.693-11.485,27.808
				c-5.057,7.958-11.657,14.436-19.619,19.261c-7.874,4.766-17.484,7.188-28.563,7.188c-5.847,0-10.834-1.45-14.806-4.303
				c-3.636-2.64-5.407-7.332-5.407-14.375c0-2.871,0.37-6.419,1.109-10.538C1027.994,423.78,1028.883,419.883,1029.894,416.376z
				 M1022.316,389.533c-2.748,10.606-6.862,21.1-12.226,31.213c-5.318,10-12.007,18.751-19.876,26.014
				c-7.603,7-16.112,10.404-26.043,10.404c-11.751,0-20.063-3.375-25.411-10.315c-5.511-7.153-8.304-16.182-8.304-26.862
				c0-9.649,1.515-20.039,4.498-30.853c2.971-10.779,7.312-20.838,12.893-29.911c5.505-8.925,12.383-16.433,20.438-22.289
				c7.795-5.668,16.793-8.549,26.753-8.549c5.564,0,10.355,0.927,14.233,2.722c3.883,1.84,6.985,4.277,9.472,7.435
				c2.531,3.231,4.455,7.03,5.733,11.302c1.312,4.405,1.968,9.058,1.968,13.793C1026.445,370.234,1025.054,378.941,1022.316,389.533
				z"/>
		</g>
	</g>
	<g>
		<g>
			<path fill="#FFFFFF" stroke="#FFFFFF" stroke-width="8.7059" stroke-miterlimit="10" d="M1029.894,416.376l27.858-96.181h-15.983
				l-5.551,19.911c-2.304-6.463-5.875-11.968-10.681-16.418c-7.494-6.926-17.751-10.434-30.498-10.434
				c-12.273,0-23.62,3.463-33.704,10.292c-9.867,6.65-18.392,15.303-25.323,25.693c-6.862,10.306-12.22,21.811-15.904,34.188
				c-3.681,12.379-5.55,24.549-5.55,36.171c0,6.492,0.892,12.94,2.644,19.127c1.791,6.364,4.672,12.071,8.584,16.956
				c3.922,4.898,8.935,8.924,14.899,11.969c6.014,3.088,13.266,4.651,21.563,4.651c6.876,0,13.368-1.189,19.304-3.537
				c5.812-2.304,11.085-5.175,15.693-8.564c4.623-3.403,8.692-7.346,12.107-11.707c0.646-0.824,1.272-1.652,1.884-2.477
				c0.878,7.346,3.759,13.128,8.623,17.301c6.976,5.954,15.925,8.983,26.615,8.983c12.692,0,24.159-2.679,34.075-7.957
				c9.876-5.259,18.243-12.564,24.884-21.736c6.566-9.103,11.643-20.015,15.086-32.446c3.434-12.363,5.174-25.797,5.174-39.955
				c0-17.667-3.428-34.331-10.182-49.545c-6.744-15.17-16.329-28.505-28.51-39.62c-12.151-11.07-26.725-19.822-43.319-26.013
				c-16.602-6.157-34.978-9.285-54.613-9.285c-20.526,0-39.865,3.868-57.492,11.489c-17.627,7.622-33.231,18.199-46.372,31.46
				c-13.152,13.276-23.622,29.058-31.115,46.896c-7.499,17.869-11.298,37.316-11.298,57.765c0,20.449,3.592,39.867,10.672,57.72
				c7.099,17.869,17.232,33.704,30.098,47.099c12.896,13.434,28.629,24.174,46.744,31.895c18.145,7.75,38.499,11.677,60.486,11.677
				c23.883,0,46.117-5.057,66.098-15.042c19.915-9.97,37.192-23.517,51.326-40.285l2.362-2.797l-11.396-9.867l-2.423,2.871
				c-12.21,14.465-27.729,26.546-46.117,35.94c-18.297,9.333-38.431,14.054-59.851,14.054c-19.477,0-37.537-3.537-53.699-10.493
				c-16.187-6.971-30.256-16.62-41.805-28.677c-11.578-12.072-20.666-26.329-27.011-42.402c-6.354-16.088-9.58-33.473-9.58-51.691
				c0-17.188,3.281-33.98,9.759-49.92c6.477-15.939,15.579-30.227,27.039-42.447c11.465-12.2,25.288-22.042,41.085-29.26
				c15.796-7.202,33.379-10.853,52.283-10.853c17.193,0,33.374,2.783,48.09,8.259c14.688,5.476,27.583,13.216,38.353,22.984
				c10.755,9.783,19.279,21.46,25.353,34.677c6.049,13.23,9.117,27.838,9.117,43.418c0,11.218-1.264,22.215-3.755,32.708
				c-2.462,10.345-6.325,19.693-11.485,27.808c-5.057,7.958-11.657,14.436-19.619,19.261c-7.874,4.766-17.484,7.188-28.563,7.188
				c-5.847,0-10.834-1.45-14.806-4.303c-3.636-2.64-5.407-7.332-5.407-14.375c0-2.871,0.37-6.419,1.109-10.538
				C1027.994,423.78,1028.883,419.883,1029.894,416.376z M1022.316,389.533c-2.748,10.606-6.862,21.1-12.226,31.213
				c-5.318,10-12.007,18.751-19.876,26.014c-7.603,7-16.112,10.404-26.043,10.404c-11.751,0-20.063-3.375-25.411-10.315
				c-5.511-7.153-8.304-16.182-8.304-26.862c0-9.649,1.515-20.039,4.498-30.853c2.971-10.779,7.312-20.838,12.893-29.911
				c5.505-8.925,12.383-16.433,20.438-22.289c7.795-5.668,16.793-8.549,26.753-8.549c5.564,0,10.355,0.927,14.233,2.722
				c3.883,1.84,6.985,4.277,9.472,7.435c2.531,3.231,4.455,7.03,5.733,11.302c1.312,4.405,1.968,9.058,1.968,13.793
				C1026.445,370.234,1025.054,378.941,1022.316,389.533z"/>
		</g>
	</g>
	<g>
		<g>
			<path fill="none" stroke="#FFFFFF" stroke-width="4.8366" stroke-miterlimit="10" d="M1029.894,416.376l27.858-96.181h-15.983
				l-5.551,19.911c-2.304-6.463-5.875-11.968-10.681-16.418c-7.494-6.926-17.751-10.434-30.498-10.434
				c-12.273,0-23.62,3.463-33.704,10.292c-9.867,6.65-18.392,15.303-25.323,25.693c-6.862,10.306-12.22,21.811-15.904,34.188
				c-3.681,12.379-5.55,24.549-5.55,36.171c0,6.492,0.892,12.94,2.644,19.127c1.791,6.364,4.672,12.071,8.584,16.956
				c3.922,4.898,8.935,8.924,14.899,11.969c6.014,3.088,13.266,4.651,21.563,4.651c6.876,0,13.368-1.189,19.304-3.537
				c5.812-2.304,11.085-5.175,15.693-8.564c4.623-3.403,8.692-7.346,12.107-11.707c0.646-0.824,1.272-1.652,1.884-2.477
				c0.878,7.346,3.759,13.128,8.623,17.301c6.976,5.954,15.925,8.983,26.615,8.983c12.692,0,24.159-2.679,34.075-7.957
				c9.876-5.259,18.243-12.564,24.884-21.736c6.566-9.103,11.643-20.015,15.086-32.446c3.434-12.363,5.174-25.797,5.174-39.955
				c0-17.667-3.428-34.331-10.182-49.545c-6.744-15.17-16.329-28.505-28.51-39.62c-12.151-11.07-26.725-19.822-43.319-26.013
				c-16.602-6.157-34.978-9.285-54.613-9.285c-20.526,0-39.865,3.868-57.492,11.489c-17.627,7.622-33.231,18.199-46.372,31.46
				c-13.152,13.276-23.622,29.058-31.115,46.896c-7.499,17.869-11.298,37.316-11.298,57.765c0,20.449,3.592,39.867,10.672,57.72
				c7.099,17.869,17.232,33.704,30.098,47.099c12.896,13.434,28.629,24.174,46.744,31.895c18.145,7.75,38.499,11.677,60.486,11.677
				c23.883,0,46.117-5.057,66.098-15.042c19.915-9.97,37.192-23.517,51.326-40.285l2.362-2.797l-11.396-9.867l-2.423,2.871
				c-12.21,14.465-27.729,26.546-46.117,35.94c-18.297,9.333-38.431,14.054-59.851,14.054c-19.477,0-37.537-3.537-53.699-10.493
				c-16.187-6.971-30.256-16.62-41.805-28.677c-11.578-12.072-20.666-26.329-27.011-42.402c-6.354-16.088-9.58-33.473-9.58-51.691
				c0-17.188,3.281-33.98,9.759-49.92c6.477-15.939,15.579-30.227,27.039-42.447c11.465-12.2,25.288-22.042,41.085-29.26
				c15.796-7.202,33.379-10.853,52.283-10.853c17.193,0,33.374,2.783,48.09,8.259c14.688,5.476,27.583,13.216,38.353,22.984
				c10.755,9.783,19.279,21.46,25.353,34.677c6.049,13.23,9.117,27.838,9.117,43.418c0,11.218-1.264,22.215-3.755,32.708
				c-2.462,10.345-6.325,19.693-11.485,27.808c-5.057,7.958-11.657,14.436-19.619,19.261c-7.874,4.766-17.484,7.188-28.563,7.188
				c-5.847,0-10.834-1.45-14.806-4.303c-3.636-2.64-5.407-7.332-5.407-14.375c0-2.871,0.37-6.419,1.109-10.538
				C1027.994,423.78,1028.883,419.883,1029.894,416.376z M1022.316,389.533c-2.748,10.606-6.862,21.1-12.226,31.213
				c-5.318,10-12.007,18.751-19.876,26.014c-7.603,7-16.112,10.404-26.043,10.404c-11.751,0-20.063-3.375-25.411-10.315
				c-5.511-7.153-8.304-16.182-8.304-26.862c0-9.649,1.515-20.039,4.498-30.853c2.971-10.779,7.312-20.838,12.893-29.911
				c5.505-8.925,12.383-16.433,20.438-22.289c7.795-5.668,16.793-8.549,26.753-8.549c5.564,0,10.355,0.927,14.233,2.722
				c3.883,1.84,6.985,4.277,9.472,7.435c2.531,3.231,4.455,7.03,5.733,11.302c1.312,4.405,1.968,9.058,1.968,13.793
				C1026.445,370.234,1025.054,378.941,1022.316,389.533z"/>
		</g>
	</g>
</g>
<path fill="#FFFFFF" d="M1498.382,406.167c-2.358-2.357-3.535-5.892-3.535-8.247c0-2.358,1.177-5.892,3.535-8.248l16.493-16.494
	c4.712-4.712,11.78-4.712,16.493,0l1.178,1.179l64.796,69.507c2.355,2.357,5.891,2.357,8.246,0l157.865-163.755h1.18l0,0
	c4.712-4.712,11.78-4.712,16.492,0l16.495,16.494c4.71,4.712,4.71,11.78,0,16.493l0,0L1609.123,508.66
	c-2.357,2.356-4.713,3.535-8.248,3.535c-3.533,0-5.89-1.179-8.245-3.535l-91.894-98.96L1498.382,406.167L1498.382,406.167z"/>
</svg>
